<?xml version="1.0" encoding="UTF-8" standalone="no"?>
<!-- Created with Inkscape (http://www.inkscape.org/) -->

<svg
   xmlns:dc="http://purl.org/dc/elements/1.1/"
   xmlns:cc="http://creativecommons.org/ns#"
   xmlns:rdf="http://www.w3.org/1999/02/22-rdf-syntax-ns#"
   xmlns:svg="http://www.w3.org/2000/svg"
   xmlns="http://www.w3.org/2000/svg"
   xmlns:sodipodi="http://sodipodi.sourceforge.net/DTD/sodipodi-0.dtd"
   xmlns:inkscape="http://www.inkscape.org/namespaces/inkscape"
   width="124.01575"
   height="124.01575"
   id="svg3565"
   version="1.1"
   inkscape:version="0.91 r13725"
   sodipodi:docname="reports_dashboards_whole.svg">
  <defs
     id="defs3567" />
  <sodipodi:namedview
     id="base"
     pagecolor="#ffffff"
     bordercolor="#666666"
     borderopacity="1.0"
     inkscape:pageopacity="0.0"
     inkscape:pageshadow="2"
     inkscape:zoom="3.959798"
     inkscape:cx="82.831269"
     inkscape:cy="53.946347"
     inkscape:document-units="px"
     inkscape:current-layer="layer1"
     showgrid="false"
     units="mm"
     inkscape:window-width="1920"
     inkscape:window-height="1059"
     inkscape:window-x="0"
     inkscape:window-y="0"
     inkscape:window-maximized="1" />
  <metadata
     id="metadata3570">
    <rdf:RDF>
      <cc:Work
         rdf:about="">
        <dc:format>image/svg+xml</dc:format>
        <dc:type
           rdf:resource="http://purl.org/dc/dcmitype/StillImage" />
        <dc:title></dc:title>
      </cc:Work>
    </rdf:RDF>
  </metadata>
  <g
     inkscape:label="Layer 1"
     inkscape:groupmode="layer"
     id="layer1"
     transform="translate(0,-928.34644)">
    <path
       style="color:#000000;display:inline;overflow:visible;visibility:visible;fill:#999999;fill-opacity:1;fill-rule:nonzero;stroke:none;stroke-width:10;marker:none;enable-background:accumulate"
       d="M 62.007812 3.5390625 C 29.718722 3.5390625 3.5390625 29.718723 3.5390625 62.007812 C 3.5390625 94.296924 29.718723 120.47656 62.007812 120.47656 C 94.296892 120.47656 120.47656 94.296922 120.47656 62.007812 C 120.47656 29.718723 94.296893 3.5390625 62.007812 3.5390625 z M 29.802734 24.306641 L 29.802734 88.939453 L 102.01172 88.939453 L 99.210938 92.482422 L 94.835938 92.482422 L 94.835938 95.605469 L 91.292969 95.605469 L 91.292969 92.482422 L 87.150391 92.482422 L 87.150391 95.605469 L 83.605469 95.605469 L 83.605469 92.482422 L 79.462891 92.482422 L 79.462891 95.605469 L 75.919922 95.605469 L 75.919922 92.482422 L 71.777344 92.482422 L 71.777344 95.605469 L 68.234375 95.605469 L 68.234375 92.482422 L 64.091797 92.482422 L 64.091797 95.605469 L 60.548828 95.605469 L 60.548828 92.482422 L 56.404297 92.482422 L 56.404297 95.605469 L 52.861328 95.605469 L 52.861328 92.482422 L 48.71875 92.482422 L 48.71875 95.605469 L 45.175781 95.605469 L 45.175781 92.482422 L 41.033203 92.482422 L 41.033203 95.605469 L 37.490234 95.605469 L 37.490234 92.482422 L 33.347656 92.482422 L 33.347656 95.605469 L 29.802734 95.605469 L 29.802734 92.482422 L 27.386719 92.482422 L 26.259766 92.482422 L 26.259766 88.939453 L 23.378906 88.939453 L 23.378906 85.396484 L 26.259766 85.396484 L 26.259766 81.253906 L 23.378906 81.253906 L 23.378906 77.708984 L 26.259766 77.708984 L 26.259766 73.566406 L 23.378906 73.566406 L 23.378906 70.023438 L 26.259766 70.023438 L 26.259766 65.880859 L 23.378906 65.880859 L 23.378906 62.337891 L 26.259766 62.337891 L 26.259766 58.195312 L 23.378906 58.195312 L 23.378906 54.650391 L 26.259766 54.650391 L 26.259766 50.507812 L 23.378906 50.507812 L 23.378906 46.964844 L 26.259766 46.964844 L 26.259766 42.822266 L 23.378906 42.822266 L 23.378906 39.279297 L 26.259766 39.279297 L 26.259766 35.136719 L 23.378906 35.136719 L 23.378906 31.59375 L 26.259766 31.59375 L 26.259766 28.347656 L 29.802734 24.306641 z "
       transform="translate(0,928.34644)"
       id="path3658-5-8-2" />
    <path
       style="color:#000000;display:inline;overflow:visible;visibility:visible;opacity:1;fill:#000000;fill-opacity:1;fill-rule:nonzero;stroke:none;stroke-width:6;stroke-linecap:round;stroke-linejoin:miter;stroke-miterlimit:4;stroke-dasharray:none;stroke-dashoffset:0;stroke-opacity:1;marker:none;enable-background:accumulate"
       d="M 61.992188 -0.0078125 C 27.746184 -0.0078125 -0.0078125 27.746188 -0.0078125 61.992188 C -0.0078125 96.238228 27.746184 124.02344 61.992188 124.02344 C 96.238191 124.02344 124.02344 96.238226 124.02344 61.992188 C 124.02344 27.746188 96.238192 -0.0078125 61.992188 -0.0078125 z M 61.992188 3.5234375 C 94.281276 3.5234375 120.46094 29.703088 120.46094 61.992188 C 120.46094 94.281327 94.281274 120.46094 61.992188 120.46094 C 29.7031 120.46094 3.5234375 94.281327 3.5234375 61.992188 C 3.5234375 29.703088 29.7031 3.5234375 61.992188 3.5234375 z M 83.949219 28.148438 C 81.697106 28.148438 80.767578 28.608119 80.767578 31.974609 L 80.767578 88.939453 L 97.017578 88.939453 L 97.017578 31.974609 C 97.017578 29.093989 95.770401 28.148438 93.796875 28.148438 L 83.949219 28.148438 z M 61.220703 47.59375 C 58.96859 47.59375 58.039062 48.053432 58.039062 51.419922 L 58.039062 88.939453 L 74.289062 88.939453 L 74.289062 51.419922 C 74.289062 48.539302 73.041885 47.59375 71.068359 47.59375 L 61.220703 47.59375 z M 38.492188 66.408203 C 36.240075 66.408203 35.3125 66.867885 35.3125 70.234375 L 35.3125 88.939453 L 51.5625 88.939453 L 51.5625 70.234375 C 51.5625 67.353755 50.31337 66.408203 48.339844 66.408203 L 38.492188 66.408203 z "
       transform="translate(0,928.34644)"
       id="rect4499" />
  </g>
</svg>
