<?xml version="1.0" encoding="UTF-8" standalone="no"?>
<svg
   xmlns:dc="http://purl.org/dc/elements/1.1/"
   xmlns:cc="http://creativecommons.org/ns#"
   xmlns:rdf="http://www.w3.org/1999/02/22-rdf-syntax-ns#"
   xmlns:svg="http://www.w3.org/2000/svg"
   xmlns="http://www.w3.org/2000/svg"
   version="1.1"
   id="svg3565"
   height="124.01575"
   width="124.01575">
  <defs
     id="defs3567" />
  <metadata
     id="metadata3570">
    <rdf:RDF>
      <cc:Work
         rdf:about="">
        <dc:format>image/svg+xml</dc:format>
        <dc:type
           rdf:resource="http://purl.org/dc/dcmitype/StillImage" />
        <dc:title></dc:title>
      </cc:Work>
    </rdf:RDF>
  </metadata>
  <g
     transform="translate(0,-928.34644)"
     id="layer1">
    <path
       id="rect4499"
       transform="translate(0,928.34644)"
       d="M 61.992188 -0.0078125 C 27.746184 -0.0078125 -0.0078125 27.746188 -0.0078125 61.992188 C -0.0078125 96.238228 27.746184 124.02344 61.992188 124.02344 C 96.238191 124.02344 124.02344 96.238226 124.02344 61.992188 C 124.02344 27.746188 96.238192 -0.0078125 61.992188 -0.0078125 z M 61.992188 3.5234375 C 94.281276 3.5234375 120.46094 29.703088 120.46094 61.992188 C 120.46094 94.281327 94.281274 120.46094 61.992188 120.46094 C 29.7031 120.46094 3.5234375 94.281327 3.5234375 61.992188 C 3.5234375 29.703088 29.7031 3.5234375 61.992188 3.5234375 z M 83.949219 28.148438 C 81.697106 28.148438 80.767578 28.608119 80.767578 31.974609 L 80.767578 88.939453 L 97.017578 88.939453 L 97.017578 31.974609 C 97.017578 29.093989 95.770401 28.148438 93.796875 28.148438 L 83.949219 28.148438 z M 61.220703 47.59375 C 58.96859 47.59375 58.039062 48.053432 58.039062 51.419922 L 58.039062 88.939453 L 74.289062 88.939453 L 74.289062 51.419922 C 74.289062 48.539302 73.041885 47.59375 71.068359 47.59375 L 61.220703 47.59375 z M 38.492188 66.408203 C 36.240075 66.408203 35.3125 66.867885 35.3125 70.234375 L 35.3125 88.939453 L 51.5625 88.939453 L 51.5625 70.234375 C 51.5625 67.353755 50.31337 66.408203 48.339844 66.408203 L 38.492188 66.408203 z "
       style="color:#000000;display:inline;overflow:visible;visibility:visible;opacity:1;fill:#000000;fill-opacity:1;fill-rule:nonzero;stroke:none;stroke-width:6;stroke-linecap:round;stroke-linejoin:miter;stroke-miterlimit:4;stroke-dasharray:none;stroke-dashoffset:0;stroke-opacity:1;marker:none;enable-background:accumulate" />
  </g>
</svg>
