<?xml version="1.0" encoding="UTF-8" standalone="no"?>
<svg
   xmlns:dc="http://purl.org/dc/elements/1.1/"
   xmlns:cc="http://creativecommons.org/ns#"
   xmlns:rdf="http://www.w3.org/1999/02/22-rdf-syntax-ns#"
   xmlns:svg="http://www.w3.org/2000/svg"
   xmlns="http://www.w3.org/2000/svg"
   version="1.1"
   id="svg3565"
   height="124.01575"
   width="124.01575">
  <defs
     id="defs3567" />
  <metadata
     id="metadata3570">
    <rdf:RDF>
      <cc:Work
         rdf:about="">
        <dc:format>image/svg+xml</dc:format>
        <dc:type
           rdf:resource="http://purl.org/dc/dcmitype/StillImage" />
        <dc:title></dc:title>
      </cc:Work>
    </rdf:RDF>
  </metadata>
  <g
     transform="translate(0,-928.34644)"
     id="layer1">
    <path
       id="path3658-5-8-2"
       transform="translate(0,928.34644)"
       d="M 62.007812 3.5390625 C 29.718722 3.5390625 3.5390625 29.718723 3.5390625 62.007812 C 3.5390625 94.296924 29.718723 120.47656 62.007812 120.47656 C 94.296892 120.47656 120.47656 94.296922 120.47656 62.007812 C 120.47656 29.718723 94.296893 3.5390625 62.007812 3.5390625 z M 29.802734 24.306641 L 29.802734 88.939453 L 102.01172 88.939453 L 99.210938 92.482422 L 94.835938 92.482422 L 94.835938 95.605469 L 91.292969 95.605469 L 91.292969 92.482422 L 87.150391 92.482422 L 87.150391 95.605469 L 83.605469 95.605469 L 83.605469 92.482422 L 79.462891 92.482422 L 79.462891 95.605469 L 75.919922 95.605469 L 75.919922 92.482422 L 71.777344 92.482422 L 71.777344 95.605469 L 68.234375 95.605469 L 68.234375 92.482422 L 64.091797 92.482422 L 64.091797 95.605469 L 60.548828 95.605469 L 60.548828 92.482422 L 56.404297 92.482422 L 56.404297 95.605469 L 52.861328 95.605469 L 52.861328 92.482422 L 48.71875 92.482422 L 48.71875 95.605469 L 45.175781 95.605469 L 45.175781 92.482422 L 41.033203 92.482422 L 41.033203 95.605469 L 37.490234 95.605469 L 37.490234 92.482422 L 33.347656 92.482422 L 33.347656 95.605469 L 29.802734 95.605469 L 29.802734 92.482422 L 27.386719 92.482422 L 26.259766 92.482422 L 26.259766 88.939453 L 23.378906 88.939453 L 23.378906 85.396484 L 26.259766 85.396484 L 26.259766 81.253906 L 23.378906 81.253906 L 23.378906 77.708984 L 26.259766 77.708984 L 26.259766 73.566406 L 23.378906 73.566406 L 23.378906 70.023438 L 26.259766 70.023438 L 26.259766 65.880859 L 23.378906 65.880859 L 23.378906 62.337891 L 26.259766 62.337891 L 26.259766 58.195312 L 23.378906 58.195312 L 23.378906 54.650391 L 26.259766 54.650391 L 26.259766 50.507812 L 23.378906 50.507812 L 23.378906 46.964844 L 26.259766 46.964844 L 26.259766 42.822266 L 23.378906 42.822266 L 23.378906 39.279297 L 26.259766 39.279297 L 26.259766 35.136719 L 23.378906 35.136719 L 23.378906 31.59375 L 26.259766 31.59375 L 26.259766 28.347656 L 29.802734 24.306641 z "
       style="color:#000000;display:inline;overflow:visible;visibility:visible;fill:#999999;fill-opacity:1;fill-rule:nonzero;stroke:none;stroke-width:10;marker:none;enable-background:accumulate" />
  </g>
</svg>
