<?xml version="1.0" encoding="UTF-8" standalone="no"?>
<svg
   xmlns:dc="http://purl.org/dc/elements/1.1/"
   xmlns:cc="http://creativecommons.org/ns#"
   xmlns:rdf="http://www.w3.org/1999/02/22-rdf-syntax-ns#"
   xmlns:svg="http://www.w3.org/2000/svg"
   xmlns="http://www.w3.org/2000/svg"
   version="1.1"
   id="svg2"
   height="35mm"
   width="34.999996mm">
  <defs
     id="defs4" />
  <metadata
     id="metadata7">
    <rdf:RDF>
      <cc:Work
         rdf:about="">
        <dc:format>image/svg+xml</dc:format>
        <dc:type
           rdf:resource="http://purl.org/dc/dcmitype/StillImage" />
        <dc:title></dc:title>
      </cc:Work>
    </rdf:RDF>
  </metadata>
  <g
     transform="translate(-272.04724,-502.17925)"
     id="layer1">
    <path
       id="path3195"
       transform="translate(272.04724,502.17925)"
       d="M 62.007812 -0.013671875 C 27.760612 -0.013671875 0 27.746941 0 61.994141 C 0 96.241331 27.760612 124.00195 62.007812 124.00195 C 96.255015 124.00195 124.01565 96.241331 124.01562 61.994141 C 124.01562 27.746941 96.255013 -0.013671875 62.007812 -0.013671875 z M 75.972656 8.921875 L 88.328125 13.898438 L 88.021484 26.765625 C 91.225804 29.137105 94.095685 31.92208 96.546875 35.0625 L 109.41406 34.373047 L 114.62109 46.626953 L 105.33008 55.484375 C 105.64761 57.612735 105.81445 59.802771 105.81445 62.019531 C 105.81445 63.814171 105.69197 65.566558 105.48242 67.304688 L 115.10547 75.90625 L 110.12891 88.261719 L 97.287109 87.982422 C 94.878489 91.251582 92.01862 94.174519 88.8125 96.662109 L 89.451172 109.55273 L 77.171875 114.70898 L 68.337891 105.36719 C 66.257121 105.67027 64.147252 105.85156 61.982422 105.85156 C 60.117442 105.85156 58.27246 105.72018 56.46875 105.49414 L 47.789062 115.06641 L 35.458984 110.03711 L 35.816406 97.197266 C 32.619336 94.816746 29.756653 91.997239 27.314453 88.849609 L 14.423828 89.488281 L 9.2675781 77.234375 L 18.609375 68.402344 C 18.303915 66.313634 18.125 64.193021 18.125 62.019531 C 18.125 60.154551 18.256372 58.309559 18.482422 56.505859 L 8.9101562 47.826172 L 13.964844 35.521484 L 26.779297 35.878906 C 29.162477 32.675126 31.973863 29.823393 35.126953 27.376953 L 34.488281 14.486328 L 46.767578 9.3300781 L 55.574219 18.646484 C 57.662929 18.341024 59.808932 18.1875 61.982422 18.1875 C 63.803022 18.1875 65.58139 18.27861 67.34375 18.494141 L 75.972656 8.921875 z M 62.007812 33.197266 C 46.104242 33.197266 33.212891 46.090561 33.212891 61.994141 C 33.212891 77.897711 46.104242 90.789062 62.007812 90.789062 C 77.911383 90.789062 90.802734 77.897711 90.802734 61.994141 C 90.802734 46.090561 77.911387 33.197266 62.007812 33.197266 z M 62.007812 40.015625 A 19.3325 8.1830578 0 0 1 81.339844 48.199219 A 19.3325 8.1830578 0 0 1 62.007812 56.382812 A 19.3325 8.1830578 0 0 1 42.675781 48.199219 A 19.3325 8.1830578 0 0 1 62.007812 40.015625 z M 42.675781 51.619141 L 42.751953 51.619141 C 43.583883 55.859691 51.955013 58.857375 62.007812 58.859375 C 72.059123 58.856245 80.427966 55.859061 81.259766 51.619141 L 81.339844 51.619141 L 81.339844 57.455078 L 81.332031 57.455078 C 81.335031 57.479178 81.337844 57.503244 81.339844 57.527344 C 81.340534 62.046854 72.685164 65.710828 62.007812 65.710938 C 51.330464 65.710828 42.675091 62.046854 42.675781 57.527344 C 42.677781 57.503244 42.680594 57.479178 42.683594 57.455078 L 42.675781 57.455078 L 42.675781 51.619141 z M 42.675781 60.947266 L 42.751953 60.947266 C 43.583883 65.187816 51.955013 68.187453 62.007812 68.189453 C 72.059123 68.186323 80.427966 65.187186 81.259766 60.947266 L 81.339844 60.947266 L 81.339844 66.785156 L 81.332031 66.785156 C 81.335031 66.809256 81.337844 66.833322 81.339844 66.857422 C 81.340534 71.376932 72.685163 75.040906 62.007812 75.041016 C 51.330464 75.040906 42.675091 71.376932 42.675781 66.857422 C 42.677781 66.833322 42.680594 66.809256 42.683594 66.785156 L 42.675781 66.785156 L 42.675781 60.947266 z M 42.675781 70.277344 L 42.751953 70.277344 C 43.583883 74.517894 51.955013 77.515578 62.007812 77.517578 C 72.059123 77.514448 80.427966 74.517264 81.259766 70.277344 L 81.339844 70.277344 L 81.339844 76.113281 L 81.332031 76.113281 C 81.335031 76.137381 81.337844 76.161447 81.339844 76.185547 C 81.340534 80.705057 72.685162 84.369031 62.007812 84.369141 C 51.330463 84.369031 42.675091 80.705057 42.675781 76.185547 C 42.677781 76.161447 42.680594 76.137381 42.683594 76.113281 L 42.675781 76.113281 L 42.675781 70.277344 z "
       style="color:#000000;display:inline;overflow:visible;visibility:visible;opacity:1;fill:#000000;fill-opacity:1;fill-rule:nonzero;stroke:none;stroke-width:10;marker:none;enable-background:accumulate" />
  </g>
</svg>
