<?xml version="1.0" encoding="UTF-8" standalone="no"?>
<svg
   xmlns:dc="http://purl.org/dc/elements/1.1/"
   xmlns:cc="http://creativecommons.org/ns#"
   xmlns:rdf="http://www.w3.org/1999/02/22-rdf-syntax-ns#"
   xmlns:svg="http://www.w3.org/2000/svg"
   xmlns="http://www.w3.org/2000/svg"
   version="1.1"
   id="svg2"
   height="124.01575"
   width="124.01574">
  <defs
     id="defs4" />
  <metadata
     id="metadata7">
    <rdf:RDF>
      <cc:Work
         rdf:about="">
        <dc:format>image/svg+xml</dc:format>
        <dc:type
           rdf:resource="http://purl.org/dc/dcmitype/StillImage" />
        <dc:title></dc:title>
      </cc:Work>
    </rdf:RDF>
  </metadata>
  <g
     transform="translate(-272.04724,-502.17925)"
     id="layer1">
    <g
       style="opacity:1"
       transform="translate(-2.7954104e-7,-1.4648436e-6)"
       id="layer1-7">
      <path
         d="m 334.05511,502.1715 c -34.246,0 -62,27.78527 -62,62.03125 0,34.24599 27.754,62 62,62 34.246,0 62,-27.75401 62,-62 0,-34.24598 -27.754,-62.03125 -62,-62.03125 z m 0,37.46875 c 13.55623,0 24.53125,11.00627 24.53125,24.5625 0,13.55623 -10.97502,24.53125 -24.53125,24.53125 -13.55623,0 -24.53125,-10.97502 -24.53125,-24.53125 0,-13.55623 10.97502,-24.5625 24.53125,-24.5625 z"
         id="path3433-9"
         style="color:#000000;display:inline;overflow:visible;visibility:visible;fill:#b3b3b3;fill-opacity:1;fill-rule:nonzero;stroke:none;stroke-width:10;marker:none;enable-background:accumulate" />
    </g>
  </g>
</svg>
