<?xml version="1.0" encoding="UTF-8" standalone="no"?>
<!-- Created with Inkscape (http://www.inkscape.org/) -->

<svg
   xmlns:dc="http://purl.org/dc/elements/1.1/"
   xmlns:cc="http://creativecommons.org/ns#"
   xmlns:rdf="http://www.w3.org/1999/02/22-rdf-syntax-ns#"
   xmlns:svg="http://www.w3.org/2000/svg"
   xmlns="http://www.w3.org/2000/svg"
   xmlns:sodipodi="http://sodipodi.sourceforge.net/DTD/sodipodi-0.dtd"
   xmlns:inkscape="http://www.inkscape.org/namespaces/inkscape"
   width="124.01574"
   height="124.01575"
   id="svg2"
   version="1.1"
   inkscape:version="0.91 r13725"
   sodipodi:docname="apex_basics_whole.svg">
  <defs
     id="defs4" />
  <sodipodi:namedview
     id="base"
     pagecolor="#ffffff"
     bordercolor="#666666"
     borderopacity="1.0"
     inkscape:pageopacity="0.0"
     inkscape:pageshadow="2"
     inkscape:zoom="4"
     inkscape:cx="68.682676"
     inkscape:cy="76.088974"
     inkscape:document-units="px"
     inkscape:current-layer="layer1"
     showgrid="false"
     inkscape:snap-object-midpoints="true"
     fit-margin-top="0"
     fit-margin-left="0"
     fit-margin-right="0"
     fit-margin-bottom="0"
     inkscape:window-width="1920"
     inkscape:window-height="1059"
     inkscape:window-x="0"
     inkscape:window-y="0"
     inkscape:window-maximized="1"
     units="mm"
     inkscape:snap-smooth-nodes="true"
     inkscape:object-nodes="true"
     inkscape:object-paths="true"
     inkscape:snap-nodes="false" />
  <metadata
     id="metadata7">
    <rdf:RDF>
      <cc:Work
         rdf:about="">
        <dc:format>image/svg+xml</dc:format>
        <dc:type
           rdf:resource="http://purl.org/dc/dcmitype/StillImage" />
        <dc:title></dc:title>
      </cc:Work>
    </rdf:RDF>
  </metadata>
  <g
     inkscape:label="Layer 1"
     inkscape:groupmode="layer"
     id="layer1"
     transform="translate(-272.04724,-502.17925)">
    <g
       id="layer1-7"
       transform="translate(-2.7954104e-7,-1.4648436e-6)"
       style="opacity:1">
      <path
         style="color:#000000;display:inline;overflow:visible;visibility:visible;fill:#b3b3b3;fill-opacity:1;fill-rule:nonzero;stroke:none;stroke-width:10;marker:none;enable-background:accumulate"
         id="path3433-9"
         d="m 334.05511,502.1715 c -34.246,0 -62,27.78527 -62,62.03125 0,34.24599 27.754,62 62,62 34.246,0 62,-27.75401 62,-62 0,-34.24598 -27.754,-62.03125 -62,-62.03125 z m 0,37.46875 c 13.55623,0 24.53125,11.00627 24.53125,24.5625 0,13.55623 -10.97502,24.53125 -24.53125,24.53125 -13.55623,0 -24.53125,-10.97502 -24.53125,-24.53125 0,-13.55623 10.97502,-24.5625 24.53125,-24.5625 z"
         inkscape:connector-curvature="0" />
    </g>
    <path
       style="color:#000000;fill:#000000;fill-opacity:1;fill-rule:nonzero;stroke:none;stroke-width:10;marker:none;visibility:visible;display:inline;overflow:visible;enable-background:accumulate;opacity:1"
       d="M 62.007812 -0.013671875 C 27.760612 -0.013671875 0 27.746941 0 61.994141 C 0 96.241331 27.760612 124.00195 62.007812 124.00195 C 96.255015 124.00195 124.01565 96.241331 124.01562 61.994141 C 124.01562 27.746941 96.255013 -0.013671875 62.007812 -0.013671875 z M 75.972656 8.921875 L 88.328125 13.898438 L 88.021484 26.765625 C 91.225804 29.137105 94.095685 31.92208 96.546875 35.0625 L 109.41406 34.373047 L 114.62109 46.626953 L 105.33008 55.484375 C 105.64761 57.612735 105.81445 59.802771 105.81445 62.019531 C 105.81445 63.814171 105.69197 65.566558 105.48242 67.304688 L 115.10547 75.90625 L 110.12891 88.261719 L 97.287109 87.982422 C 94.878489 91.251582 92.01862 94.174519 88.8125 96.662109 L 89.451172 109.55273 L 77.171875 114.70898 L 68.337891 105.36719 C 66.257121 105.67027 64.147252 105.85156 61.982422 105.85156 C 60.117442 105.85156 58.27246 105.72018 56.46875 105.49414 L 47.789062 115.06641 L 35.458984 110.03711 L 35.816406 97.197266 C 32.619336 94.816746 29.756653 91.997239 27.314453 88.849609 L 14.423828 89.488281 L 9.2675781 77.234375 L 18.609375 68.402344 C 18.303915 66.313634 18.125 64.193021 18.125 62.019531 C 18.125 60.154551 18.256372 58.309559 18.482422 56.505859 L 8.9101562 47.826172 L 13.964844 35.521484 L 26.779297 35.878906 C 29.162477 32.675126 31.973863 29.823393 35.126953 27.376953 L 34.488281 14.486328 L 46.767578 9.3300781 L 55.574219 18.646484 C 57.662929 18.341024 59.808932 18.1875 61.982422 18.1875 C 63.803022 18.1875 65.58139 18.278611 67.34375 18.494141 L 75.972656 8.921875 z M 62.007812 33.197266 C 46.104242 33.197266 33.212891 46.090561 33.212891 61.994141 C 33.212891 77.897711 46.104242 90.789062 62.007812 90.789062 C 77.911383 90.789062 90.802734 77.897711 90.802734 61.994141 C 90.802734 46.090561 77.911387 33.197266 62.007812 33.197266 z M 62.007812 40.015625 A 19.3325 8.1830578 0 0 1 81.339844 48.199219 A 19.3325 8.1830578 0 0 1 62.007812 56.382812 A 19.3325 8.1830578 0 0 1 42.675781 48.199219 A 19.3325 8.1830578 0 0 1 62.007812 40.015625 z M 42.748047 52.275391 C 46.187197 55.773781 53.660279 58.091797 61.912109 58.091797 C 69.826429 58.091797 76.597603 55.671801 81.220703 52.275391 L 81.339844 59.511719 C 77.074064 62.617529 70.432884 65.265625 61.558594 65.265625 C 52.900834 65.265625 46.565581 62.857539 42.675781 59.511719 L 42.748047 52.275391 z M 42.748047 60.671875 C 46.187197 64.170265 53.660279 66.490234 61.912109 66.490234 C 69.826429 66.490234 76.597603 64.068285 81.220703 60.671875 L 81.339844 67.908203 C 77.074064 71.014013 70.432884 73.662109 61.558594 73.662109 C 52.900834 73.662109 46.565581 71.254023 42.675781 67.908203 L 42.748047 60.671875 z M 42.748047 69.025391 C 46.187197 72.523781 53.660279 74.841797 61.912109 74.841797 C 69.826429 74.841797 76.597603 72.421801 81.220703 69.025391 L 81.339844 76.261719 C 77.074064 79.367529 70.432884 82.015625 61.558594 82.015625 C 52.900834 82.015625 46.565581 79.607539 42.675781 76.261719 L 42.748047 69.025391 z "
       transform="translate(272.04724,502.17925)"
       id="path3195" />
  </g>
</svg>
