<?xml version="1.0"?>
<!DOCTYPE svg PUBLIC "-//W3C//DTD SVG 1.1//EN" "http://www.w3.org/Graphics/SVG/1.1/DTD/svg11.dtd">
<svg width="63.239999999999995mm" height="11.239999999999998mm" viewBox="0 0 63.239999999999995 11.239999999999998" xmlns="http://www.w3.org/2000/svg" version="1.1">
<g id="Body002" transform="translate(6.620000,10.620000) scale(1,-1)">
<path id="Body002_f0000"  d="M -6.0 0.0 L -6.0 0.0 L -6.0 10.0 L -6.0 10.0 L -6.0 0.0 Z " stroke="#191919" stroke-width="0.7 px" style="stroke-width:0.7;stroke-miterlimit:4;stroke-dasharray:none;stroke-linecap:square;fill:#acb5bc;fill-opacity:1.0;fill-rule: evenodd"/>
<path id="Body002_f0001"  d="M -6.0 10.0 L -6.0 10.0 L -3.0 10.0 L -3.0 10.0 L -6.0 10.0 Z " stroke="#191919" stroke-width="0.7 px" style="stroke-width:0.7;stroke-miterlimit:4;stroke-dasharray:none;stroke-linecap:square;fill:#acb5bc;fill-opacity:1.0;fill-rule: evenodd"/>
<path id="Body002_f0002"  d="M -3.0 10.0 L -3.0 10.0 L -3.0 5.0 L -3.0 5.0 L -3.0 10.0 Z " stroke="#191919" stroke-width="0.7 px" style="stroke-width:0.7;stroke-miterlimit:4;stroke-dasharray:none;stroke-linecap:square;fill:#acb5bc;fill-opacity:1.0;fill-rule: evenodd"/>
<path id="Body002_f0003"  d="M -3.0 5.0 L -3.0 5.0 L 0.0 5.0 L 0.0 5.0 L -3.0 5.0 Z " stroke="#191919" stroke-width="0.7 px" style="stroke-width:0.7;stroke-miterlimit:4;stroke-dasharray:none;stroke-linecap:square;fill:#acb5bc;fill-opacity:1.0;fill-rule: evenodd"/>
<path id="Body002_f0004"  d="M 0.0 5.0 L 0.0 5.0 L 0.0 10.0 L 0.0 10.0 L 0.0 5.0 Z " stroke="#191919" stroke-width="0.7 px" style="stroke-width:0.7;stroke-miterlimit:4;stroke-dasharray:none;stroke-linecap:square;fill:#acb5bc;fill-opacity:1.0;fill-rule: evenodd"/>
<path id="Body002_f0005"  d="M 0.0 10.0 L 0.0 10.0 L 50.0 10.0 L 50.0 10.0 L 0.0 10.0 Z " stroke="#191919" stroke-width="0.7 px" style="stroke-width:0.7;stroke-miterlimit:4;stroke-dasharray:none;stroke-linecap:square;fill:#acb5bc;fill-opacity:1.0;fill-rule: evenodd"/>
<path id="Body002_f0006"  d="M 50.0 10.0 L 50.0 10.0 L 50.0 5.0 L 50.0 5.0 L 50.0 10.0 Z " stroke="#191919" stroke-width="0.7 px" style="stroke-width:0.7;stroke-miterlimit:4;stroke-dasharray:none;stroke-linecap:square;fill:#acb5bc;fill-opacity:1.0;fill-rule: evenodd"/>
<path id="Body002_f0007"  d="M 50.0 5.0 L 50.0 5.0 L 53.0 5.0 L 53.0 5.0 L 50.0 5.0 Z " stroke="#191919" stroke-width="0.7 px" style="stroke-width:0.7;stroke-miterlimit:4;stroke-dasharray:none;stroke-linecap:square;fill:#acb5bc;fill-opacity:1.0;fill-rule: evenodd"/>
<path id="Body002_f0008"  d="M 53.0 5.0 L 53.0 5.0 L 53.0 10.0 L 53.0 10.0 L 53.0 5.0 Z " stroke="#191919" stroke-width="0.7 px" style="stroke-width:0.7;stroke-miterlimit:4;stroke-dasharray:none;stroke-linecap:square;fill:#acb5bc;fill-opacity:1.0;fill-rule: evenodd"/>
<path id="Body002_f0009"  d="M 53.0 10.0 L 53.0 10.0 L 56.0 10.0 L 56.0 10.0 L 53.0 10.0 Z " stroke="#191919" stroke-width="0.7 px" style="stroke-width:0.7;stroke-miterlimit:4;stroke-dasharray:none;stroke-linecap:square;fill:#acb5bc;fill-opacity:1.0;fill-rule: evenodd"/>
<path id="Body002_f0010"  d="M 56.0 10.0 L 56.0 10.0 L 56.0 0.0 L 56.0 0.0 L 56.0 10.0 Z " stroke="#191919" stroke-width="0.7 px" style="stroke-width:0.7;stroke-miterlimit:4;stroke-dasharray:none;stroke-linecap:square;fill:#acb5bc;fill-opacity:1.0;fill-rule: evenodd"/>
<path id="Body002_f0011"  d="M 56.0 0.0 L 56.0 0.0 L -6.0 0.0 L -6.0 0.0 L 56.0 0.0 Z " stroke="#191919" stroke-width="0.7 px" style="stroke-width:0.7;stroke-miterlimit:4;stroke-dasharray:none;stroke-linecap:square;fill:#acb5bc;fill-opacity:1.0;fill-rule: evenodd"/>
<path id="Body002_f0012"  d="M -6.0 0.0 L -6.0 10.0 L -3.0 10.0 L -3.0 5.0 L 0.0 5.0 L 0.0 10.0 L 50.0 10.0 L 50.0 5.0 L 53.0 5.0 L 53.0 10.0 L 56.0 10.0 L 56.0 0.0 L -6.0 0.0 Z " stroke="#191919" stroke-width="0.7 px" style="stroke-width:0.7;stroke-miterlimit:4;stroke-dasharray:none;stroke-linecap:square;fill:#acb5bc;fill-opacity:1.0;fill-rule: evenodd"/>
<path id="Body002_f0013"  d="M -6.0 10.0 L -3.0 10.0 L -3.0 5.0 L 0.0 5.0 L 0.0 10.0 L 50.0 10.0 L 50.0 5.0 L 53.0 5.0 L 53.0 10.0 L 56.0 10.0 L 56.0 0.0 L -6.0 0.0 L -6.0 10.0 Z " stroke="#191919" stroke-width="0.7 px" style="stroke-width:0.7;stroke-miterlimit:4;stroke-dasharray:none;stroke-linecap:square;fill:#acb5bc;fill-opacity:1.0;fill-rule: evenodd"/>
<title>b'Body002'</title>
</g>
</svg>