<?xml version="1.0" encoding="UTF-8" standalone="no"?>
<svg
   xmlns:dc="http://purl.org/dc/elements/1.1/"
   xmlns:cc="http://creativecommons.org/ns#"
   xmlns:rdf="http://www.w3.org/1999/02/22-rdf-syntax-ns#"
   xmlns:svg="http://www.w3.org/2000/svg"
   xmlns="http://www.w3.org/2000/svg"
   version="1.1"
   id="svg3565"
   height="124.01575"
   width="124.01575">
  <defs
     id="defs3567" />
  <metadata
     id="metadata3570">
    <rdf:RDF>
      <cc:Work
         rdf:about="">
        <dc:format>image/svg+xml</dc:format>
        <dc:type
           rdf:resource="http://purl.org/dc/dcmitype/StillImage" />
        <dc:title></dc:title>
      </cc:Work>
    </rdf:RDF>
  </metadata>
  <g
     transform="translate(0,-928.34644)"
     id="layer1">
    <path
       id="path4869"
       transform="translate(0,928.34644)"
       d="M 62.007812 1.6503906 A 60.356613 60.356613 0 0 0 1.6503906 62.007812 A 60.356613 60.356613 0 0 0 62.007812 122.36523 A 60.356613 60.356613 0 0 0 122.36523 62.007812 A 60.356613 60.356613 0 0 0 62.007812 1.6503906 z M 62.492188 41.001953 A 15.152388 15.050008 0 0 1 77.644531 56.052734 A 15.152388 15.050008 0 0 1 62.492188 71.103516 A 15.152388 15.050008 0 0 1 47.339844 56.052734 A 15.152388 15.050008 0 0 1 62.492188 41.001953 z "
       style="color:#000000;display:inline;overflow:visible;visibility:visible;opacity:1;fill:#cccccc;fill-opacity:1;fill-rule:nonzero;stroke:none;stroke-width:4;stroke-linecap:round;stroke-linejoin:round;stroke-miterlimit:4;stroke-dasharray:none;stroke-dashoffset:0;stroke-opacity:1;marker:none;enable-background:accumulate" />
  </g>
</svg>
