<?xml version="1.0" encoding="UTF-8" standalone="no"?>
<svg
   xmlns:dc="http://purl.org/dc/elements/1.1/"
   xmlns:cc="http://creativecommons.org/ns#"
   xmlns:rdf="http://www.w3.org/1999/02/22-rdf-syntax-ns#"
   xmlns:svg="http://www.w3.org/2000/svg"
   xmlns="http://www.w3.org/2000/svg"
   version="1.1"
   id="svg3565"
   height="124.01575"
   width="124.01575">
  <defs
     id="defs3567" />
  <metadata
     id="metadata3570">
    <rdf:RDF>
      <cc:Work
         rdf:about="">
        <dc:format>image/svg+xml</dc:format>
        <dc:type
           rdf:resource="http://purl.org/dc/dcmitype/StillImage" />
        <dc:title></dc:title>
      </cc:Work>
    </rdf:RDF>
  </metadata>
  <g
     transform="translate(0,-928.34644)"
     id="layer1">
    <path
       id="path4886"
       transform="translate(0,928.34644)"
       d="M 61.619141 21.800781 A 2.0834396 2.0834396 0 0 0 59.535156 23.884766 A 2.0834396 2.0834396 0 0 0 60.066406 25.271484 C 59.034109 28.96912 57.0686 33.445028 50.701172 30.300781 A 2.0834396 2.0834396 0 0 0 50.759766 29.818359 A 2.0834396 2.0834396 0 0 0 48.675781 27.736328 A 2.0834396 2.0834396 0 0 0 46.59375 29.818359 A 2.0834396 2.0834396 0 0 0 48.644531 31.900391 L 51.896484 44.908203 L 71.972656 44.908203 L 74.984375 32.017578 A 2.0834396 2.0834396 0 0 0 76.519531 30.007812 A 2.0834396 2.0834396 0 0 0 74.435547 27.925781 A 2.0834396 2.0834396 0 0 0 72.351562 30.007812 A 2.0834396 2.0834396 0 0 0 72.517578 30.816406 C 69.466944 32.165322 66.350496 32.037156 62.951172 25.482422 A 2.0834396 2.0834396 0 0 0 63.703125 23.884766 A 2.0834396 2.0834396 0 0 0 61.619141 21.800781 z M 54.732422 72.75 C 51.515155 72.75 48.89806 75.071741 48.113281 79.806641 L 45.4375 95.957031 C 44.919532 99.082131 45.861972 102.04492 51.498047 102.04492 L 73.826172 102.04492 C 79.934588 102.04492 79.907155 98.293959 79.53125 95.818359 L 77.259766 80.861328 C 76.51207 75.937028 75.391625 72.75 69.177734 72.75 L 54.732422 72.75 z "
       style="color:#000000;display:inline;overflow:visible;visibility:visible;opacity:1;fill:#808080;fill-opacity:1;fill-rule:nonzero;stroke:none;stroke-width:4;stroke-linecap:round;stroke-linejoin:round;stroke-miterlimit:4;stroke-dasharray:none;stroke-dashoffset:0;stroke-opacity:1;marker:none;enable-background:accumulate" />
  </g>
</svg>
