solid OpenSCAD_Model
  facet normal 1 -0 0
    outer loop
      vertex 1 1 10
      vertex 1 9 0
      vertex 1 9 10
    endloop
  endfacet
  facet normal 1 0 0
    outer loop
      vertex 1 9 0
      vertex 1 1 10
      vertex 1 1 0
    endloop
  endfacet
  facet normal 0 0 -1
    outer loop
      vertex 1 1 10
      vertex 9 9 10
      vertex 9 1 10
    endloop
  endfacet
  facet normal -0 0 -1
    outer loop
      vertex 9 9 10
      vertex 1 1 10
      vertex 1 9 10
    endloop
  endfacet
  facet normal -1 0 0
    outer loop
      vertex 9 1 0
      vertex 9 9 10
      vertex 9 9 0
    endloop
  endfacet
  facet normal -1 -0 0
    outer loop
      vertex 9 9 10
      vertex 9 1 0
      vertex 9 1 10
    endloop
  endfacet
  facet normal 0 -1 0
    outer loop
      vertex 1 9 0
      vertex 9 9 10
      vertex 1 9 10
    endloop
  endfacet
  facet normal 0 -1 -0
    outer loop
      vertex 9 9 10
      vertex 1 9 0
      vertex 9 9 0
    endloop
  endfacet
  facet normal 0 1 -0
    outer loop
      vertex 9 1 0
      vertex 1 1 10
      vertex 9 1 10
    endloop
  endfacet
  facet normal 0 1 0
    outer loop
      vertex 1 1 10
      vertex 9 1 0
      vertex 1 1 0
    endloop
  endfacet
  facet normal 1 -0 0
    outer loop
      vertex 69 1 10
      vertex 69 9 0
      vertex 69 9 10
    endloop
  endfacet
  facet normal 1 0 0
    outer loop
      vertex 69 9 0
      vertex 69 1 10
      vertex 69 1 0
    endloop
  endfacet
  facet normal 0 0 -1
    outer loop
      vertex 69 1 10
      vertex 77 9 10
      vertex 77 1 10
    endloop
  endfacet
  facet normal -0 0 -1
    outer loop
      vertex 77 9 10
      vertex 69 1 10
      vertex 69 9 10
    endloop
  endfacet
  facet normal -1 0 0
    outer loop
      vertex 77 1 0
      vertex 77 9 10
      vertex 77 9 0
    endloop
  endfacet
  facet normal -1 -0 0
    outer loop
      vertex 77 9 10
      vertex 77 1 0
      vertex 77 1 10
    endloop
  endfacet
  facet normal 0 -1 0
    outer loop
      vertex 69 9 0
      vertex 77 9 10
      vertex 69 9 10
    endloop
  endfacet
  facet normal 0 -1 -0
    outer loop
      vertex 77 9 10
      vertex 69 9 0
      vertex 77 9 0
    endloop
  endfacet
  facet normal 0 1 -0
    outer loop
      vertex 77 1 0
      vertex 69 1 10
      vertex 77 1 10
    endloop
  endfacet
  facet normal 0 1 0
    outer loop
      vertex 69 1 10
      vertex 77 1 0
      vertex 69 1 0
    endloop
  endfacet
  facet normal 1 -0 0
    outer loop
      vertex 1 93 10
      vertex 1 101 0
      vertex 1 101 10
    endloop
  endfacet
  facet normal 1 0 0
    outer loop
      vertex 1 101 0
      vertex 1 93 10
      vertex 1 93 0
    endloop
  endfacet
  facet normal 0 0 -1
    outer loop
      vertex 1 93 10
      vertex 9 101 10
      vertex 9 93 10
    endloop
  endfacet
  facet normal -0 0 -1
    outer loop
      vertex 9 101 10
      vertex 1 93 10
      vertex 1 101 10
    endloop
  endfacet
  facet normal -1 0 0
    outer loop
      vertex 9 93 0
      vertex 9 101 10
      vertex 9 101 0
    endloop
  endfacet
  facet normal -1 -0 0
    outer loop
      vertex 9 101 10
      vertex 9 93 0
      vertex 9 93 10
    endloop
  endfacet
  facet normal 0 -1 0
    outer loop
      vertex 1 101 0
      vertex 9 101 10
      vertex 1 101 10
    endloop
  endfacet
  facet normal 0 -1 -0
    outer loop
      vertex 9 101 10
      vertex 1 101 0
      vertex 9 101 0
    endloop
  endfacet
  facet normal 0 1 -0
    outer loop
      vertex 9 93 0
      vertex 1 93 10
      vertex 9 93 10
    endloop
  endfacet
  facet normal 0 1 0
    outer loop
      vertex 1 93 10
      vertex 9 93 0
      vertex 1 93 0
    endloop
  endfacet
  facet normal 1 -0 0
    outer loop
      vertex 69 93 10
      vertex 69 101 0
      vertex 69 101 10
    endloop
  endfacet
  facet normal 1 0 0
    outer loop
      vertex 69 101 0
      vertex 69 93 10
      vertex 69 93 0
    endloop
  endfacet
  facet normal 0 0 -1
    outer loop
      vertex 69 93 10
      vertex 77 101 10
      vertex 77 93 10
    endloop
  endfacet
  facet normal -0 0 -1
    outer loop
      vertex 77 101 10
      vertex 69 93 10
      vertex 69 101 10
    endloop
  endfacet
  facet normal -1 0 0
    outer loop
      vertex 77 93 0
      vertex 77 101 10
      vertex 77 101 0
    endloop
  endfacet
  facet normal -1 -0 0
    outer loop
      vertex 77 101 10
      vertex 77 93 0
      vertex 77 93 10
    endloop
  endfacet
  facet normal 0 -1 0
    outer loop
      vertex 69 101 0
      vertex 77 101 10
      vertex 69 101 10
    endloop
  endfacet
  facet normal 0 -1 -0
    outer loop
      vertex 77 101 10
      vertex 69 101 0
      vertex 77 101 0
    endloop
  endfacet
  facet normal 0 1 -0
    outer loop
      vertex 77 93 0
      vertex 69 93 10
      vertex 77 93 10
    endloop
  endfacet
  facet normal 0 1 0
    outer loop
      vertex 69 93 10
      vertex 77 93 0
      vertex 69 93 0
    endloop
  endfacet
  facet normal 1 -0 0
    outer loop
      vertex 10 2 16
      vertex 10 10 3
      vertex 10 10 16
    endloop
  endfacet
  facet normal 1 0 0
    outer loop
      vertex 10 10 3
      vertex 10 2 16
      vertex 10 2 3
    endloop
  endfacet
  facet normal -1 0 0
    outer loop
      vertex 68 2 3
      vertex 68 10 16
      vertex 68 10 3
    endloop
  endfacet
  facet normal -1 -0 0
    outer loop
      vertex 68 10 16
      vertex 68 2 3
      vertex 68 2 16
    endloop
  endfacet
  facet normal -0 0 1
    outer loop
      vertex 10 10 3
      vertex 68 2 3
      vertex 68 10 3
    endloop
  endfacet
  facet normal 0 0 1
    outer loop
      vertex 68 2 3
      vertex 10 10 3
      vertex 10 2 3
    endloop
  endfacet
  facet normal 0 1 -0
    outer loop
      vertex 68 2 3
      vertex 10 2 16
      vertex 68 2 16
    endloop
  endfacet
  facet normal 0 1 0
    outer loop
      vertex 10 2 16
      vertex 68 2 3
      vertex 10 2 3
    endloop
  endfacet
  facet normal 0 -1 0
    outer loop
      vertex 10 10 3
      vertex 68 10 16
      vertex 10 10 16
    endloop
  endfacet
  facet normal 0 -1 -0
    outer loop
      vertex 68 10 16
      vertex 10 10 3
      vertex 68 10 3
    endloop
  endfacet
  facet normal 1 -0 0
    outer loop
      vertex 10 12 16
      vertex 10 20 3
      vertex 10 20 16
    endloop
  endfacet
  facet normal 1 0 0
    outer loop
      vertex 10 20 3
      vertex 10 12 16
      vertex 10 12 3
    endloop
  endfacet
  facet normal -1 0 0
    outer loop
      vertex 68 12 3
      vertex 68 20 16
      vertex 68 20 3
    endloop
  endfacet
  facet normal -1 -0 0
    outer loop
      vertex 68 20 16
      vertex 68 12 3
      vertex 68 12 16
    endloop
  endfacet
  facet normal -0 0 1
    outer loop
      vertex 10 20 3
      vertex 68 12 3
      vertex 68 20 3
    endloop
  endfacet
  facet normal 0 0 1
    outer loop
      vertex 68 12 3
      vertex 10 20 3
      vertex 10 12 3
    endloop
  endfacet
  facet normal 0 1 -0
    outer loop
      vertex 68 12 3
      vertex 10 12 16
      vertex 68 12 16
    endloop
  endfacet
  facet normal 0 1 0
    outer loop
      vertex 10 12 16
      vertex 68 12 3
      vertex 10 12 3
    endloop
  endfacet
  facet normal 0 -1 0
    outer loop
      vertex 10 20 3
      vertex 68 20 16
      vertex 10 20 16
    endloop
  endfacet
  facet normal 0 -1 -0
    outer loop
      vertex 68 20 16
      vertex 10 20 3
      vertex 68 20 3
    endloop
  endfacet
  facet normal 1 -0 0
    outer loop
      vertex 10 22 16
      vertex 10 30 3
      vertex 10 30 16
    endloop
  endfacet
  facet normal 1 0 0
    outer loop
      vertex 10 30 3
      vertex 10 22 16
      vertex 10 22 3
    endloop
  endfacet
  facet normal -1 0 0
    outer loop
      vertex 68 22 3
      vertex 68 30 16
      vertex 68 30 3
    endloop
  endfacet
  facet normal -1 -0 0
    outer loop
      vertex 68 30 16
      vertex 68 22 3
      vertex 68 22 16
    endloop
  endfacet
  facet normal -0 0 1
    outer loop
      vertex 10 30 3
      vertex 68 22 3
      vertex 68 30 3
    endloop
  endfacet
  facet normal 0 0 1
    outer loop
      vertex 68 22 3
      vertex 10 30 3
      vertex 10 22 3
    endloop
  endfacet
  facet normal 0 1 -0
    outer loop
      vertex 68 22 3
      vertex 10 22 16
      vertex 68 22 16
    endloop
  endfacet
  facet normal 0 1 0
    outer loop
      vertex 10 22 16
      vertex 68 22 3
      vertex 10 22 3
    endloop
  endfacet
  facet normal 0 -1 0
    outer loop
      vertex 10 30 3
      vertex 68 30 16
      vertex 10 30 16
    endloop
  endfacet
  facet normal 0 -1 -0
    outer loop
      vertex 68 30 16
      vertex 10 30 3
      vertex 68 30 3
    endloop
  endfacet
  facet normal 1 -0 0
    outer loop
      vertex 10 32 16
      vertex 10 40 3
      vertex 10 40 16
    endloop
  endfacet
  facet normal 1 0 0
    outer loop
      vertex 10 40 3
      vertex 10 32 16
      vertex 10 32 3
    endloop
  endfacet
  facet normal -1 0 0
    outer loop
      vertex 68 32 3
      vertex 68 40 16
      vertex 68 40 3
    endloop
  endfacet
  facet normal -1 -0 0
    outer loop
      vertex 68 40 16
      vertex 68 32 3
      vertex 68 32 16
    endloop
  endfacet
  facet normal 0 -1 0
    outer loop
      vertex 10 40 3
      vertex 68 40 16
      vertex 10 40 16
    endloop
  endfacet
  facet normal 0 -1 -0
    outer loop
      vertex 68 40 16
      vertex 10 40 3
      vertex 68 40 3
    endloop
  endfacet
  facet normal -0 0 1
    outer loop
      vertex 10 40 3
      vertex 68 32 3
      vertex 68 40 3
    endloop
  endfacet
  facet normal 0 0 1
    outer loop
      vertex 68 32 3
      vertex 10 40 3
      vertex 10 32 3
    endloop
  endfacet
  facet normal 0 1 -0
    outer loop
      vertex 68 32 3
      vertex 10 32 16
      vertex 68 32 16
    endloop
  endfacet
  facet normal 0 1 0
    outer loop
      vertex 10 32 16
      vertex 68 32 3
      vertex 10 32 3
    endloop
  endfacet
  facet normal 1 -0 0
    outer loop
      vertex 10 42 16
      vertex 10 50 3
      vertex 10 50 16
    endloop
  endfacet
  facet normal 1 0 0
    outer loop
      vertex 10 50 3
      vertex 10 42 16
      vertex 10 42 3
    endloop
  endfacet
  facet normal -1 0 0
    outer loop
      vertex 68 42 3
      vertex 68 50 16
      vertex 68 50 3
    endloop
  endfacet
  facet normal -1 -0 0
    outer loop
      vertex 68 50 16
      vertex 68 42 3
      vertex 68 42 16
    endloop
  endfacet
  facet normal 0 -1 0
    outer loop
      vertex 10 50 3
      vertex 68 50 16
      vertex 10 50 16
    endloop
  endfacet
  facet normal 0 -1 -0
    outer loop
      vertex 68 50 16
      vertex 10 50 3
      vertex 68 50 3
    endloop
  endfacet
  facet normal -0 0 1
    outer loop
      vertex 10 50 3
      vertex 68 42 3
      vertex 68 50 3
    endloop
  endfacet
  facet normal 0 0 1
    outer loop
      vertex 68 42 3
      vertex 10 50 3
      vertex 10 42 3
    endloop
  endfacet
  facet normal 0 1 -0
    outer loop
      vertex 68 42 3
      vertex 10 42 16
      vertex 68 42 16
    endloop
  endfacet
  facet normal 0 1 0
    outer loop
      vertex 10 42 16
      vertex 68 42 3
      vertex 10 42 3
    endloop
  endfacet
  facet normal 1 -0 0
    outer loop
      vertex 10 52 16
      vertex 10 60 3
      vertex 10 60 16
    endloop
  endfacet
  facet normal 1 0 0
    outer loop
      vertex 10 60 3
      vertex 10 52 16
      vertex 10 52 3
    endloop
  endfacet
  facet normal -1 0 0
    outer loop
      vertex 68 52 3
      vertex 68 60 16
      vertex 68 60 3
    endloop
  endfacet
  facet normal -1 -0 0
    outer loop
      vertex 68 60 16
      vertex 68 52 3
      vertex 68 52 16
    endloop
  endfacet
  facet normal -0 0 1
    outer loop
      vertex 10 60 3
      vertex 68 52 3
      vertex 68 60 3
    endloop
  endfacet
  facet normal 0 0 1
    outer loop
      vertex 68 52 3
      vertex 10 60 3
      vertex 10 52 3
    endloop
  endfacet
  facet normal 0 1 -0
    outer loop
      vertex 68 52 3
      vertex 10 52 16
      vertex 68 52 16
    endloop
  endfacet
  facet normal 0 1 0
    outer loop
      vertex 10 52 16
      vertex 68 52 3
      vertex 10 52 3
    endloop
  endfacet
  facet normal 0 -1 0
    outer loop
      vertex 10 60 3
      vertex 68 60 16
      vertex 10 60 16
    endloop
  endfacet
  facet normal 0 -1 -0
    outer loop
      vertex 68 60 16
      vertex 10 60 3
      vertex 68 60 3
    endloop
  endfacet
  facet normal 1 -0 0
    outer loop
      vertex 10 62 16
      vertex 10 70 3
      vertex 10 70 16
    endloop
  endfacet
  facet normal 1 0 0
    outer loop
      vertex 10 70 3
      vertex 10 62 16
      vertex 10 62 3
    endloop
  endfacet
  facet normal -1 0 0
    outer loop
      vertex 68 62 3
      vertex 68 70 16
      vertex 68 70 3
    endloop
  endfacet
  facet normal -1 -0 0
    outer loop
      vertex 68 70 16
      vertex 68 62 3
      vertex 68 62 16
    endloop
  endfacet
  facet normal -0 0 1
    outer loop
      vertex 10 70 3
      vertex 68 62 3
      vertex 68 70 3
    endloop
  endfacet
  facet normal 0 0 1
    outer loop
      vertex 68 62 3
      vertex 10 70 3
      vertex 10 62 3
    endloop
  endfacet
  facet normal 0 1 -0
    outer loop
      vertex 68 62 3
      vertex 10 62 16
      vertex 68 62 16
    endloop
  endfacet
  facet normal 0 1 0
    outer loop
      vertex 10 62 16
      vertex 68 62 3
      vertex 10 62 3
    endloop
  endfacet
  facet normal 0 -1 0
    outer loop
      vertex 10 70 3
      vertex 68 70 16
      vertex 10 70 16
    endloop
  endfacet
  facet normal 0 -1 -0
    outer loop
      vertex 68 70 16
      vertex 10 70 3
      vertex 68 70 3
    endloop
  endfacet
  facet normal 1 -0 0
    outer loop
      vertex 10 72 16
      vertex 10 80 3
      vertex 10 80 16
    endloop
  endfacet
  facet normal 1 0 0
    outer loop
      vertex 10 80 3
      vertex 10 72 16
      vertex 10 72 3
    endloop
  endfacet
  facet normal -1 0 0
    outer loop
      vertex 68 72 3
      vertex 68 80 16
      vertex 68 80 3
    endloop
  endfacet
  facet normal -1 -0 0
    outer loop
      vertex 68 80 16
      vertex 68 72 3
      vertex 68 72 16
    endloop
  endfacet
  facet normal 0 -1 0
    outer loop
      vertex 10 80 3
      vertex 68 80 16
      vertex 10 80 16
    endloop
  endfacet
  facet normal 0 -1 -0
    outer loop
      vertex 68 80 16
      vertex 10 80 3
      vertex 68 80 3
    endloop
  endfacet
  facet normal -0 0 1
    outer loop
      vertex 10 80 3
      vertex 68 72 3
      vertex 68 80 3
    endloop
  endfacet
  facet normal 0 0 1
    outer loop
      vertex 68 72 3
      vertex 10 80 3
      vertex 10 72 3
    endloop
  endfacet
  facet normal 0 1 -0
    outer loop
      vertex 68 72 3
      vertex 10 72 16
      vertex 68 72 16
    endloop
  endfacet
  facet normal 0 1 0
    outer loop
      vertex 10 72 16
      vertex 68 72 3
      vertex 10 72 3
    endloop
  endfacet
  facet normal 1 -0 0
    outer loop
      vertex 10 82 16
      vertex 10 90 3
      vertex 10 90 16
    endloop
  endfacet
  facet normal 1 0 0
    outer loop
      vertex 10 90 3
      vertex 10 82 16
      vertex 10 82 3
    endloop
  endfacet
  facet normal -1 0 0
    outer loop
      vertex 68 82 3
      vertex 68 90 16
      vertex 68 90 3
    endloop
  endfacet
  facet normal -1 -0 0
    outer loop
      vertex 68 90 16
      vertex 68 82 3
      vertex 68 82 16
    endloop
  endfacet
  facet normal -0 0 1
    outer loop
      vertex 10 90 3
      vertex 68 82 3
      vertex 68 90 3
    endloop
  endfacet
  facet normal 0 0 1
    outer loop
      vertex 68 82 3
      vertex 10 90 3
      vertex 10 82 3
    endloop
  endfacet
  facet normal 0 1 -0
    outer loop
      vertex 68 82 3
      vertex 10 82 16
      vertex 68 82 16
    endloop
  endfacet
  facet normal 0 1 0
    outer loop
      vertex 10 82 16
      vertex 68 82 3
      vertex 10 82 3
    endloop
  endfacet
  facet normal 0 -1 0
    outer loop
      vertex 10 90 3
      vertex 68 90 16
      vertex 10 90 16
    endloop
  endfacet
  facet normal 0 -1 -0
    outer loop
      vertex 68 90 16
      vertex 10 90 3
      vertex 68 90 3
    endloop
  endfacet
  facet normal 1 -0 0
    outer loop
      vertex 10 92 16
      vertex 10 100 3
      vertex 10 100 16
    endloop
  endfacet
  facet normal 1 0 0
    outer loop
      vertex 10 100 3
      vertex 10 92 16
      vertex 10 92 3
    endloop
  endfacet
  facet normal -1 0 0
    outer loop
      vertex 68 92 3
      vertex 68 100 16
      vertex 68 100 3
    endloop
  endfacet
  facet normal -1 -0 0
    outer loop
      vertex 68 100 16
      vertex 68 92 3
      vertex 68 92 16
    endloop
  endfacet
  facet normal -0 0 1
    outer loop
      vertex 10 100 3
      vertex 68 92 3
      vertex 68 100 3
    endloop
  endfacet
  facet normal 0 0 1
    outer loop
      vertex 68 92 3
      vertex 10 100 3
      vertex 10 92 3
    endloop
  endfacet
  facet normal 0 1 -0
    outer loop
      vertex 68 92 3
      vertex 10 92 16
      vertex 68 92 16
    endloop
  endfacet
  facet normal 0 1 0
    outer loop
      vertex 10 92 16
      vertex 68 92 3
      vertex 10 92 3
    endloop
  endfacet
  facet normal 0 -1 0
    outer loop
      vertex 10 100 3
      vertex 68 100 16
      vertex 10 100 16
    endloop
  endfacet
  facet normal 0 -1 -0
    outer loop
      vertex 68 100 16
      vertex 10 100 3
      vertex 68 100 3
    endloop
  endfacet
  facet normal -1 0 0
    outer loop
      vertex 1.5 1.5 16
      vertex 1.5 8.5 88
      vertex 1.5 8.5 16
    endloop
  endfacet
  facet normal -1 -0 0
    outer loop
      vertex 1.5 8.5 88
      vertex 1.5 1.5 16
      vertex 1.5 1.5 88
    endloop
  endfacet
  facet normal -0 0 1
    outer loop
      vertex 1.5 8.5 88
      vertex 8.5 1.5 88
      vertex 8.5 8.5 88
    endloop
  endfacet
  facet normal 0 0 1
    outer loop
      vertex 8.5 1.5 88
      vertex 1.5 8.5 88
      vertex 1.5 1.5 88
    endloop
  endfacet
  facet normal 1 -0 0
    outer loop
      vertex 8.5 1.5 88
      vertex 8.5 8.5 16
      vertex 8.5 8.5 88
    endloop
  endfacet
  facet normal 1 0 0
    outer loop
      vertex 8.5 8.5 16
      vertex 8.5 1.5 88
      vertex 8.5 1.5 16
    endloop
  endfacet
  facet normal 0 1 -0
    outer loop
      vertex 8.5 8.5 16
      vertex 1.5 8.5 88
      vertex 8.5 8.5 88
    endloop
  endfacet
  facet normal 0 1 0
    outer loop
      vertex 1.5 8.5 88
      vertex 8.5 8.5 16
      vertex 1.5 8.5 16
    endloop
  endfacet
  facet normal 0 0 1
    outer loop
      vertex 10 40 16
      vertex 1.5 8.5 16
      vertex 10 32 16
    endloop
  endfacet
  facet normal 0 0 1
    outer loop
      vertex 10 32 16
      vertex 1.5 8.5 16
      vertex 8.5 8.5 16
    endloop
  endfacet
  facet normal -0 0 1
    outer loop
      vertex 10 12 16
      vertex 68 10 16
      vertex 68 12 16
    endloop
  endfacet
  facet normal 0 0 1
    outer loop
      vertex 68 10 16
      vertex 10 12 16
      vertex 10 10 16
    endloop
  endfacet
  facet normal -0 0 1
    outer loop
      vertex 10 22 16
      vertex 68 20 16
      vertex 68 22 16
    endloop
  endfacet
  facet normal 0 0 1
    outer loop
      vertex 68 20 16
      vertex 10 22 16
      vertex 10 20 16
    endloop
  endfacet
  facet normal -0 0 1
    outer loop
      vertex 10 32 16
      vertex 68 30 16
      vertex 68 32 16
    endloop
  endfacet
  facet normal 0 0 1
    outer loop
      vertex 68 30 16
      vertex 10 32 16
      vertex 10 30 16
    endloop
  endfacet
  facet normal -0 0 1
    outer loop
      vertex 10 42 16
      vertex 68 40 16
      vertex 68 42 16
    endloop
  endfacet
  facet normal 0 0 1
    outer loop
      vertex 68 40 16
      vertex 10 42 16
      vertex 10 40 16
    endloop
  endfacet
  facet normal -0 0 1
    outer loop
      vertex 10 52 16
      vertex 68 50 16
      vertex 68 52 16
    endloop
  endfacet
  facet normal 0 0 1
    outer loop
      vertex 68 50 16
      vertex 10 52 16
      vertex 10 50 16
    endloop
  endfacet
  facet normal -0 0 1
    outer loop
      vertex 10 62 16
      vertex 68 60 16
      vertex 68 62 16
    endloop
  endfacet
  facet normal 0 0 1
    outer loop
      vertex 68 60 16
      vertex 10 62 16
      vertex 10 60 16
    endloop
  endfacet
  facet normal -0 0 1
    outer loop
      vertex 10 72 16
      vertex 68 70 16
      vertex 68 72 16
    endloop
  endfacet
  facet normal 0 0 1
    outer loop
      vertex 68 70 16
      vertex 10 72 16
      vertex 10 70 16
    endloop
  endfacet
  facet normal -0 0 1
    outer loop
      vertex 10 82 16
      vertex 68 80 16
      vertex 68 82 16
    endloop
  endfacet
  facet normal 0 0 1
    outer loop
      vertex 68 80 16
      vertex 10 82 16
      vertex 10 80 16
    endloop
  endfacet
  facet normal -0 0 1
    outer loop
      vertex 10 92 16
      vertex 68 90 16
      vertex 68 92 16
    endloop
  endfacet
  facet normal 0 0 1
    outer loop
      vertex 68 90 16
      vertex 10 92 16
      vertex 10 90 16
    endloop
  endfacet
  facet normal 0 0 1
    outer loop
      vertex 68 90 16
      vertex 76.5 93.5 16
      vertex 69.5 93.5 16
    endloop
  endfacet
  facet normal 0 0 1
    outer loop
      vertex 68 62 16
      vertex 76.5 93.5 16
      vertex 68 70 16
    endloop
  endfacet
  facet normal 0 0 1
    outer loop
      vertex 76.5 93.5 16
      vertex 78 102 16
      vertex 76.5 100.5 16
    endloop
  endfacet
  facet normal 0 0 1
    outer loop
      vertex 78 102 16
      vertex 69.5 100.5 16
      vertex 76.5 100.5 16
    endloop
  endfacet
  facet normal -0 0 1
    outer loop
      vertex 68 100 16
      vertex 69.5 93.5 16
      vertex 69.5 100.5 16
    endloop
  endfacet
  facet normal 0 0 1
    outer loop
      vertex 76.5 93.5 16
      vertex 68 52 16
      vertex 76.5 8.5 16
    endloop
  endfacet
  facet normal 0 0 1
    outer loop
      vertex 69.5 93.5 16
      vertex 68 100 16
      vertex 68 92 16
    endloop
  endfacet
  facet normal 0 0 1
    outer loop
      vertex 69.5 100.5 16
      vertex 10 100 16
      vertex 68 100 16
    endloop
  endfacet
  facet normal 0 0 1
    outer loop
      vertex 8.5 100.5 16
      vertex 69.5 100.5 16
      vertex 78 102 16
    endloop
  endfacet
  facet normal -0 0 1
    outer loop
      vertex 8.5 93.5 16
      vertex 10 92 16
      vertex 10 100 16
    endloop
  endfacet
  facet normal 0 0 1
    outer loop
      vertex 10 92 16
      vertex 8.5 93.5 16
      vertex 10 90 16
    endloop
  endfacet
  facet normal -0 0 1
    outer loop
      vertex 1.5 93.5 16
      vertex 10 90 16
      vertex 8.5 93.5 16
    endloop
  endfacet
  facet normal 0 0 1
    outer loop
      vertex 10 90 16
      vertex 1.5 93.5 16
      vertex 10 82 16
    endloop
  endfacet
  facet normal 0 0 1
    outer loop
      vertex 10 82 16
      vertex 1.5 93.5 16
      vertex 10 80 16
    endloop
  endfacet
  facet normal 0 0 1
    outer loop
      vertex 10 80 16
      vertex 1.5 93.5 16
      vertex 10 72 16
    endloop
  endfacet
  facet normal 0 0 1
    outer loop
      vertex 10 72 16
      vertex 1.5 93.5 16
      vertex 10 70 16
    endloop
  endfacet
  facet normal 0 0 1
    outer loop
      vertex 10 70 16
      vertex 1.5 93.5 16
      vertex 10 62 16
    endloop
  endfacet
  facet normal 0 0 1
    outer loop
      vertex 10 62 16
      vertex 1.5 93.5 16
      vertex 10 60 16
    endloop
  endfacet
  facet normal 0 0 1
    outer loop
      vertex 10 60 16
      vertex 1.5 93.5 16
      vertex 10 52 16
    endloop
  endfacet
  facet normal 0 0 1
    outer loop
      vertex 10 52 16
      vertex 1.5 93.5 16
      vertex 10 50 16
    endloop
  endfacet
  facet normal 0 0 1
    outer loop
      vertex 1.5 8.5 16
      vertex 10 50 16
      vertex 1.5 93.5 16
    endloop
  endfacet
  facet normal 0 0 1
    outer loop
      vertex 10 50 16
      vertex 1.5 8.5 16
      vertex 10 42 16
    endloop
  endfacet
  facet normal 0 0 1
    outer loop
      vertex 10 42 16
      vertex 1.5 8.5 16
      vertex 10 40 16
    endloop
  endfacet
  facet normal 0 0 1
    outer loop
      vertex 10 32 16
      vertex 8.5 8.5 16
      vertex 10 30 16
    endloop
  endfacet
  facet normal 0 0 1
    outer loop
      vertex 10 30 16
      vertex 8.5 8.5 16
      vertex 10 22 16
    endloop
  endfacet
  facet normal 0 0 1
    outer loop
      vertex 10 22 16
      vertex 8.5 8.5 16
      vertex 10 20 16
    endloop
  endfacet
  facet normal 0 0 1
    outer loop
      vertex 10 20 16
      vertex 8.5 8.5 16
      vertex 10 12 16
    endloop
  endfacet
  facet normal 0 0 1
    outer loop
      vertex 8.5 93.5 16
      vertex 10 100 16
      vertex 8.5 100.5 16
    endloop
  endfacet
  facet normal 0 0 1
    outer loop
      vertex 69.5 100.5 16
      vertex 8.5 100.5 16
      vertex 10 100 16
    endloop
  endfacet
  facet normal -0 0 1
    outer loop
      vertex 0 102 16
      vertex 8.5 100.5 16
      vertex 78 102 16
    endloop
  endfacet
  facet normal 0 0 1
    outer loop
      vertex 0 102 16
      vertex 1.5 93.5 16
      vertex 1.5 100.5 16
    endloop
  endfacet
  facet normal 0 0 1
    outer loop
      vertex 1.5 93.5 16
      vertex 0 102 16
      vertex 1.5 8.5 16
    endloop
  endfacet
  facet normal 0 0 1
    outer loop
      vertex 0 0 16
      vertex 1.5 8.5 16
      vertex 0 102 16
    endloop
  endfacet
  facet normal 0 0 1
    outer loop
      vertex 8.5 100.5 16
      vertex 0 102 16
      vertex 1.5 100.5 16
    endloop
  endfacet
  facet normal 0 0 1
    outer loop
      vertex 78 102 16
      vertex 76.5 93.5 16
      vertex 78 0 16
    endloop
  endfacet
  facet normal -0 0 1
    outer loop
      vertex 76.5 8.5 16
      vertex 78 0 16
      vertex 76.5 93.5 16
    endloop
  endfacet
  facet normal -0 0 1
    outer loop
      vertex 76.5 1.5 16
      vertex 78 0 16
      vertex 76.5 8.5 16
    endloop
  endfacet
  facet normal -0 0 1
    outer loop
      vertex 69.5 1.5 16
      vertex 78 0 16
      vertex 76.5 1.5 16
    endloop
  endfacet
  facet normal 0 0 1
    outer loop
      vertex 69.5 93.5 16
      vertex 68 92 16
      vertex 68 90 16
    endloop
  endfacet
  facet normal 0 0 1
    outer loop
      vertex 76.5 93.5 16
      vertex 68 90 16
      vertex 68 82 16
    endloop
  endfacet
  facet normal 0 0 1
    outer loop
      vertex 76.5 93.5 16
      vertex 68 82 16
      vertex 68 80 16
    endloop
  endfacet
  facet normal 0 0 1
    outer loop
      vertex 76.5 93.5 16
      vertex 68 80 16
      vertex 68 72 16
    endloop
  endfacet
  facet normal 0 0 1
    outer loop
      vertex 76.5 93.5 16
      vertex 68 72 16
      vertex 68 70 16
    endloop
  endfacet
  facet normal 0 0 1
    outer loop
      vertex 68 60 16
      vertex 76.5 93.5 16
      vertex 68 62 16
    endloop
  endfacet
  facet normal 0 0 1
    outer loop
      vertex 68 52 16
      vertex 76.5 93.5 16
      vertex 68 60 16
    endloop
  endfacet
  facet normal -0 0 1
    outer loop
      vertex 68 50 16
      vertex 76.5 8.5 16
      vertex 68 52 16
    endloop
  endfacet
  facet normal -0 0 1
    outer loop
      vertex 68 42 16
      vertex 76.5 8.5 16
      vertex 68 50 16
    endloop
  endfacet
  facet normal -0 0 1
    outer loop
      vertex 68 40 16
      vertex 76.5 8.5 16
      vertex 68 42 16
    endloop
  endfacet
  facet normal -0 0 1
    outer loop
      vertex 68 32 16
      vertex 76.5 8.5 16
      vertex 68 40 16
    endloop
  endfacet
  facet normal -0 0 1
    outer loop
      vertex 68 30 16
      vertex 76.5 8.5 16
      vertex 68 32 16
    endloop
  endfacet
  facet normal -0 0 1
    outer loop
      vertex 68 22 16
      vertex 76.5 8.5 16
      vertex 68 30 16
    endloop
  endfacet
  facet normal -0 0 1
    outer loop
      vertex 68 20 16
      vertex 76.5 8.5 16
      vertex 68 22 16
    endloop
  endfacet
  facet normal -0 0 1
    outer loop
      vertex 68 12 16
      vertex 76.5 8.5 16
      vertex 68 20 16
    endloop
  endfacet
  facet normal 0 0 1
    outer loop
      vertex 76.5 8.5 16
      vertex 68 12 16
      vertex 69.5 8.5 16
    endloop
  endfacet
  facet normal -0 0 1
    outer loop
      vertex 68 10 16
      vertex 69.5 8.5 16
      vertex 68 12 16
    endloop
  endfacet
  facet normal 0 0 1
    outer loop
      vertex 68 2 16
      vertex 69.5 8.5 16
      vertex 68 10 16
    endloop
  endfacet
  facet normal 0 0 1
    outer loop
      vertex 69.5 8.5 16
      vertex 68 2 16
      vertex 69.5 1.5 16
    endloop
  endfacet
  facet normal -0 0 1
    outer loop
      vertex 10 2 16
      vertex 69.5 1.5 16
      vertex 68 2 16
    endloop
  endfacet
  facet normal 0 0 1
    outer loop
      vertex 8.5 1.5 16
      vertex 69.5 1.5 16
      vertex 10 2 16
    endloop
  endfacet
  facet normal 0 0 1
    outer loop
      vertex 10 12 16
      vertex 8.5 8.5 16
      vertex 10 10 16
    endloop
  endfacet
  facet normal 0 0 1
    outer loop
      vertex 10 10 16
      vertex 8.5 8.5 16
      vertex 10 2 16
    endloop
  endfacet
  facet normal 0 0 1
    outer loop
      vertex 8.5 1.5 16
      vertex 10 2 16
      vertex 8.5 8.5 16
    endloop
  endfacet
  facet normal 0 0 1
    outer loop
      vertex 69.5 1.5 16
      vertex 8.5 1.5 16
      vertex 78 0 16
    endloop
  endfacet
  facet normal 0 0 1
    outer loop
      vertex 0 0 16
      vertex 8.5 1.5 16
      vertex 1.5 1.5 16
    endloop
  endfacet
  facet normal 0 0 1
    outer loop
      vertex 8.5 1.5 16
      vertex 0 0 16
      vertex 78 0 16
    endloop
  endfacet
  facet normal 0 0 1
    outer loop
      vertex 1.5 8.5 16
      vertex 0 0 16
      vertex 1.5 1.5 16
    endloop
  endfacet
  facet normal 0 -1 0
    outer loop
      vertex 1.5 1.5 16
      vertex 8.5 1.5 88
      vertex 1.5 1.5 88
    endloop
  endfacet
  facet normal 0 -1 -0
    outer loop
      vertex 8.5 1.5 88
      vertex 1.5 1.5 16
      vertex 8.5 1.5 16
    endloop
  endfacet
  facet normal -1 0 0
    outer loop
      vertex 69.5 1.5 16
      vertex 69.5 8.5 88
      vertex 69.5 8.5 16
    endloop
  endfacet
  facet normal -1 -0 0
    outer loop
      vertex 69.5 8.5 88
      vertex 69.5 1.5 16
      vertex 69.5 1.5 88
    endloop
  endfacet
  facet normal -0 0 1
    outer loop
      vertex 69.5 8.5 88
      vertex 76.5 1.5 88
      vertex 76.5 8.5 88
    endloop
  endfacet
  facet normal 0 0 1
    outer loop
      vertex 76.5 1.5 88
      vertex 69.5 8.5 88
      vertex 69.5 1.5 88
    endloop
  endfacet
  facet normal 1 -0 0
    outer loop
      vertex 76.5 1.5 88
      vertex 76.5 8.5 16
      vertex 76.5 8.5 88
    endloop
  endfacet
  facet normal 1 0 0
    outer loop
      vertex 76.5 8.5 16
      vertex 76.5 1.5 88
      vertex 76.5 1.5 16
    endloop
  endfacet
  facet normal 0 -1 0
    outer loop
      vertex 69.5 1.5 16
      vertex 76.5 1.5 88
      vertex 69.5 1.5 88
    endloop
  endfacet
  facet normal 0 -1 -0
    outer loop
      vertex 76.5 1.5 88
      vertex 69.5 1.5 16
      vertex 76.5 1.5 16
    endloop
  endfacet
  facet normal 0 1 -0
    outer loop
      vertex 76.5 8.5 16
      vertex 69.5 8.5 88
      vertex 76.5 8.5 88
    endloop
  endfacet
  facet normal 0 1 0
    outer loop
      vertex 69.5 8.5 88
      vertex 76.5 8.5 16
      vertex 69.5 8.5 16
    endloop
  endfacet
  facet normal -1 0 0
    outer loop
      vertex 1.5 93.5 16
      vertex 1.5 100.5 87
      vertex 1.5 100.5 16
    endloop
  endfacet
  facet normal -1 -0 0
    outer loop
      vertex 1.5 100.5 87
      vertex 1.5 93.5 16
      vertex 1.5 93.5 87
    endloop
  endfacet
  facet normal -0 0 1
    outer loop
      vertex 1.5 100.5 87
      vertex 8.5 93.5 87
      vertex 8.5 100.5 87
    endloop
  endfacet
  facet normal 0 0 1
    outer loop
      vertex 8.5 93.5 87
      vertex 1.5 100.5 87
      vertex 1.5 93.5 87
    endloop
  endfacet
  facet normal 1 -0 0
    outer loop
      vertex 8.5 93.5 87
      vertex 8.5 100.5 16
      vertex 8.5 100.5 87
    endloop
  endfacet
  facet normal 1 0 0
    outer loop
      vertex 8.5 100.5 16
      vertex 8.5 93.5 87
      vertex 8.5 93.5 16
    endloop
  endfacet
  facet normal 0 -1 0
    outer loop
      vertex 1.5 93.5 16
      vertex 8.5 93.5 87
      vertex 1.5 93.5 87
    endloop
  endfacet
  facet normal 0 -1 -0
    outer loop
      vertex 8.5 93.5 87
      vertex 1.5 93.5 16
      vertex 8.5 93.5 16
    endloop
  endfacet
  facet normal 0 1 -0
    outer loop
      vertex 8.5 100.5 16
      vertex 1.5 100.5 87
      vertex 8.5 100.5 87
    endloop
  endfacet
  facet normal 0 1 0
    outer loop
      vertex 1.5 100.5 87
      vertex 8.5 100.5 16
      vertex 1.5 100.5 16
    endloop
  endfacet
  facet normal -1 0 0
    outer loop
      vertex 69.5 93.5 16
      vertex 69.5 100.5 88
      vertex 69.5 100.5 16
    endloop
  endfacet
  facet normal -1 -0 0
    outer loop
      vertex 69.5 100.5 88
      vertex 69.5 93.5 16
      vertex 69.5 93.5 88
    endloop
  endfacet
  facet normal -0 0 1
    outer loop
      vertex 69.5 100.5 88
      vertex 76.5 93.5 88
      vertex 76.5 100.5 88
    endloop
  endfacet
  facet normal 0 0 1
    outer loop
      vertex 76.5 93.5 88
      vertex 69.5 100.5 88
      vertex 69.5 93.5 88
    endloop
  endfacet
  facet normal 1 -0 0
    outer loop
      vertex 76.5 93.5 88
      vertex 76.5 100.5 16
      vertex 76.5 100.5 88
    endloop
  endfacet
  facet normal 1 0 0
    outer loop
      vertex 76.5 100.5 16
      vertex 76.5 93.5 88
      vertex 76.5 93.5 16
    endloop
  endfacet
  facet normal 0 1 -0
    outer loop
      vertex 76.5 100.5 16
      vertex 69.5 100.5 88
      vertex 76.5 100.5 88
    endloop
  endfacet
  facet normal 0 1 0
    outer loop
      vertex 69.5 100.5 88
      vertex 76.5 100.5 16
      vertex 69.5 100.5 16
    endloop
  endfacet
  facet normal 0 -1 0
    outer loop
      vertex 69.5 93.5 16
      vertex 76.5 93.5 88
      vertex 69.5 93.5 88
    endloop
  endfacet
  facet normal 0 -1 -0
    outer loop
      vertex 76.5 93.5 88
      vertex 69.5 93.5 16
      vertex 76.5 93.5 16
    endloop
  endfacet
  facet normal -1 0 0
    outer loop
      vertex 0 0 0
      vertex 0 102 16
      vertex 0 102 0
    endloop
  endfacet
  facet normal -1 -0 0
    outer loop
      vertex 0 102 16
      vertex 0 0 0
      vertex 0 0 16
    endloop
  endfacet
  facet normal 1 -0 0
    outer loop
      vertex 78 0 16
      vertex 78 102 0
      vertex 78 102 16
    endloop
  endfacet
  facet normal 1 0 0
    outer loop
      vertex 78 102 0
      vertex 78 0 16
      vertex 78 0 0
    endloop
  endfacet
  facet normal 0 1 -0
    outer loop
      vertex 78 102 0
      vertex 0 102 16
      vertex 78 102 16
    endloop
  endfacet
  facet normal 0 1 0
    outer loop
      vertex 0 102 16
      vertex 78 102 0
      vertex 0 102 0
    endloop
  endfacet
  facet normal 0 0 -1
    outer loop
      vertex 1 9 0
      vertex 9 93 0
      vertex 9 9 0
    endloop
  endfacet
  facet normal -0 0 -1
    outer loop
      vertex 9 93 0
      vertex 1 9 0
      vertex 1 93 0
    endloop
  endfacet
  facet normal 0 0 -1
    outer loop
      vertex 69 9 0
      vertex 77 93 0
      vertex 77 9 0
    endloop
  endfacet
  facet normal -0 0 -1
    outer loop
      vertex 77 93 0
      vertex 69 9 0
      vertex 69 93 0
    endloop
  endfacet
  facet normal 0 0 -1
    outer loop
      vertex 77 9 0
      vertex 78 0 0
      vertex 77 1 0
    endloop
  endfacet
  facet normal 0 0 -1
    outer loop
      vertex 78 0 0
      vertex 69 1 0
      vertex 77 1 0
    endloop
  endfacet
  facet normal 0 0 -1
    outer loop
      vertex 9 9 0
      vertex 69 9 0
      vertex 69 1 0
    endloop
  endfacet
  facet normal 0 0 -1
    outer loop
      vertex 69 9 0
      vertex 9 9 0
      vertex 69 93 0
    endloop
  endfacet
  facet normal 0 0 -1
    outer loop
      vertex 9 9 0
      vertex 69 1 0
      vertex 9 1 0
    endloop
  endfacet
  facet normal 0 0 -1
    outer loop
      vertex 78 0 0
      vertex 9 1 0
      vertex 69 1 0
    endloop
  endfacet
  facet normal 0 0 -1
    outer loop
      vertex 0 0 0
      vertex 9 1 0
      vertex 78 0 0
    endloop
  endfacet
  facet normal 0 0 -1
    outer loop
      vertex 0 0 0
      vertex 1 9 0
      vertex 1 1 0
    endloop
  endfacet
  facet normal -0 0 -1
    outer loop
      vertex 1 9 0
      vertex 0 0 0
      vertex 1 93 0
    endloop
  endfacet
  facet normal 0 0 -1
    outer loop
      vertex 0 102 0
      vertex 1 93 0
      vertex 0 0 0
    endloop
  endfacet
  facet normal -0 0 -1
    outer loop
      vertex 9 1 0
      vertex 0 0 0
      vertex 1 1 0
    endloop
  endfacet
  facet normal 0 0 -1
    outer loop
      vertex 78 0 0
      vertex 77 9 0
      vertex 78 102 0
    endloop
  endfacet
  facet normal 0 0 -1
    outer loop
      vertex 77 93 0
      vertex 78 102 0
      vertex 77 9 0
    endloop
  endfacet
  facet normal 0 0 -1
    outer loop
      vertex 77 101 0
      vertex 78 102 0
      vertex 77 93 0
    endloop
  endfacet
  facet normal 0 0 -1
    outer loop
      vertex 69 101 0
      vertex 78 102 0
      vertex 77 101 0
    endloop
  endfacet
  facet normal 0 0 -1
    outer loop
      vertex 9 93 0
      vertex 69 93 0
      vertex 9 9 0
    endloop
  endfacet
  facet normal 0 0 -1
    outer loop
      vertex 69 93 0
      vertex 9 93 0
      vertex 69 101 0
    endloop
  endfacet
  facet normal 0 0 -1
    outer loop
      vertex 9 101 0
      vertex 69 101 0
      vertex 9 93 0
    endloop
  endfacet
  facet normal 0 0 -1
    outer loop
      vertex 9 101 0
      vertex 78 102 0
      vertex 69 101 0
    endloop
  endfacet
  facet normal 0 0 -1
    outer loop
      vertex 0 102 0
      vertex 9 101 0
      vertex 1 101 0
    endloop
  endfacet
  facet normal 0 0 -1
    outer loop
      vertex 9 101 0
      vertex 0 102 0
      vertex 78 102 0
    endloop
  endfacet
  facet normal 0 0 -1
    outer loop
      vertex 1 93 0
      vertex 0 102 0
      vertex 1 101 0
    endloop
  endfacet
  facet normal 0 -1 0
    outer loop
      vertex 0 0 0
      vertex 78 0 16
      vertex 0 0 16
    endloop
  endfacet
  facet normal 0 -1 -0
    outer loop
      vertex 78 0 16
      vertex 0 0 0
      vertex 78 0 0
    endloop
  endfacet
endsolid OpenSCAD_Model
