<?xml version="1.0" encoding="UTF-8" standalone="no"?>
<!-- Created with Inkscape (http://www.inkscape.org/) -->

<svg
   xmlns:dc="http://purl.org/dc/elements/1.1/"
   xmlns:cc="http://creativecommons.org/ns#"
   xmlns:rdf="http://www.w3.org/1999/02/22-rdf-syntax-ns#"
   xmlns:svg="http://www.w3.org/2000/svg"
   xmlns="http://www.w3.org/2000/svg"
   xmlns:sodipodi="http://sodipodi.sourceforge.net/DTD/sodipodi-0.dtd"
   xmlns:inkscape="http://www.inkscape.org/namespaces/inkscape"
   width="5in"
   height="5in"
   viewBox="0 0 450.00001 450.00001"
   id="svg2"
   version="1.1"
   inkscape:version="0.91 r13725"
   sodipodi:docname="logo_whole.svg">
  <defs
     id="defs4" />
  <sodipodi:namedview
     id="base"
     pagecolor="#ffffff"
     bordercolor="#666666"
     borderopacity="1.0"
     inkscape:pageopacity="0.0"
     inkscape:pageshadow="2"
     inkscape:zoom="1.4"
     inkscape:cx="247.28489"
     inkscape:cy="128.28085"
     inkscape:document-units="px"
     inkscape:current-layer="layer2"
     showgrid="false"
     units="in"
     inkscape:object-paths="false"
     inkscape:object-nodes="true"
     inkscape:window-width="1920"
     inkscape:window-height="1059"
     inkscape:window-x="0"
     inkscape:window-y="0"
     inkscape:window-maximized="1"
     inkscape:snap-global="false" />
  <metadata
     id="metadata7">
    <rdf:RDF>
      <cc:Work
         rdf:about="">
        <dc:format>image/svg+xml</dc:format>
        <dc:type
           rdf:resource="http://purl.org/dc/dcmitype/StillImage" />
        <dc:title />
      </cc:Work>
    </rdf:RDF>
  </metadata>
  <g
     inkscape:groupmode="layer"
     id="layer2"
     inkscape:label="Layer 1">
    <path
       style="color:#000000;display:inline;overflow:visible;visibility:visible;opacity:1;fill:#b3b3b3;fill-opacity:1;fill-rule:nonzero;stroke:none;stroke-width:2.65748024;stroke-linecap:round;stroke-linejoin:round;stroke-miterlimit:4;stroke-dasharray:none;stroke-dashoffset:0;stroke-opacity:1;marker:none;enable-background:accumulate"
       d="M 222.73828 33.816406 C 210.56441 38.952562 91.180726 75.881547 44.314453 223.25781 L 31.261719 223.25781 L 31.261719 288.375 L 29.830078 288.375 C 26.48277 312.94712 24.968725 339.81289 25.759766 369.1875 C 61.477644 388.16535 103.4953 401.97983 147.81641 409.73242 C 194.87445 401.32074 266.70727 376.55782 224.31445 344.39648 C 202.73006 328.02148 201.54163 312.47085 236.84961 310.84375 C 242.59656 310.57892 275.29775 311.77034 250.98242 297.48438 C 247.50454 295.44099 245.17379 293.27587 243.18164 290.04492 L 256.63672 290.04492 C 258.96919 292.44032 261.33578 294.99714 265.66992 298.73047 C 277.15625 308.62452 281.39015 318.14254 256.89844 322.61328 C 222.05738 328.9732 230.8977 328.65642 259.6582 341.56836 C 298.24007 358.88956 285.5352 404.07945 275.43164 414.74609 C 329.57265 409.39424 381.64767 394.07312 424.76953 367.16797 C 427.8402 346.56923 427.86065 319.74303 423.44922 290.04492 L 423.48047 290.04492 L 423.48047 223.25781 L 406.66797 223.25781 C 380.186 149.24116 324.70076 72.521462 222.73828 33.816406 z M 151.85156 125.20703 L 181.53516 163.36523 L 180.32031 178.38281 L 132.0293 183.78125 L 126.26953 167.66211 L 151.85156 125.20703 z M 285.87305 125.80469 L 311.88477 160.5918 L 302.16602 171.4668 L 262.81055 163.20898 L 263.37109 159.20508 L 285.87305 125.80469 z M 217.6875 153.14062 L 235.22461 173.86523 L 231.19922 181.55273 L 203.23047 179.7207 L 201.00586 170.05273 L 217.6875 153.14062 z "
       id="rect4144" />
    <path
       style="color:#000000;display:inline;overflow:visible;visibility:visible;opacity:1;fill:#4d4d4d;fill-opacity:1;fill-rule:nonzero;stroke:none;stroke-width:2.65748024;stroke-linecap:round;stroke-linejoin:round;stroke-miterlimit:4;stroke-dasharray:none;stroke-dashoffset:0;stroke-opacity:1;marker:none;enable-background:accumulate"
       d="m 126.26907,167.66237 10.05439,9.48676 20.00587,-13.3986 16.13761,6.7287 9.0676,-7.11394 11.41356,15.12826 8.05774,-8.44171 8.05716,7.91568 8.88583,-2.55299 9.90033,3.41696 7.37563,-4.33466 10.69135,11.19804 17.45448,-26.48956 9.05661,4.03438 14.71187,-6.71419 14.37908,10.56011 10.36643,-6.49431 48.23478,65.40737 -268.195506,-0.75761 z"
       id="rect4209"
       inkscape:connector-curvature="0"
       sodipodi:nodetypes="cccccccccccccccccccc" />
    <path
       style="color:#000000;display:inline;overflow:visible;visibility:visible;opacity:1;fill:#000000;fill-opacity:1;fill-rule:nonzero;stroke:none;stroke-width:2.65748024;stroke-linecap:round;stroke-linejoin:round;stroke-miterlimit:4;stroke-dasharray:none;stroke-dashoffset:0;stroke-opacity:1;marker:none;enable-background:accumulate"
       d="M 225.00391 25.169922 C 135.80152 58.982072 67.471947 127.07657 36.976562 219.68555 L 3.703125 219.68555 L 15.130859 257.78516 L 3.703125 295.95117 L 21.240234 295.95117 C 18.976926 319.90716 18.920051 345.01302 21.289062 371.16016 C 141.7438 436.9784 293.71612 448.17231 430.00977 371.20898 C 432.48729 349.13819 432.92724 323.43079 429.98633 295.95117 L 446.11914 295.95117 L 435.00781 257.78516 L 446.11914 219.68555 L 413.11328 219.68555 C 387.57124 145.60087 332.33429 70.665666 225.00391 25.169922 z M 224.67383 38.972656 C 350.98519 94.976759 387.98915 187.24835 399.59766 220.22266 L 50.177734 220.22266 C 74.368998 147.91003 136.25331 73.866848 224.67383 38.972656 z M 208.29102 85.171875 C 200.10277 85.171875 193.46289 91.646934 193.46289 99.636719 C 193.46289 101.54234 193.84508 103.35729 194.53125 105.02344 C 190.78738 107.17162 188.27539 111.13532 188.27539 115.67969 C 188.27539 122.50733 193.94811 128.05078 200.94531 128.05078 C 201.8509 128.05078 202.73614 127.94962 203.58789 127.77344 C 205.81036 133.02673 211.11447 136.72656 217.30078 136.72656 C 222.68002 136.72656 227.39556 133.93718 229.99414 129.75391 C 231.79445 130.51221 233.77582 130.93945 235.86133 130.93945 C 240.96353 130.93945 245.46344 128.42627 248.13086 124.59766 C 248.47182 124.61826 248.8158 124.62109 249.16211 124.62109 C 258.24361 124.62109 265.61523 117.43955 265.61523 108.57812 C 265.61523 99.716791 258.2436 92.537109 249.16211 92.537109 C 246.72107 92.537109 244.40718 93.05523 242.32422 93.986328 C 239.72559 89.803066 235.01014 87.013672 229.63086 87.013672 C 225.88512 87.013672 222.46728 88.367968 219.85742 90.603516 C 217.14039 87.29335 212.9754 85.171875 208.29102 85.171875 z M 141.39062 235.3418 L 148.58789 235.3418 L 168.06445 279.85547 L 159.67969 279.85547 L 155.31055 269.4082 L 134.54297 269.4082 L 130.03516 279.85547 L 121.88086 279.85547 L 141.39062 235.3418 z M 339.60547 235.3418 L 346.80273 235.3418 L 366.2793 279.85547 L 357.89453 279.85547 L 353.52539 269.4082 L 332.75781 269.4082 L 328.25 279.85547 L 320.0957 279.85547 L 339.60547 235.3418 z M 175.76562 235.5957 L 183.7207 235.5957 L 183.7207 279.91602 L 175.76562 279.91602 L 175.76562 235.5957 z M 195.21289 235.5957 L 203.16602 235.5957 L 203.16602 272.71094 L 226.42773 272.71094 L 226.42773 279.91602 L 195.21289 279.91602 L 195.21289 235.5957 z M 281.83203 235.5957 L 314.95312 235.78516 L 314.95312 242.88477 L 289.78711 242.88477 L 289.78711 254.10938 L 311.85352 254.10938 L 311.85352 261.27148 L 289.78711 261.27148 L 289.78711 272.76758 L 314.95312 272.76758 L 314.95312 279.91602 L 281.83203 279.91602 L 281.83203 235.5957 z M 373.50391 235.5957 L 391.37109 235.5957 C 398.85324 235.74653 413.87691 242.33652 413.4043 257.74805 C 413.4838 272.30945 402.68471 279.05789 391.37109 279.91602 L 373.50391 279.91602 L 373.50391 235.5957 z M 234.10352 235.64258 L 242.05859 235.64258 L 242.05859 254.0625 L 262.92383 254.0625 L 262.92383 235.64258 L 270.75781 235.64258 L 270.82031 279.84766 L 262.92383 279.84766 L 262.92383 261.4707 L 242.05859 261.4707 L 242.12109 279.84766 L 234.16602 279.84766 L 234.10352 235.64258 z M 36.617188 235.6582 L 72.351562 235.6582 L 72.351562 243.17188 L 58.373047 243.17188 L 58.373047 279.87305 L 50.445312 279.87305 L 50.445312 243.17188 L 36.617188 243.17188 L 36.617188 235.6582 z M 80.177734 235.81836 L 101.72266 235.81836 C 112.96409 236.76505 116.43983 243.86252 116.43359 249.5957 C 115.72228 260.23474 110.65819 261.26522 106.05273 263.30469 L 117.88281 279.86914 L 108.60742 279.86914 L 97.873047 264.58789 L 88.214844 264.58789 L 88.214844 279.86914 L 80.177734 279.86914 L 80.177734 235.81836 z M 88.214844 242.98633 L 88.214844 257.59766 L 101.72266 257.59766 C 106.26988 256.54564 108.4769 253.84647 108.47852 249.5957 C 107.75633 244.44479 104.96418 244.05845 101.72266 242.98633 L 88.214844 242.98633 z M 381.45898 243.10742 L 381.45898 272.71875 L 391.37109 272.84375 C 398.2355 272.68082 405.26357 267.3781 405.3125 257.74805 C 404.88512 246.37092 395.88207 243.30497 391.37109 243.10742 L 381.45898 243.10742 z M 144.90039 244.82031 L 137.46289 262.24219 L 152.33984 262.24219 L 144.90039 244.82031 z M 343.11523 244.82031 L 335.67773 262.24219 L 350.55469 262.24219 L 343.11523 244.82031 z M 34.017578 295.75977 L 417.05273 295.75977 C 420.1134 323.65967 419.40055 344.54852 417.98438 362.95898 C 294.68874 432.90185 148.16744 422.90071 33.705078 363.16992 C 31.994957 340.90902 32.653993 318.37533 34.017578 295.75977 z "
       id="rect4202" />
  </g>
</svg>
