<?xml version="1.0" encoding="UTF-8" standalone="no"?>
<!-- Created with Inkscape (http://www.inkscape.org/) -->

<svg
   xmlns:dc="http://purl.org/dc/elements/1.1/"
   xmlns:cc="http://creativecommons.org/ns#"
   xmlns:rdf="http://www.w3.org/1999/02/22-rdf-syntax-ns#"
   xmlns:svg="http://www.w3.org/2000/svg"
   xmlns="http://www.w3.org/2000/svg"
   xmlns:sodipodi="http://sodipodi.sourceforge.net/DTD/sodipodi-0.dtd"
   xmlns:inkscape="http://www.inkscape.org/namespaces/inkscape"
   width="124.01575"
   height="124.01575"
   id="svg3565"
   version="1.1"
   inkscape:version="0.91 r13725"
   sodipodi:docname="dreamforce_whole.svg">
  <defs
     id="defs3567" />
  <sodipodi:namedview
     id="base"
     pagecolor="#ffffff"
     bordercolor="#666666"
     borderopacity="1.0"
     inkscape:pageopacity="0.0"
     inkscape:pageshadow="2"
     inkscape:zoom="0.9899495"
     inkscape:cx="356.91993"
     inkscape:cy="-90.825201"
     inkscape:document-units="px"
     inkscape:current-layer="layer1"
     showgrid="false"
     units="mm"
     inkscape:window-width="1920"
     inkscape:window-height="1059"
     inkscape:window-x="0"
     inkscape:window-y="0"
     inkscape:window-maximized="1"
     inkscape:object-nodes="true" />
  <metadata
     id="metadata3570">
    <rdf:RDF>
      <cc:Work
         rdf:about="">
        <dc:format>image/svg+xml</dc:format>
        <dc:type
           rdf:resource="http://purl.org/dc/dcmitype/StillImage" />
        <dc:title />
      </cc:Work>
    </rdf:RDF>
  </metadata>
  <g
     inkscape:label="Layer 1"
     inkscape:groupmode="layer"
     id="layer1"
     transform="translate(0,-928.34644)">
    <path
       style="color:#000000;display:inline;overflow:visible;visibility:visible;fill:#999999;fill-opacity:1;fill-rule:nonzero;stroke:none;stroke-width:10;marker:none;enable-background:accumulate;opacity:1"
       d="M 62 2.015625 C 28.874134 2.015625 2.015625 28.87413 2.015625 62 C 2.015625 77.980988 8.2786089 92.492506 18.46875 103.24414 L 18.056641 102.55078 C 18.831605 99.008781 21.470838 95.97825 24.623047 94.46875 C 17.607839 77.12165 41.503002 58.192533 55.894531 76.408203 C 62.064797 70.100423 73.983066 68.066002 82.074219 79.695312 C 86.203125 77.059474 106.57423 73.920641 110.01953 97.949219 C 117.53215 87.930572 121.98436 75.484884 121.98438 62 C 121.98438 28.87413 95.125866 2.015625 62 2.015625 z "
       transform="translate(0,928.34644)"
       id="path3658-5-8-2" />
    <path
       style="opacity:1;color:#000000;fill:#000000;fill-opacity:1;fill-rule:nonzero;stroke:none;stroke-width:10;marker:none;visibility:visible;display:inline;overflow:visible;enable-background:accumulate"
       d="M 62 0 C 27.753996 -9.4739031e-15 0 27.753996 0 62 C -9.4739031e-15 96.246004 27.753996 124.03125 62 124.03125 C 96.246004 124.03125 124.03125 96.246004 124.03125 62 C 124.03125 27.753996 96.246004 -1.8947806e-14 62 0 z M 62 3.53125 C 94.289088 3.53125 120.46875 29.710912 120.46875 62 C 120.46875 94.289088 94.289088 120.46875 62 120.46875 C 29.710912 120.46875 3.53125 94.289088 3.53125 62 C 3.53125 29.710912 29.710912 3.53125 62 3.53125 z "
       transform="translate(0,928.34644)"
       id="path3658" />
    <path
       style="color:#000000;display:inline;overflow:visible;visibility:visible;opacity:1;fill:#4d4d4d;fill-opacity:1;fill-rule:nonzero;stroke:none;stroke-width:4;stroke-linecap:round;stroke-linejoin:round;stroke-miterlimit:4;stroke-dasharray:none;stroke-dashoffset:0;stroke-opacity:1;marker:none;enable-background:accumulate"
       d="M 43.392578 25.287109 L 43.392578 42.341797 L 51.271484 42.341797 C 55.770142 42.068847 58.027095 39.734677 57.902344 36.310547 L 57.902344 31.164062 C 57.781819 28.821762 54.712987 25.550989 51.271484 25.287109 L 43.392578 25.287109 z M 60.408203 25.294922 L 60.408203 42.416016 L 64.085938 42.416016 L 64.175781 35.353516 L 70.039062 35.353516 L 69.978516 32.363281 L 64.085938 32.363281 L 64.085938 28.703125 L 71.273438 28.658203 L 71.273438 25.294922 L 60.408203 25.294922 z M 87.052734 25.443359 L 87.052734 35.265625 L 90.267578 35.265625 C 91.156046 34.148775 92.927666 34.160019 93.710938 34.730469 C 95.767462 36.228219 94.995201 38.32304 94.341797 38.875 C 92.595823 40.34989 90.790122 39.897353 89.396484 39.320312 C 88.691709 39.028493 88.205424 38.306253 87.646484 37.726562 L 85.328125 39.953125 L 87.425781 41.667969 C 89.668957 43.502359 94.497647 43.393447 97.101562 40.773438 C 99.835376 38.022727 98.532539 34.801116 97.023438 32.660156 C 95.544802 30.562406 91.085011 31.379287 90.267578 32.154297 L 90.267578 28.517578 L 97.605469 28.517578 L 97.605469 25.443359 L 87.052734 25.443359 z M 77.466797 25.529297 L 72.197266 28.703125 L 73.746094 31.169922 L 77.466797 29.015625 L 77.466797 39.304688 L 73.078125 39.304688 L 73.078125 42.255859 L 84.466797 42.255859 L 84.466797 39.304688 L 81.009766 39.304688 L 81.009766 25.529297 L 77.466797 25.529297 z M 31.072266 26.962891 L 30.255859 30.386719 L 27.105469 30.386719 L 27.105469 32.796875 L 29.681641 32.796875 L 28.871094 36.195312 L 25.716797 36.195312 L 25.716797 38.605469 L 28.294922 38.605469 L 27.410156 42.318359 L 29.822266 42.318359 L 30.707031 38.605469 L 34.1875 38.605469 L 33.302734 42.318359 L 35.714844 42.318359 L 36.599609 38.605469 L 39.685547 38.605469 L 39.685547 36.195312 L 37.173828 36.195312 L 37.984375 32.796875 L 41.074219 32.796875 L 41.074219 30.386719 L 38.558594 30.386719 L 39.375 26.962891 L 36.964844 26.962891 L 36.148438 30.386719 L 32.666016 30.386719 L 33.482422 26.962891 L 31.072266 26.962891 z M 46.986328 28.591797 L 51.271484 28.591797 C 52.734951 28.673107 53.911419 29.619619 54.289062 31.162109 L 54.289062 36.251953 C 54.04543 37.456623 53.51429 39.023109 51.271484 39.193359 L 46.986328 39.193359 L 46.986328 28.591797 z M 32.091797 32.796875 L 35.574219 32.796875 L 34.763672 36.195312 L 31.28125 36.195312 L 32.091797 32.796875 z M 77.699219 45.626953 C 76.770389 45.626953 76.441058 46.463191 75.835938 50.363281 C 75.492447 52.577131 75.188514 52.979489 73.621094 53.292969 C 71.406294 53.735929 69.522171 56.590735 68.957031 60.359375 C 68.299601 64.743375 67.130131 63.193675 67.306641 58.171875 L 67.460938 53.796875 L 65.007812 53.382812 C 63.658682 53.154873 61.997899 53.143675 61.318359 53.359375 C 59.633569 53.894105 57.541016 57.446434 57.541016 59.771484 C 57.541016 61.956384 55.6615 63.649903 53.78125 63.158203 C 52.25624 62.759403 52.250625 61.621 53.765625 60.25 C 55.653305 58.5417 56.528287 55.890521 55.710938 54.363281 C 54.730758 52.531801 51.704009 52.647554 49.761719 54.589844 C 47.582519 56.769044 47.582519 61.768066 49.761719 63.947266 C 51.350099 65.535666 55.072298 66.032684 56.867188 64.896484 C 57.396318 64.561584 58.146195 64.595522 58.765625 64.982422 C 59.508785 65.446622 60.313535 65.349459 61.703125 64.630859 C 63.385655 63.760759 63.710483 63.751488 64.376953 64.554688 C 65.228113 65.580288 67.314852 65.740113 68.669922 64.882812 C 69.219972 64.534813 70.006901 64.551081 70.707031 64.925781 C 71.512581 65.356881 72.381566 65.270713 73.660156 64.632812 C 75.212616 63.858412 75.574799 63.854109 76.193359 64.599609 C 77.053419 65.636009 78.855033 65.721441 80.564453 64.806641 C 81.457373 64.328741 82.041127 64.340709 82.654297 64.849609 C 83.601767 65.636009 85.691078 64.839538 86.304688 63.460938 C 86.495987 63.030638 86.589982 63.341391 86.513672 64.150391 C 86.407282 65.278291 85.725194 65.860584 83.589844 66.646484 C 80.514064 67.778484 79.637807 69.516116 81.466797 70.853516 C 83.023827 71.991996 87.612647 71.893192 88.810547 70.695312 C 89.346477 70.159313 89.785156 68.922766 89.785156 67.947266 C 89.785156 66.684166 90.321814 65.792909 91.646484 64.849609 C 92.669614 64.121109 93.505859 62.985072 93.505859 62.326172 C 93.505859 60.780972 92.989323 60.815062 91.220703 62.476562 L 89.785156 63.824219 L 89.785156 58.755859 C 89.785156 54.153939 89.675444 53.6875 88.583984 53.6875 C 87.623184 53.6875 87.296588 54.278783 86.955078 56.632812 C 86.055748 62.831952 83.890498 63.405345 84.330078 57.328125 C 84.577558 53.906835 84.512263 53.6875 83.226562 53.6875 C 81.559893 53.6875 81.105469 54.745117 81.105469 58.623047 C 81.105469 60.546247 80.766958 61.877325 80.148438 62.390625 C 78.170817 64.031925 77.83067 62.277244 78.59375 54.365234 C 79.32894 46.742544 79.214579 45.626953 77.699219 45.626953 z M 40.910156 46.902344 C 35.521276 46.968744 33.068559 47.668732 32.849609 49.201172 C 32.716609 50.132002 32.97177 50.587891 33.625 50.587891 C 34.82712 50.587891 35.007329 54.675565 33.824219 55.109375 C 33.233219 55.326075 33.221024 55.576189 33.771484 56.162109 C 34.255894 56.677719 34.378894 58.436746 34.146484 61.509766 C 33.850564 65.422466 33.943363 66.089844 34.783203 66.089844 C 35.323873 66.089844 35.991055 65.740753 36.265625 65.314453 C 36.540195 64.888153 36.904302 62.886687 37.076172 60.867188 C 37.250282 58.821187 37.717519 57.087302 38.130859 56.951172 C 38.538849 56.816812 39.417864 57.774388 40.083984 59.080078 C 41.429264 61.717078 44.312646 64.854444 45.378906 64.839844 C 45.758706 64.839844 46.47426 64.574619 46.96875 64.261719 C 47.6924 63.803919 47.298845 63.083972 44.953125 60.576172 C 43.350255 58.862572 42.039063 57.28133 42.039062 57.0625 C 42.039062 56.84368 42.877251 55.883484 43.900391 54.927734 C 45.287311 53.632154 45.759766 52.632673 45.759766 51.001953 C 45.759766 47.980193 44.432986 46.858954 40.910156 46.902344 z M 40.886719 49.451172 C 42.654169 49.598572 43.121081 50.948934 41.988281 52.964844 C 41.012371 54.701564 37.79115 55.933306 37.375 54.728516 C 37.23609 54.326366 37.331691 53.021785 37.587891 51.828125 C 37.989921 49.954935 38.326601 49.630881 40.050781 49.462891 C 40.355481 49.433191 40.634229 49.430072 40.886719 49.451172 z M 53.005859 55.195312 C 53.097259 55.200312 53.185991 55.227697 53.269531 55.279297 C 53.948491 55.698907 52.171093 59.267578 51.283203 59.267578 C 50.899993 59.267578 50.810713 58.700767 51.064453 57.873047 C 51.567643 56.231657 52.366409 55.160662 53.005859 55.195312 z M 63.535156 56.167969 C 64.720456 56.167969 64.175929 58.990762 62.667969 60.664062 C 61.338359 62.139463 60.642578 62.025937 60.642578 60.335938 C 60.642578 58.534037 62.284756 56.167969 63.535156 56.167969 z M 74.478516 56.324219 C 74.612576 56.336419 74.743251 56.379221 74.869141 56.457031 C 75.704001 56.973001 75.161487 59.118963 73.804688 60.664062 C 72.323607 62.350662 71.604691 61.972688 72.050781 59.742188 C 72.460491 57.693678 73.540096 56.239019 74.478516 56.324219 z M 86.763672 67.427734 C 86.915622 67.437734 87.033206 67.470816 87.103516 67.541016 C 87.311706 67.749216 87.128616 68.345434 86.697266 68.865234 C 85.839106 69.899334 83.857992 70.131719 83.320312 69.261719 C 82.974873 68.702919 85.700012 67.374334 86.763672 67.427734 z "
       transform="translate(0,928.34644)"
       id="rect4798" />
  </g>
</svg>
