<?xml version="1.0" encoding="UTF-8" standalone="no"?>
<svg
   xmlns:dc="http://purl.org/dc/elements/1.1/"
   xmlns:cc="http://creativecommons.org/ns#"
   xmlns:rdf="http://www.w3.org/1999/02/22-rdf-syntax-ns#"
   xmlns:svg="http://www.w3.org/2000/svg"
   xmlns="http://www.w3.org/2000/svg"
   xmlns:sodipodi="http://sodipodi.sourceforge.net/DTD/sodipodi-0.dtd"
   xmlns:inkscape="http://www.inkscape.org/namespaces/inkscape"
   version="1.1"
   id="svg3565"
   height="124.01575"
   width="124.01575"
   inkscape:version="0.91 r13725"
   sodipodi:docname="dreamforce_middle.svg">
  <sodipodi:namedview
     pagecolor="#ffffff"
     bordercolor="#666666"
     borderopacity="1"
     objecttolerance="10"
     gridtolerance="10"
     guidetolerance="10"
     inkscape:pageopacity="0"
     inkscape:pageshadow="2"
     inkscape:window-width="1920"
     inkscape:window-height="1059"
     id="namedview4153"
     showgrid="false"
     inkscape:zoom="1.9029841"
     inkscape:cx="62.007874"
     inkscape:cy="62.007874"
     inkscape:window-x="0"
     inkscape:window-y="0"
     inkscape:window-maximized="1"
     inkscape:current-layer="svg3565" />
  <defs
     id="defs3567" />
  <metadata
     id="metadata3570">
    <rdf:RDF>
      <cc:Work
         rdf:about="">
        <dc:format>image/svg+xml</dc:format>
        <dc:type
           rdf:resource="http://purl.org/dc/dcmitype/StillImage" />
        <dc:title />
      </cc:Work>
    </rdf:RDF>
  </metadata>
  <path
     inkscape:connector-curvature="0"
     style="color:#000000;display:inline;overflow:visible;visibility:visible;opacity:1;fill:#4d4d4d;fill-opacity:1;fill-rule:nonzero;stroke:none;stroke-width:4;stroke-linecap:round;stroke-linejoin:round;stroke-miterlimit:4;stroke-dasharray:none;stroke-dashoffset:0;stroke-opacity:1;marker:none;enable-background:accumulate"
     d="m 43.392578,25.287109 0,17.054688 7.878906,0 c 4.498658,-0.27295 6.755611,-2.60712 6.63086,-6.03125 l 0,-5.146485 c -0.120525,-2.3423 -3.189357,-5.613073 -6.63086,-5.876953 l -7.878906,0 z m 17.015625,0.0078 0,17.121094 3.677735,0 0.08984,-7.0625 5.863281,0 -0.06055,-2.990235 -5.892578,0 0,-3.660156 7.1875,-0.04492 0,-3.363281 -10.865235,0 z m 26.644531,0.148437 0,9.822266 3.214844,0 c 0.888468,-1.11685 2.660088,-1.105606 3.44336,-0.535156 2.056524,1.49775 1.284263,3.592571 0.630859,4.144531 -1.745974,1.47489 -3.551675,1.022353 -4.945313,0.445312 -0.704775,-0.291819 -1.19106,-1.014059 -1.75,-1.59375 l -2.318359,2.226563 2.097656,1.714844 c 2.243176,1.83439 7.071866,1.725478 9.675781,-0.894531 2.733814,-2.750711 1.430977,-5.972322 -0.07812,-8.113282 -1.478636,-2.09775 -5.938427,-1.280869 -6.75586,-0.505859 l 0,-3.636719 7.337891,0 0,-3.074219 -10.552735,0 z m -9.585937,0.08594 -5.269531,3.173828 1.548828,2.466797 3.720703,-2.154297 0,10.289063 -4.388672,0 0,2.951171 11.388672,0 0,-2.951171 -3.457031,0 0,-13.775391 -3.542969,0 z m -46.394531,1.433594 -0.816407,3.423828 -3.15039,0 0,2.410156 2.576172,0 -0.810547,3.398437 -3.154297,0 0,2.410157 2.578125,0 -0.884766,3.71289 2.41211,0 0.884765,-3.71289 3.480469,0 -0.884766,3.71289 2.41211,0 0.884765,-3.71289 3.085938,0 0,-2.410157 -2.511719,0 0.810547,-3.398437 3.089844,0 0,-2.410156 -2.515625,0 0.816406,-3.423828 -2.410156,0 -0.816406,3.423828 -3.482422,0 0.816406,-3.423828 -2.410156,0 z m 15.914062,1.628906 4.285156,0 c 1.463467,0.08131 2.639935,1.027822 3.017578,2.570312 l 0,5.089844 c -0.243632,1.20467 -0.774772,2.771156 -3.017578,2.941406 l -4.285156,0 0,-10.601562 z m -14.894531,4.205078 3.482422,0 -0.810547,3.398437 -3.482422,0 0.810547,-3.398437 z m 45.607422,12.830078 c -0.92883,0 -1.258161,0.836238 -1.863281,4.736328 -0.343491,2.21385 -0.647424,2.616208 -2.214844,2.929688 -2.2148,0.44296 -4.098923,3.297766 -4.664063,7.066406 -0.65743,4.384 -1.8269,2.8343 -1.65039,-2.1875 l 0.154297,-4.375 -2.453126,-0.414063 c -1.34913,-0.227939 -3.009913,-0.239137 -3.689453,-0.02344 -1.68479,0.53473 -3.777343,4.087059 -3.777343,6.412109 0,2.1849 -1.879516,3.878419 -3.759766,3.386719 -1.52501,-0.3988 -1.530625,-1.537203 -0.01563,-2.908203 1.88768,-1.7083 2.762662,-4.359479 1.945313,-5.886719 -0.98018,-1.83148 -4.006929,-1.715727 -5.949219,0.226563 -2.1792,2.1792 -2.1792,7.178222 0,9.357422 1.58838,1.5884 5.310579,2.085418 7.105469,0.949218 0.52913,-0.3349 1.279007,-0.300962 1.898437,0.08594 0.74316,0.4642 1.54791,0.367037 2.9375,-0.351563 1.68253,-0.8701 2.007358,-0.879371 2.673828,-0.07617 0.85116,1.0256 2.937899,1.185425 4.292969,0.328124 0.55005,-0.347999 1.336979,-0.331731 2.037109,0.04297 0.80555,0.4311 1.674535,0.344932 2.953125,-0.292969 1.55246,-0.7744 1.914643,-0.778703 2.533203,-0.0332 0.86006,1.0364 2.661674,1.121832 4.371094,0.207032 0.89292,-0.4779 1.476674,-0.465932 2.089844,0.04297 0.94747,0.7864 3.036781,-0.01007 3.650391,-1.388671 0.191299,-0.4303 0.285294,-0.119547 0.208984,0.689453 -0.10639,1.1279 -0.788478,1.710193 -2.923828,2.496093 -3.07578,1.132 -3.952037,2.869632 -2.123047,4.207032 1.55703,1.13848 6.14585,1.039676 7.34375,-0.158204 0.53593,-0.535999 0.974609,-1.772546 0.974609,-2.748046 0,-1.2631 0.536658,-2.154357 1.861328,-3.097657 1.02313,-0.7285 1.859375,-1.864537 1.859375,-2.523437 0,-1.5452 -0.516536,-1.51111 -2.285156,0.15039 l -1.435547,1.347657 0,-5.06836 c 0,-4.60192 -0.109712,-5.068359 -1.201172,-5.068359 -0.9608,0 -1.287396,0.591283 -1.628906,2.945312 -0.89933,6.19914 -3.06458,6.772533 -2.625,0.695313 0.24748,-3.42129 0.182185,-3.640625 -1.103516,-3.640625 -1.666669,0 -2.121093,1.057617 -2.121093,4.935547 0,1.9232 -0.338511,3.254278 -0.957031,3.767578 -1.977621,1.6413 -2.317768,-0.113381 -1.554688,-8.025391 0.73519,-7.62269 0.620829,-8.738281 -0.894531,-8.738281 z m -36.789063,1.275391 c -5.38888,0.0664 -7.841597,0.766388 -8.060547,2.298828 -0.133,0.93083 0.122161,1.386719 0.775391,1.386719 1.20212,0 1.382329,4.087674 0.199219,4.521484 -0.591,0.2167 -0.603195,0.466814 -0.05273,1.052734 0.48441,0.51561 0.60741,2.274637 0.375,5.347657 -0.29592,3.9127 -0.203121,4.580078 0.636719,4.580078 0.54067,0 1.207852,-0.349091 1.482422,-0.775391 0.27457,-0.4263 0.638677,-2.427766 0.810547,-4.447265 0.17411,-2.046001 0.641347,-3.779886 1.054687,-3.916016 0.40799,-0.13436 1.287005,0.823216 1.953125,2.128906 1.34528,2.637 4.228662,5.774366 5.294922,5.759766 0.3798,0 1.095354,-0.265225 1.589844,-0.578125 0.72365,-0.4578 0.330095,-1.177747 -2.015625,-3.685547 -1.60287,-1.7136 -2.914062,-3.294842 -2.914063,-3.513672 0,-0.21882 0.838189,-1.179016 1.861329,-2.134766 1.38692,-1.29558 1.859375,-2.295061 1.859375,-3.925781 0,-3.02176 -1.32678,-4.142999 -4.84961,-4.099609 z m -0.02344,2.548828 c 1.76745,0.1474 2.234362,1.497762 1.101562,3.513672 -0.97591,1.73672 -4.197131,2.968462 -4.613281,1.763672 -0.13891,-0.40215 -0.04331,-1.706731 0.212891,-2.900391 0.40203,-1.87319 0.73871,-2.197244 2.46289,-2.365234 0.3047,-0.0297 0.583448,-0.03282 0.835938,-0.01172 z m 12.11914,5.74414 c 0.0914,0.005 0.180132,0.03238 0.263672,0.08398 0.67896,0.41961 -1.098438,3.988281 -1.986328,3.988281 -0.38321,0 -0.47249,-0.566811 -0.21875,-1.394531 0.50319,-1.64139 1.301956,-2.712385 1.941406,-2.677735 z m 10.529297,0.972657 c 1.1853,0 0.640773,2.822793 -0.867187,4.496093 -1.32961,1.475401 -2.025391,1.361875 -2.025391,-0.328124 0,-1.801901 1.642178,-4.167969 2.892578,-4.167969 z m 10.94336,0.15625 c 0.13406,0.0122 0.264735,0.055 0.390625,0.132812 0.83486,0.51597 0.292346,2.661932 -1.064453,4.207031 -1.481081,1.6866 -2.199997,1.308626 -1.753907,-0.921874 0.40971,-2.04851 1.489315,-3.503169 2.427735,-3.417969 z m 12.285156,11.103515 c 0.15195,0.01 0.269534,0.04308 0.339844,0.113282 0.20819,0.2082 0.0251,0.804418 -0.40625,1.324218 -0.85816,1.0341 -2.839274,1.266485 -3.376954,0.396485 -0.345439,-0.5588 2.3797,-1.887385 3.44336,-1.833985 z"
     id="rect4798" />
</svg>
