solid OpenSCAD_Model
  facet normal 1 0 0
    outer loop
      vertex 40 12 40
      vertex 40 0 40
      vertex 40 12 9
    endloop
  endfacet
  facet normal 1 -0 0
    outer loop
      vertex 40 12 9
      vertex 40 40.5 0
      vertex 40 40.5 9
    endloop
  endfacet
  facet normal 1 0 0
    outer loop
      vertex 40 12 9
      vertex 40 0 0
      vertex 40 40.5 0
    endloop
  endfacet
  facet normal 1 0 0
    outer loop
      vertex 40 0 0
      vertex 40 12 9
      vertex 40 0 40
    endloop
  endfacet
  facet normal 0 0 1
    outer loop
      vertex 37.9822 28.6603 9
      vertex 40 40.5 9
      vertex 37.9822 29.3397 9
    endloop
  endfacet
  facet normal 0 0 1
    outer loop
      vertex 40 40.5 9
      vertex 37.8409 30.0043 9
      vertex 37.9822 29.3397 9
    endloop
  endfacet
  facet normal 0 0 1
    outer loop
      vertex 40 40.5 9
      vertex 37.5646 30.625 9
      vertex 37.8409 30.0043 9
    endloop
  endfacet
  facet normal 0 0 1
    outer loop
      vertex 40 40.5 9
      vertex 37.1652 31.1747 9
      vertex 37.5646 30.625 9
    endloop
  endfacet
  facet normal 0 0 1
    outer loop
      vertex 40 40.5 9
      vertex 36.6603 31.6293 9
      vertex 37.1652 31.1747 9
    endloop
  endfacet
  facet normal 0 0 1
    outer loop
      vertex 40 40.5 9
      vertex 36.0719 31.969 9
      vertex 36.6603 31.6293 9
    endloop
  endfacet
  facet normal 0 0 1
    outer loop
      vertex 40 40.5 9
      vertex 35.4257 32.179 9
      vertex 36.0719 31.969 9
    endloop
  endfacet
  facet normal 0 0 1
    outer loop
      vertex 40 40.5 9
      vertex 34.75 32.25 9
      vertex 35.4257 32.179 9
    endloop
  endfacet
  facet normal 0 0 1
    outer loop
      vertex 40 40.5 9
      vertex 5.25 32.25 9
      vertex 34.75 32.25 9
    endloop
  endfacet
  facet normal -0 0 1
    outer loop
      vertex 0 40.5 9
      vertex 5.25 32.25 9
      vertex 40 40.5 9
    endloop
  endfacet
  facet normal 0 0 1
    outer loop
      vertex 2.0178 29.3397 9
      vertex 0 40.5 9
      vertex 2.0178 28.6603 9
    endloop
  endfacet
  facet normal 0 0 1
    outer loop
      vertex 2.15907 30.0043 9
      vertex 0 40.5 9
      vertex 2.0178 29.3397 9
    endloop
  endfacet
  facet normal 0 0 1
    outer loop
      vertex 2.43542 30.625 9
      vertex 0 40.5 9
      vertex 2.15907 30.0043 9
    endloop
  endfacet
  facet normal 0 0 1
    outer loop
      vertex 2.83478 31.1747 9
      vertex 0 40.5 9
      vertex 2.43542 30.625 9
    endloop
  endfacet
  facet normal 0 0 1
    outer loop
      vertex 3.3397 31.6293 9
      vertex 0 40.5 9
      vertex 2.83478 31.1747 9
    endloop
  endfacet
  facet normal 0 0 1
    outer loop
      vertex 3.92811 31.969 9
      vertex 0 40.5 9
      vertex 3.3397 31.6293 9
    endloop
  endfacet
  facet normal 0 0 1
    outer loop
      vertex 4.57429 32.179 9
      vertex 0 40.5 9
      vertex 3.92811 31.969 9
    endloop
  endfacet
  facet normal 0 0 1
    outer loop
      vertex 5.25 32.25 9
      vertex 0 40.5 9
      vertex 4.57429 32.179 9
    endloop
  endfacet
  facet normal 0 0 1
    outer loop
      vertex 40 40.5 9
      vertex 37.9822 28.6603 9
      vertex 40 12 9
    endloop
  endfacet
  facet normal -0 0 1
    outer loop
      vertex 37.8409 27.9957 9
      vertex 40 12 9
      vertex 37.9822 28.6603 9
    endloop
  endfacet
  facet normal -0 0 1
    outer loop
      vertex 37.5646 27.375 9
      vertex 40 12 9
      vertex 37.8409 27.9957 9
    endloop
  endfacet
  facet normal -0 0 1
    outer loop
      vertex 37.1652 26.8253 9
      vertex 40 12 9
      vertex 37.5646 27.375 9
    endloop
  endfacet
  facet normal -0 0 1
    outer loop
      vertex 36.6603 26.3707 9
      vertex 40 12 9
      vertex 37.1652 26.8253 9
    endloop
  endfacet
  facet normal -0 0 1
    outer loop
      vertex 36.0719 26.031 9
      vertex 40 12 9
      vertex 36.6603 26.3707 9
    endloop
  endfacet
  facet normal -0 0 1
    outer loop
      vertex 35.4257 25.821 9
      vertex 40 12 9
      vertex 36.0719 26.031 9
    endloop
  endfacet
  facet normal -0 0 1
    outer loop
      vertex 34.75 25.75 9
      vertex 40 12 9
      vertex 35.4257 25.821 9
    endloop
  endfacet
  facet normal -0 0 1
    outer loop
      vertex 5.25 25.75 9
      vertex 40 12 9
      vertex 34.75 25.75 9
    endloop
  endfacet
  facet normal 0 0 1
    outer loop
      vertex 0 12 9
      vertex 5.25 25.75 9
      vertex 4.57429 25.821 9
    endloop
  endfacet
  facet normal 0 0 1
    outer loop
      vertex 0 12 9
      vertex 4.57429 25.821 9
      vertex 3.92811 26.031 9
    endloop
  endfacet
  facet normal 0 0 1
    outer loop
      vertex 5.25 25.75 9
      vertex 0 12 9
      vertex 40 12 9
    endloop
  endfacet
  facet normal 0 0 1
    outer loop
      vertex 3.3397 26.3707 9
      vertex 0 12 9
      vertex 3.92811 26.031 9
    endloop
  endfacet
  facet normal 0 0 1
    outer loop
      vertex 2.83478 26.8253 9
      vertex 0 12 9
      vertex 3.3397 26.3707 9
    endloop
  endfacet
  facet normal 0 0 1
    outer loop
      vertex 2.43542 27.375 9
      vertex 0 12 9
      vertex 2.83478 26.8253 9
    endloop
  endfacet
  facet normal 0 0 1
    outer loop
      vertex 2.15907 27.9957 9
      vertex 0 12 9
      vertex 2.43542 27.375 9
    endloop
  endfacet
  facet normal 0 0 1
    outer loop
      vertex 2.0178 28.6603 9
      vertex 0 12 9
      vertex 2.15907 27.9957 9
    endloop
  endfacet
  facet normal 0 0 1
    outer loop
      vertex 0 12 9
      vertex 2.0178 28.6603 9
      vertex 0 40.5 9
    endloop
  endfacet
  facet normal 0 0 -1
    outer loop
      vertex 5.75 4 0
      vertex 2.75 7.5 0
      vertex 5.75 7.5 0
    endloop
  endfacet
  facet normal 0 0 -1
    outer loop
      vertex 2 4 0
      vertex 2.75 10 0
      vertex 2.75 7.5 0
    endloop
  endfacet
  facet normal 0 0 -1
    outer loop
      vertex 2.75 10 0
      vertex 2.15907 27.9957 0
      vertex 2.43542 27.375 0
    endloop
  endfacet
  facet normal -0 0 -1
    outer loop
      vertex 2.75 10 0
      vertex 0 0 0
      vertex 2.15907 27.9957 0
    endloop
  endfacet
  facet normal -0 0 -1
    outer loop
      vertex 2.15907 27.9957 0
      vertex 0 0 0
      vertex 2.0178 28.6603 0
    endloop
  endfacet
  facet normal 0 0 -1
    outer loop
      vertex 2.75 10 0
      vertex 2 4 0
      vertex 0 0 0
    endloop
  endfacet
  facet normal 0 0 -1
    outer loop
      vertex 2 4 0
      vertex 2.75 7.5 0
      vertex 5.75 4 0
    endloop
  endfacet
  facet normal 0 0 -1
    outer loop
      vertex 40 0 0
      vertex 37.8409 27.9957 0
      vertex 37.9822 28.6603 0
    endloop
  endfacet
  facet normal 0 0 -1
    outer loop
      vertex 40 0 0
      vertex 37.25 10 0
      vertex 37.8409 27.9957 0
    endloop
  endfacet
  facet normal 0 0 -1
    outer loop
      vertex 37.25 10 0
      vertex 38 4 0
      vertex 37.25 7.5 0
    endloop
  endfacet
  facet normal 0 0 -1
    outer loop
      vertex 34.25 4 0
      vertex 37.25 7.5 0
      vertex 38 4 0
    endloop
  endfacet
  facet normal -0 0 -1
    outer loop
      vertex 37.25 7.5 0
      vertex 34.25 4 0
      vertex 34.25 7.5 0
    endloop
  endfacet
  facet normal 0 0 -1
    outer loop
      vertex 38 4 0
      vertex 40 0 0
      vertex 38 2 0
    endloop
  endfacet
  facet normal 0 0 -1
    outer loop
      vertex 40 0 0
      vertex 32.25 2 0
      vertex 38 2 0
    endloop
  endfacet
  facet normal 0 0 -1
    outer loop
      vertex 32.25 2 0
      vertex 7.75 2 0
      vertex 32.25 8 0
    endloop
  endfacet
  facet normal 0 0 -1
    outer loop
      vertex 40 0 0
      vertex 7.75 2 0
      vertex 32.25 2 0
    endloop
  endfacet
  facet normal 0 0 -1
    outer loop
      vertex 0 0 0
      vertex 7.75 2 0
      vertex 40 0 0
    endloop
  endfacet
  facet normal -0 0 -1
    outer loop
      vertex 2 2 0
      vertex 0 0 0
      vertex 2 4 0
    endloop
  endfacet
  facet normal -0 0 -1
    outer loop
      vertex 7.75 2 0
      vertex 0 0 0
      vertex 2 2 0
    endloop
  endfacet
  facet normal 0 0 -1
    outer loop
      vertex 37.25 10 0
      vertex 40 0 0
      vertex 38 4 0
    endloop
  endfacet
  facet normal 0 0 -1
    outer loop
      vertex 40 0 0
      vertex 37.9822 28.6603 0
      vertex 40 40.5 0
    endloop
  endfacet
  facet normal 0 0 -1
    outer loop
      vertex 37.9822 29.3397 0
      vertex 40 40.5 0
      vertex 37.9822 28.6603 0
    endloop
  endfacet
  facet normal 0 0 -1
    outer loop
      vertex 37.8409 30.0043 0
      vertex 40 40.5 0
      vertex 37.9822 29.3397 0
    endloop
  endfacet
  facet normal 0 0 -1
    outer loop
      vertex 37.5646 30.625 0
      vertex 40 40.5 0
      vertex 37.8409 30.0043 0
    endloop
  endfacet
  facet normal 0 0 -1
    outer loop
      vertex 37.1652 31.1747 0
      vertex 40 40.5 0
      vertex 37.5646 30.625 0
    endloop
  endfacet
  facet normal 0 0 -1
    outer loop
      vertex 36.6603 31.6293 0
      vertex 40 40.5 0
      vertex 37.1652 31.1747 0
    endloop
  endfacet
  facet normal 0 0 -1
    outer loop
      vertex 36.0719 31.969 0
      vertex 40 40.5 0
      vertex 36.6603 31.6293 0
    endloop
  endfacet
  facet normal 0 0 -1
    outer loop
      vertex 35.4257 32.179 0
      vertex 40 40.5 0
      vertex 36.0719 31.969 0
    endloop
  endfacet
  facet normal 0 0 -1
    outer loop
      vertex 34.75 32.25 0
      vertex 40 40.5 0
      vertex 35.4257 32.179 0
    endloop
  endfacet
  facet normal 0 0 -1
    outer loop
      vertex 5.25 32.25 0
      vertex 40 40.5 0
      vertex 34.75 32.25 0
    endloop
  endfacet
  facet normal 0 0 -1
    outer loop
      vertex 0 40.5 0
      vertex 5.25 32.25 0
      vertex 4.57429 32.179 0
    endloop
  endfacet
  facet normal 0 0 -1
    outer loop
      vertex 0 40.5 0
      vertex 2.0178 28.6603 0
      vertex 0 0 0
    endloop
  endfacet
  facet normal 0 0 -1
    outer loop
      vertex 5.25 32.25 0
      vertex 0 40.5 0
      vertex 40 40.5 0
    endloop
  endfacet
  facet normal 0 0 -1
    outer loop
      vertex 3.92811 31.969 0
      vertex 0 40.5 0
      vertex 4.57429 32.179 0
    endloop
  endfacet
  facet normal 0 0 -1
    outer loop
      vertex 3.3397 31.6293 0
      vertex 0 40.5 0
      vertex 3.92811 31.969 0
    endloop
  endfacet
  facet normal 0 0 -1
    outer loop
      vertex 2.83478 31.1747 0
      vertex 0 40.5 0
      vertex 3.3397 31.6293 0
    endloop
  endfacet
  facet normal 0 0 -1
    outer loop
      vertex 2.43542 30.625 0
      vertex 0 40.5 0
      vertex 2.83478 31.1747 0
    endloop
  endfacet
  facet normal 0 0 -1
    outer loop
      vertex 2.15907 30.0043 0
      vertex 0 40.5 0
      vertex 2.43542 30.625 0
    endloop
  endfacet
  facet normal 0 0 -1
    outer loop
      vertex 2.0178 29.3397 0
      vertex 0 40.5 0
      vertex 2.15907 30.0043 0
    endloop
  endfacet
  facet normal 0 0 -1
    outer loop
      vertex 2.0178 28.6603 0
      vertex 0 40.5 0
      vertex 2.0178 29.3397 0
    endloop
  endfacet
  facet normal 0 0 -1
    outer loop
      vertex 37.8409 27.9957 0
      vertex 37.25 10 0
      vertex 37.5646 27.375 0
    endloop
  endfacet
  facet normal 0 0 -1
    outer loop
      vertex 37.25 10 0
      vertex 37.1652 26.8253 0
      vertex 37.5646 27.375 0
    endloop
  endfacet
  facet normal 0 0 -1
    outer loop
      vertex 37.25 10 0
      vertex 36.6603 26.3707 0
      vertex 37.1652 26.8253 0
    endloop
  endfacet
  facet normal 0 0 -1
    outer loop
      vertex 37.25 10 0
      vertex 36.0719 26.031 0
      vertex 36.6603 26.3707 0
    endloop
  endfacet
  facet normal 0 0 -1
    outer loop
      vertex 37.25 10 0
      vertex 35.4257 25.821 0
      vertex 36.0719 26.031 0
    endloop
  endfacet
  facet normal 0 0 -1
    outer loop
      vertex 37.25 10 0
      vertex 34.75 25.75 0
      vertex 35.4257 25.821 0
    endloop
  endfacet
  facet normal 0 0 -1
    outer loop
      vertex 37.25 10 0
      vertex 5.25 25.75 0
      vertex 34.75 25.75 0
    endloop
  endfacet
  facet normal 0 0 -1
    outer loop
      vertex 2.75 10 0
      vertex 5.25 25.75 0
      vertex 37.25 10 0
    endloop
  endfacet
  facet normal -0 0 -1
    outer loop
      vertex 5.25 25.75 0
      vertex 2.75 10 0
      vertex 4.57429 25.821 0
    endloop
  endfacet
  facet normal -0 0 -1
    outer loop
      vertex 4.57429 25.821 0
      vertex 2.75 10 0
      vertex 3.92811 26.031 0
    endloop
  endfacet
  facet normal 0 0 -1
    outer loop
      vertex 2.75 10 0
      vertex 3.3397 26.3707 0
      vertex 3.92811 26.031 0
    endloop
  endfacet
  facet normal 0 0 -1
    outer loop
      vertex 2.75 10 0
      vertex 2.83478 26.8253 0
      vertex 3.3397 26.3707 0
    endloop
  endfacet
  facet normal -0 0 -1
    outer loop
      vertex 2.83478 26.8253 0
      vertex 2.75 10 0
      vertex 2.43542 27.375 0
    endloop
  endfacet
  facet normal -0 0 -1
    outer loop
      vertex 32.25 8 0
      vertex 7.75 2 0
      vertex 7.75 8 0
    endloop
  endfacet
  facet normal -1 0 0
    outer loop
      vertex 0 40.5 0
      vertex 0 12 9
      vertex 0 40.5 9
    endloop
  endfacet
  facet normal -1 0 0
    outer loop
      vertex 0 0 0
      vertex 0 12 9
      vertex 0 40.5 0
    endloop
  endfacet
  facet normal -1 0 0
    outer loop
      vertex 0 0 40
      vertex 0 12 9
      vertex 0 0 0
    endloop
  endfacet
  facet normal -1 0 0
    outer loop
      vertex 0 12 9
      vertex 0 0 40
      vertex 0 12 40
    endloop
  endfacet
  facet normal 0 1 -0
    outer loop
      vertex 40 40.5 0
      vertex 0 40.5 9
      vertex 40 40.5 9
    endloop
  endfacet
  facet normal 0 1 0
    outer loop
      vertex 0 40.5 9
      vertex 40 40.5 0
      vertex 0 40.5 0
    endloop
  endfacet
  facet normal 0 1 -0
    outer loop
      vertex 40 12 9
      vertex 0 12 40
      vertex 40 12 40
    endloop
  endfacet
  facet normal 0 1 0
    outer loop
      vertex 0 12 40
      vertex 40 12 9
      vertex 0 12 9
    endloop
  endfacet
  facet normal 0 0 1
    outer loop
      vertex 32.25 8 40
      vertex 7.75 8 40
      vertex 32.25 2 40
    endloop
  endfacet
  facet normal 0 0 1
    outer loop
      vertex 40 12 40
      vertex 38 4 40
      vertex 40 0 40
    endloop
  endfacet
  facet normal 0 0 1
    outer loop
      vertex 37.25 7.5 40
      vertex 40 12 40
      vertex 37.25 10 40
    endloop
  endfacet
  facet normal 0 0 1
    outer loop
      vertex 40 12 40
      vertex 2.75 10 40
      vertex 37.25 10 40
    endloop
  endfacet
  facet normal 0 0 1
    outer loop
      vertex 0 12 40
      vertex 2.75 7.5 40
      vertex 2.75 10 40
    endloop
  endfacet
  facet normal 0 0 1
    outer loop
      vertex 0 0 40
      vertex 2 4 40
      vertex 0 12 40
    endloop
  endfacet
  facet normal 0 0 1
    outer loop
      vertex 2.75 7.5 40
      vertex 0 12 40
      vertex 2 4 40
    endloop
  endfacet
  facet normal -0 0 1
    outer loop
      vertex 0 12 40
      vertex 2.75 10 40
      vertex 40 12 40
    endloop
  endfacet
  facet normal -0 0 1
    outer loop
      vertex 38 2 40
      vertex 40 0 40
      vertex 38 4 40
    endloop
  endfacet
  facet normal -0 0 1
    outer loop
      vertex 32.25 2 40
      vertex 40 0 40
      vertex 38 2 40
    endloop
  endfacet
  facet normal 0 0 1
    outer loop
      vertex 7.75 2 40
      vertex 32.25 2 40
      vertex 7.75 8 40
    endloop
  endfacet
  facet normal 0 0 1
    outer loop
      vertex 32.25 2 40
      vertex 7.75 2 40
      vertex 40 0 40
    endloop
  endfacet
  facet normal 0 0 1
    outer loop
      vertex 0 0 40
      vertex 7.75 2 40
      vertex 2 2 40
    endloop
  endfacet
  facet normal 0 0 1
    outer loop
      vertex 7.75 2 40
      vertex 0 0 40
      vertex 40 0 40
    endloop
  endfacet
  facet normal 0 0 1
    outer loop
      vertex 2 4 40
      vertex 0 0 40
      vertex 2 2 40
    endloop
  endfacet
  facet normal 0 0 1
    outer loop
      vertex 40 12 40
      vertex 37.25 7.5 40
      vertex 38 4 40
    endloop
  endfacet
  facet normal 0 0 1
    outer loop
      vertex 34.25 4 40
      vertex 37.25 7.5 40
      vertex 34.25 7.5 40
    endloop
  endfacet
  facet normal 0 0 1
    outer loop
      vertex 37.25 7.5 40
      vertex 34.25 4 40
      vertex 38 4 40
    endloop
  endfacet
  facet normal -0 0 1
    outer loop
      vertex 2.75 7.5 40
      vertex 5.75 4 40
      vertex 5.75 7.5 40
    endloop
  endfacet
  facet normal 0 0 1
    outer loop
      vertex 5.75 4 40
      vertex 2.75 7.5 40
      vertex 2 4 40
    endloop
  endfacet
  facet normal 0 -1 0
    outer loop
      vertex 0 0 0
      vertex 40 0 40
      vertex 0 0 40
    endloop
  endfacet
  facet normal 0 -1 -0
    outer loop
      vertex 40 0 40
      vertex 0 0 0
      vertex 40 0 0
    endloop
  endfacet
  facet normal 0.309075 -0.951038 0
    outer loop
      vertex 3.92811 31.969 0
      vertex 4.57429 32.179 9
      vertex 3.92811 31.969 9
    endloop
  endfacet
  facet normal 0.309075 -0.951038 0
    outer loop
      vertex 4.57429 32.179 9
      vertex 3.92811 31.969 0
      vertex 4.57429 32.179 0
    endloop
  endfacet
  facet normal 0.104499 -0.994525 0
    outer loop
      vertex 4.57429 32.179 0
      vertex 5.25 32.25 9
      vertex 4.57429 32.179 9
    endloop
  endfacet
  facet normal 0.104499 -0.994525 0
    outer loop
      vertex 5.25 32.25 9
      vertex 4.57429 32.179 0
      vertex 5.25 32.25 0
    endloop
  endfacet
  facet normal -0.669119 0.743155 0
    outer loop
      vertex 37.1652 26.8253 0
      vertex 36.6603 26.3707 9
      vertex 37.1652 26.8253 9
    endloop
  endfacet
  facet normal -0.669119 0.743155 0
    outer loop
      vertex 36.6603 26.3707 9
      vertex 37.1652 26.8253 0
      vertex 36.6603 26.3707 0
    endloop
  endfacet
  facet normal 0.978146 0.207919 0
    outer loop
      vertex 2.15907 27.9957 9
      vertex 2.0178 28.6603 0
      vertex 2.0178 28.6603 9
    endloop
  endfacet
  facet normal 0.978146 0.207919 0
    outer loop
      vertex 2.0178 28.6603 0
      vertex 2.15907 27.9957 9
      vertex 2.15907 27.9957 0
    endloop
  endfacet
  facet normal -0.309066 -0.951041 0
    outer loop
      vertex 35.4257 32.179 0
      vertex 36.0719 31.969 9
      vertex 35.4257 32.179 9
    endloop
  endfacet
  facet normal -0.309066 -0.951041 -0
    outer loop
      vertex 36.0719 31.969 9
      vertex 35.4257 32.179 0
      vertex 36.0719 31.969 0
    endloop
  endfacet
  facet normal 0.499979 0.866037 -0
    outer loop
      vertex 3.92811 26.031 0
      vertex 3.3397 26.3707 9
      vertex 3.92811 26.031 9
    endloop
  endfacet
  facet normal 0.499979 0.866037 0
    outer loop
      vertex 3.3397 26.3707 9
      vertex 3.92811 26.031 0
      vertex 3.3397 26.3707 0
    endloop
  endfacet
  facet normal 1 -0 0
    outer loop
      vertex 2.0178 28.6603 9
      vertex 2.0178 29.3397 0
      vertex 2.0178 29.3397 9
    endloop
  endfacet
  facet normal 1 0 0
    outer loop
      vertex 2.0178 29.3397 0
      vertex 2.0178 28.6603 9
      vertex 2.0178 28.6603 0
    endloop
  endfacet
  facet normal -1 0 0
    outer loop
      vertex 37.9822 28.6603 0
      vertex 37.9822 29.3397 9
      vertex 37.9822 29.3397 0
    endloop
  endfacet
  facet normal -1 -0 0
    outer loop
      vertex 37.9822 29.3397 9
      vertex 37.9822 28.6603 0
      vertex 37.9822 28.6603 9
    endloop
  endfacet
  facet normal -0.978137 0.207961 0
    outer loop
      vertex 37.8409 27.9957 0
      vertex 37.9822 28.6603 9
      vertex 37.9822 28.6603 0
    endloop
  endfacet
  facet normal -0.978137 0.207961 0
    outer loop
      vertex 37.9822 28.6603 9
      vertex 37.8409 27.9957 0
      vertex 37.8409 27.9957 9
    endloop
  endfacet
  facet normal -0.809003 -0.587804 0
    outer loop
      vertex 37.5646 30.625 0
      vertex 37.1652 31.1747 9
      vertex 37.1652 31.1747 0
    endloop
  endfacet
  facet normal -0.809003 -0.587804 0
    outer loop
      vertex 37.1652 31.1747 9
      vertex 37.5646 30.625 0
      vertex 37.5646 30.625 9
    endloop
  endfacet
  facet normal -0.104501 -0.994525 0
    outer loop
      vertex 34.75 32.25 0
      vertex 35.4257 32.179 9
      vertex 34.75 32.25 9
    endloop
  endfacet
  facet normal -0.104501 -0.994525 -0
    outer loop
      vertex 35.4257 32.179 9
      vertex 34.75 32.25 0
      vertex 35.4257 32.179 0
    endloop
  endfacet
  facet normal 0 -1 0
    outer loop
      vertex 5.25 32.25 0
      vertex 34.75 32.25 9
      vertex 5.25 32.25 9
    endloop
  endfacet
  facet normal 0 -1 -0
    outer loop
      vertex 34.75 32.25 9
      vertex 5.25 32.25 0
      vertex 34.75 32.25 0
    endloop
  endfacet
  facet normal -0.104501 0.994525 0
    outer loop
      vertex 35.4257 25.821 0
      vertex 34.75 25.75 9
      vertex 35.4257 25.821 9
    endloop
  endfacet
  facet normal -0.104501 0.994525 0
    outer loop
      vertex 34.75 25.75 9
      vertex 35.4257 25.821 0
      vertex 34.75 25.75 0
    endloop
  endfacet
  facet normal 0.809031 0.587766 0
    outer loop
      vertex 2.83478 26.8253 9
      vertex 2.43542 27.375 0
      vertex 2.43542 27.375 9
    endloop
  endfacet
  facet normal 0.809031 0.587766 0
    outer loop
      vertex 2.43542 27.375 0
      vertex 2.83478 26.8253 9
      vertex 2.83478 26.8253 0
    endloop
  endfacet
  facet normal 0.978146 -0.207919 0
    outer loop
      vertex 2.0178 29.3397 9
      vertex 2.15907 30.0043 0
      vertex 2.15907 30.0043 9
    endloop
  endfacet
  facet normal 0.978146 -0.207919 0
    outer loop
      vertex 2.15907 30.0043 0
      vertex 2.0178 29.3397 9
      vertex 2.0178 29.3397 0
    endloop
  endfacet
  facet normal -0.499986 -0.866034 0
    outer loop
      vertex 36.0719 31.969 0
      vertex 36.6603 31.6293 9
      vertex 36.0719 31.969 9
    endloop
  endfacet
  facet normal -0.499986 -0.866034 -0
    outer loop
      vertex 36.6603 31.6293 9
      vertex 36.0719 31.969 0
      vertex 36.6603 31.6293 0
    endloop
  endfacet
  facet normal 0.809031 -0.587766 0
    outer loop
      vertex 2.43542 30.625 9
      vertex 2.83478 31.1747 0
      vertex 2.83478 31.1747 9
    endloop
  endfacet
  facet normal 0.809031 -0.587766 0
    outer loop
      vertex 2.83478 31.1747 0
      vertex 2.43542 30.625 9
      vertex 2.43542 30.625 0
    endloop
  endfacet
  facet normal -0.978137 -0.207961 0
    outer loop
      vertex 37.9822 29.3397 0
      vertex 37.8409 30.0043 9
      vertex 37.8409 30.0043 0
    endloop
  endfacet
  facet normal -0.978137 -0.207961 0
    outer loop
      vertex 37.8409 30.0043 9
      vertex 37.9822 29.3397 0
      vertex 37.9822 29.3397 9
    endloop
  endfacet
  facet normal 0.669105 -0.743168 0
    outer loop
      vertex 2.83478 31.1747 0
      vertex 3.3397 31.6293 9
      vertex 2.83478 31.1747 9
    endloop
  endfacet
  facet normal 0.669105 -0.743168 0
    outer loop
      vertex 3.3397 31.6293 9
      vertex 2.83478 31.1747 0
      vertex 3.3397 31.6293 0
    endloop
  endfacet
  facet normal -0.499986 0.866034 0
    outer loop
      vertex 36.6603 26.3707 0
      vertex 36.0719 26.031 9
      vertex 36.6603 26.3707 9
    endloop
  endfacet
  facet normal -0.499986 0.866034 0
    outer loop
      vertex 36.0719 26.031 9
      vertex 36.6603 26.3707 0
      vertex 36.0719 26.031 0
    endloop
  endfacet
  facet normal -0.309066 0.951041 0
    outer loop
      vertex 36.0719 26.031 0
      vertex 35.4257 25.821 9
      vertex 36.0719 26.031 9
    endloop
  endfacet
  facet normal -0.309066 0.951041 0
    outer loop
      vertex 35.4257 25.821 9
      vertex 36.0719 26.031 0
      vertex 35.4257 25.821 0
    endloop
  endfacet
  facet normal 0.913547 -0.406732 0
    outer loop
      vertex 2.15907 30.0043 9
      vertex 2.43542 30.625 0
      vertex 2.43542 30.625 9
    endloop
  endfacet
  facet normal 0.913547 -0.406732 0
    outer loop
      vertex 2.43542 30.625 0
      vertex 2.15907 30.0043 9
      vertex 2.15907 30.0043 0
    endloop
  endfacet
  facet normal -0.913575 -0.406671 0
    outer loop
      vertex 37.8409 30.0043 0
      vertex 37.5646 30.625 9
      vertex 37.5646 30.625 0
    endloop
  endfacet
  facet normal -0.913575 -0.406671 0
    outer loop
      vertex 37.5646 30.625 9
      vertex 37.8409 30.0043 0
      vertex 37.8409 30.0043 9
    endloop
  endfacet
  facet normal -0.913575 0.406671 0
    outer loop
      vertex 37.5646 27.375 0
      vertex 37.8409 27.9957 9
      vertex 37.8409 27.9957 0
    endloop
  endfacet
  facet normal -0.913575 0.406671 0
    outer loop
      vertex 37.8409 27.9957 9
      vertex 37.5646 27.375 0
      vertex 37.5646 27.375 9
    endloop
  endfacet
  facet normal 0.104499 0.994525 -0
    outer loop
      vertex 5.25 25.75 0
      vertex 4.57429 25.821 9
      vertex 5.25 25.75 9
    endloop
  endfacet
  facet normal 0.104499 0.994525 0
    outer loop
      vertex 4.57429 25.821 9
      vertex 5.25 25.75 0
      vertex 4.57429 25.821 0
    endloop
  endfacet
  facet normal 0 1 -0
    outer loop
      vertex 34.75 25.75 0
      vertex 5.25 25.75 9
      vertex 34.75 25.75 9
    endloop
  endfacet
  facet normal 0 1 0
    outer loop
      vertex 5.25 25.75 9
      vertex 34.75 25.75 0
      vertex 5.25 25.75 0
    endloop
  endfacet
  facet normal -0.669119 -0.743155 0
    outer loop
      vertex 36.6603 31.6293 0
      vertex 37.1652 31.1747 9
      vertex 36.6603 31.6293 9
    endloop
  endfacet
  facet normal -0.669119 -0.743155 -0
    outer loop
      vertex 37.1652 31.1747 9
      vertex 36.6603 31.6293 0
      vertex 37.1652 31.1747 0
    endloop
  endfacet
  facet normal 0.669105 0.743168 -0
    outer loop
      vertex 3.3397 26.3707 0
      vertex 2.83478 26.8253 9
      vertex 3.3397 26.3707 9
    endloop
  endfacet
  facet normal 0.669105 0.743168 0
    outer loop
      vertex 2.83478 26.8253 9
      vertex 3.3397 26.3707 0
      vertex 2.83478 26.8253 0
    endloop
  endfacet
  facet normal -0.809003 0.587804 0
    outer loop
      vertex 37.1652 26.8253 0
      vertex 37.5646 27.375 9
      vertex 37.5646 27.375 0
    endloop
  endfacet
  facet normal -0.809003 0.587804 0
    outer loop
      vertex 37.5646 27.375 9
      vertex 37.1652 26.8253 0
      vertex 37.1652 26.8253 9
    endloop
  endfacet
  facet normal 0.309075 0.951038 -0
    outer loop
      vertex 4.57429 25.821 0
      vertex 3.92811 26.031 9
      vertex 4.57429 25.821 9
    endloop
  endfacet
  facet normal 0.309075 0.951038 0
    outer loop
      vertex 3.92811 26.031 9
      vertex 4.57429 25.821 0
      vertex 3.92811 26.031 0
    endloop
  endfacet
  facet normal 0.913547 0.406732 0
    outer loop
      vertex 2.43542 27.375 9
      vertex 2.15907 27.9957 0
      vertex 2.15907 27.9957 9
    endloop
  endfacet
  facet normal 0.913547 0.406732 0
    outer loop
      vertex 2.15907 27.9957 0
      vertex 2.43542 27.375 9
      vertex 2.43542 27.375 0
    endloop
  endfacet
  facet normal 0.499979 -0.866037 0
    outer loop
      vertex 3.3397 31.6293 0
      vertex 3.92811 31.969 9
      vertex 3.3397 31.6293 9
    endloop
  endfacet
  facet normal 0.499979 -0.866037 0
    outer loop
      vertex 3.92811 31.969 9
      vertex 3.3397 31.6293 0
      vertex 3.92811 31.969 0
    endloop
  endfacet
  facet normal 0 1 -0
    outer loop
      vertex 32.25 8 0
      vertex 7.75 8 40
      vertex 32.25 8 40
    endloop
  endfacet
  facet normal 0 1 0
    outer loop
      vertex 7.75 8 40
      vertex 32.25 8 0
      vertex 7.75 8 0
    endloop
  endfacet
  facet normal 1 -0 0
    outer loop
      vertex 32.25 2 40
      vertex 32.25 8 0
      vertex 32.25 8 40
    endloop
  endfacet
  facet normal 1 0 0
    outer loop
      vertex 32.25 8 0
      vertex 32.25 2 40
      vertex 32.25 2 0
    endloop
  endfacet
  facet normal 0 1 -0
    outer loop
      vertex 38 2 0
      vertex 32.25 2 40
      vertex 38 2 40
    endloop
  endfacet
  facet normal 0 1 0
    outer loop
      vertex 32.25 2 40
      vertex 38 2 0
      vertex 32.25 2 0
    endloop
  endfacet
  facet normal -1 0 0
    outer loop
      vertex 38 2 0
      vertex 38 4 40
      vertex 38 4 0
    endloop
  endfacet
  facet normal -1 -0 0
    outer loop
      vertex 38 4 40
      vertex 38 2 0
      vertex 38 2 40
    endloop
  endfacet
  facet normal 0 -1 0
    outer loop
      vertex 34.25 4 0
      vertex 38 4 40
      vertex 34.25 4 40
    endloop
  endfacet
  facet normal 0 -1 -0
    outer loop
      vertex 38 4 40
      vertex 34.25 4 0
      vertex 38 4 0
    endloop
  endfacet
  facet normal -1 0 0
    outer loop
      vertex 34.25 4 0
      vertex 34.25 7.5 40
      vertex 34.25 7.5 0
    endloop
  endfacet
  facet normal -1 -0 0
    outer loop
      vertex 34.25 7.5 40
      vertex 34.25 4 0
      vertex 34.25 4 40
    endloop
  endfacet
  facet normal 0 1 -0
    outer loop
      vertex 37.25 7.5 0
      vertex 34.25 7.5 40
      vertex 37.25 7.5 40
    endloop
  endfacet
  facet normal 0 1 0
    outer loop
      vertex 34.25 7.5 40
      vertex 37.25 7.5 0
      vertex 34.25 7.5 0
    endloop
  endfacet
  facet normal -1 0 0
    outer loop
      vertex 37.25 7.5 0
      vertex 37.25 10 40
      vertex 37.25 10 0
    endloop
  endfacet
  facet normal -1 -0 0
    outer loop
      vertex 37.25 10 40
      vertex 37.25 7.5 0
      vertex 37.25 7.5 40
    endloop
  endfacet
  facet normal 0 -1 0
    outer loop
      vertex 2.75 10 0
      vertex 37.25 10 40
      vertex 2.75 10 40
    endloop
  endfacet
  facet normal 0 -1 -0
    outer loop
      vertex 37.25 10 40
      vertex 2.75 10 0
      vertex 37.25 10 0
    endloop
  endfacet
  facet normal 1 -0 0
    outer loop
      vertex 2.75 7.5 40
      vertex 2.75 10 0
      vertex 2.75 10 40
    endloop
  endfacet
  facet normal 1 0 0
    outer loop
      vertex 2.75 10 0
      vertex 2.75 7.5 40
      vertex 2.75 7.5 0
    endloop
  endfacet
  facet normal 0 1 -0
    outer loop
      vertex 5.75 7.5 0
      vertex 2.75 7.5 40
      vertex 5.75 7.5 40
    endloop
  endfacet
  facet normal 0 1 0
    outer loop
      vertex 2.75 7.5 40
      vertex 5.75 7.5 0
      vertex 2.75 7.5 0
    endloop
  endfacet
  facet normal 1 -0 0
    outer loop
      vertex 5.75 4 40
      vertex 5.75 7.5 0
      vertex 5.75 7.5 40
    endloop
  endfacet
  facet normal 1 0 0
    outer loop
      vertex 5.75 7.5 0
      vertex 5.75 4 40
      vertex 5.75 4 0
    endloop
  endfacet
  facet normal 0 -1 0
    outer loop
      vertex 2 4 0
      vertex 5.75 4 40
      vertex 2 4 40
    endloop
  endfacet
  facet normal 0 -1 -0
    outer loop
      vertex 5.75 4 40
      vertex 2 4 0
      vertex 5.75 4 0
    endloop
  endfacet
  facet normal 1 -0 0
    outer loop
      vertex 2 2 40
      vertex 2 4 0
      vertex 2 4 40
    endloop
  endfacet
  facet normal 1 0 0
    outer loop
      vertex 2 4 0
      vertex 2 2 40
      vertex 2 2 0
    endloop
  endfacet
  facet normal 0 1 -0
    outer loop
      vertex 7.75 2 0
      vertex 2 2 40
      vertex 7.75 2 40
    endloop
  endfacet
  facet normal 0 1 0
    outer loop
      vertex 2 2 40
      vertex 7.75 2 0
      vertex 2 2 0
    endloop
  endfacet
  facet normal -1 0 0
    outer loop
      vertex 7.75 2 0
      vertex 7.75 8 40
      vertex 7.75 8 0
    endloop
  endfacet
  facet normal -1 -0 0
    outer loop
      vertex 7.75 8 40
      vertex 7.75 2 0
      vertex 7.75 2 40
    endloop
  endfacet
endsolid OpenSCAD_Model
