solid OpenSCAD_Model
  facet normal 0 0 -1
    outer loop
      vertex 1 30.7229 0
      vertex 30.7229 1 0
      vertex 1 1 0
    endloop
  endfacet
  facet normal 0.707107 0.707107 0
    outer loop
      vertex 33.1371 0 6
      vertex 33.1371 0 2
      vertex 0 33.1371 6
    endloop
  endfacet
  facet normal -0.894427 0 0.447214
    outer loop
      vertex 0 33.1371 6
      vertex 0 0 6
      vertex 1 30.7229 8
    endloop
  endfacet
  facet normal 0 0 1
    outer loop
      vertex 1 30.7229 8
      vertex 1 1 8
      vertex 30.7229 1 8
    endloop
  endfacet
  facet normal 0.632457 0.632457 0.44721
    outer loop
      vertex 33.1371 0 6
      vertex 0 33.1371 6
      vertex 30.7229 1 8
    endloop
  endfacet
  facet normal -1 0 0
    outer loop
      vertex 0 33.1371 2
      vertex 0 0 6
      vertex 0 33.1371 6
    endloop
  endfacet
  facet normal -0 -0.894427 -0.447214
    outer loop
      vertex 30.7229 1 0
      vertex 33.1371 0 2
      vertex 1 1 0
    endloop
  endfacet
  facet normal 0 -1 0
    outer loop
      vertex 33.1371 0 2
      vertex 0 0 6
      vertex 0 0 2
    endloop
  endfacet
  facet normal 0.707107 0.707107 0
    outer loop
      vertex 0 33.1371 6
      vertex 33.1371 0 2
      vertex 0 33.1371 2
    endloop
  endfacet
  facet normal 0.632457 0.632457 -0.44721
    outer loop
      vertex 1 30.7229 0
      vertex 33.1371 0 2
      vertex 30.7229 1 0
    endloop
  endfacet
  facet normal -0.894427 0 -0.447214
    outer loop
      vertex 1 30.7229 0
      vertex 0 0 2
      vertex 0 33.1371 2
    endloop
  endfacet
  facet normal -0.894427 0 -0.447214
    outer loop
      vertex 1 1 0
      vertex 0 0 2
      vertex 1 30.7229 0
    endloop
  endfacet
  facet normal 0 -0.894427 0.447214
    outer loop
      vertex 1 1 8
      vertex 0 0 6
      vertex 30.7229 1 8
    endloop
  endfacet
  facet normal 0.632457 0.632457 -0.44721
    outer loop
      vertex 0 33.1371 2
      vertex 33.1371 0 2
      vertex 1 30.7229 0
    endloop
  endfacet
  facet normal -1 0 0
    outer loop
      vertex 0 0 2
      vertex 0 0 6
      vertex 0 33.1371 2
    endloop
  endfacet
  facet normal 0.632457 0.632457 0.44721
    outer loop
      vertex 30.7229 1 8
      vertex 0 33.1371 6
      vertex 1 30.7229 8
    endloop
  endfacet
  facet normal -0.894427 0 0.447214
    outer loop
      vertex 1 30.7229 8
      vertex 0 0 6
      vertex 1 1 8
    endloop
  endfacet
  facet normal 0 -0.894427 -0.447214
    outer loop
      vertex 1 1 0
      vertex 33.1371 0 2
      vertex 0 0 2
    endloop
  endfacet
  facet normal -0 -1 -0
    outer loop
      vertex 33.1371 0 6
      vertex 0 0 6
      vertex 33.1371 0 2
    endloop
  endfacet
  facet normal 0 -0.894427 0.447214
    outer loop
      vertex 30.7229 1 8
      vertex 0 0 6
      vertex 33.1371 0 6
    endloop
  endfacet
endsolid OpenSCAD_Model
