<?xml version="1.0" encoding="UTF-8" standalone="no"?>
<!-- Created with Inkscape (http://www.inkscape.org/) -->

<svg
   xmlns:dc="http://purl.org/dc/elements/1.1/"
   xmlns:cc="http://creativecommons.org/ns#"
   xmlns:rdf="http://www.w3.org/1999/02/22-rdf-syntax-ns#"
   xmlns:svg="http://www.w3.org/2000/svg"
   xmlns="http://www.w3.org/2000/svg"
   xmlns:sodipodi="http://sodipodi.sourceforge.net/DTD/sodipodi-0.dtd"
   xmlns:inkscape="http://www.inkscape.org/namespaces/inkscape"
   width="34.999996mm"
   height="35mm"
   id="svg2"
   version="1.1"
   inkscape:version="0.91 r13725"
   sodipodi:docname="apex_triggers_whole.svg">
  <defs
     id="defs4" />
  <sodipodi:namedview
     id="base"
     pagecolor="#ffffff"
     bordercolor="#666666"
     borderopacity="1.0"
     inkscape:pageopacity="0.0"
     inkscape:pageshadow="2"
     inkscape:zoom="6.3861237"
     inkscape:cx="91.662019"
     inkscape:cy="44.214765"
     inkscape:document-units="px"
     inkscape:current-layer="layer1"
     showgrid="false"
     inkscape:snap-object-midpoints="true"
     fit-margin-top="0"
     fit-margin-left="0"
     fit-margin-right="0"
     fit-margin-bottom="0"
     inkscape:window-width="1920"
     inkscape:window-height="1059"
     inkscape:window-x="0"
     inkscape:window-y="0"
     inkscape:window-maximized="1"
     units="mm"
     inkscape:snap-smooth-nodes="true"
     inkscape:object-nodes="true"
     inkscape:object-paths="true"
     inkscape:snap-nodes="true"
     inkscape:snap-midpoints="true"
     inkscape:snap-intersection-paths="true"
     inkscape:snap-global="false" />
  <metadata
     id="metadata7">
    <rdf:RDF>
      <cc:Work
         rdf:about="">
        <dc:format>image/svg+xml</dc:format>
        <dc:type
           rdf:resource="http://purl.org/dc/dcmitype/StillImage" />
        <dc:title />
      </cc:Work>
    </rdf:RDF>
  </metadata>
  <g
     inkscape:label="Layer 1"
     inkscape:groupmode="layer"
     id="layer1"
     transform="translate(-272.04724,-502.17925)">
    <path
       style="color:#000000;display:inline;overflow:visible;visibility:visible;fill:#b3b3b3;fill-opacity:1;fill-rule:nonzero;stroke:none;stroke-width:10;marker:none;enable-background:accumulate;opacity:1"
       d="M 62.007812 1.984375 C 28.862183 1.984375 2 28.877817 2 62.023438 C 2 95.169058 28.862183 122.03125 62.007812 122.03125 C 95.153453 122.03125 122.01562 95.169058 122.01562 62.023438 C 122.01562 28.877817 95.153453 1.984375 62.007812 1.984375 z M 62.007812 34.257812 A 27.75 27.75 0 0 1 89.757812 62.007812 A 27.75 27.75 0 0 1 62.007812 89.757812 A 27.75 27.75 0 0 1 34.257812 62.007812 A 27.75 27.75 0 0 1 62.007812 34.257812 z "
       transform="translate(272.04724,502.17925)"
       id="path3433-9" />
    <path
       style="color:#000000;display:inline;overflow:visible;visibility:visible;opacity:1;fill:#000000;fill-opacity:1;fill-rule:nonzero;stroke:none;stroke-width:10;marker:none;enable-background:accumulate"
       d="M 62.007812 -0.013671875 C 27.760612 -0.013671875 0 27.746941 0 61.994141 C 0 96.241331 27.760612 124.00195 62.007812 124.00195 C 96.255015 124.00195 124.01565 96.241331 124.01562 61.994141 C 124.01562 27.746941 96.255013 -0.013671875 62.007812 -0.013671875 z M 75.972656 8.921875 L 88.328125 13.898438 L 88.021484 26.765625 C 91.225804 29.137105 94.095685 31.92208 96.546875 35.0625 L 109.41406 34.373047 L 114.62109 46.626953 L 105.33008 55.484375 C 105.64761 57.612735 105.81445 59.802771 105.81445 62.019531 C 105.81445 63.814171 105.69197 65.566558 105.48242 67.304688 L 115.10547 75.90625 L 110.12891 88.261719 L 97.287109 87.982422 C 94.878489 91.251582 92.01862 94.174519 88.8125 96.662109 L 89.451172 109.55273 L 77.171875 114.70898 L 68.337891 105.36719 C 66.257121 105.67027 64.147252 105.85156 61.982422 105.85156 C 60.117442 105.85156 58.27246 105.72018 56.46875 105.49414 L 47.789062 115.06641 L 35.458984 110.03711 L 35.816406 97.197266 C 32.619336 94.816746 29.756653 91.997239 27.314453 88.849609 L 14.423828 89.488281 L 9.2675781 77.234375 L 18.609375 68.402344 C 18.303915 66.313634 18.125 64.193021 18.125 62.019531 C 18.125 60.154551 18.256372 58.309559 18.482422 56.505859 L 8.9101562 47.826172 L 13.964844 35.521484 L 26.779297 35.878906 C 29.162477 32.675126 31.973863 29.823393 35.126953 27.376953 L 34.488281 14.486328 L 46.767578 9.3300781 L 55.574219 18.646484 C 57.662929 18.341024 59.808932 18.1875 61.982422 18.1875 C 63.803022 18.1875 65.58139 18.27861 67.34375 18.494141 L 75.972656 8.921875 z M 62.007812 33.197266 C 46.104242 33.197266 33.212891 46.090561 33.212891 61.994141 C 33.212891 77.897711 46.104242 90.789062 62.007812 90.789062 C 77.911383 90.789062 90.802734 77.897711 90.802734 61.994141 C 90.802734 46.090561 77.911389 33.197266 62.007812 33.197266 z M 63.556641 39.421875 L 63.556641 43.691406 C 71.322363 44.182572 78.174377 49.313076 80.703125 56.833984 C 83.493235 65.132224 80.348028 74.309564 73.054688 79.152344 C 65.761337 83.995124 56.084951 83.330493 49.519531 77.539062 C 45.416131 73.919422 43.148953 68.846296 42.976562 63.634766 C 42.873123 60.507846 43.525778 57.330875 44.986328 54.390625 A 3.0003 3.0003 0 1 1 50.357422 57.060547 C 47.657822 62.495067 48.937651 69.026856 53.488281 73.041016 C 58.038931 77.055176 64.681148 77.508974 69.736328 74.152344 C 74.791498 70.795704 76.947552 64.497774 75.013672 58.746094 C 73.301336 53.65334 68.775209 50.165779 63.556641 49.695312 L 63.556641 53.484375 L 50.158203 46.619141 L 63.556641 39.421875 z "
       transform="translate(272.04724,502.17925)"
       id="path3195" />
  </g>
</svg>
