<?xml version="1.0" encoding="UTF-8" standalone="no"?>
<!-- Created with Inkscape (http://www.inkscape.org/) -->

<svg
   xmlns:dc="http://purl.org/dc/elements/1.1/"
   xmlns:cc="http://creativecommons.org/ns#"
   xmlns:rdf="http://www.w3.org/1999/02/22-rdf-syntax-ns#"
   xmlns:svg="http://www.w3.org/2000/svg"
   xmlns="http://www.w3.org/2000/svg"
   xmlns:sodipodi="http://sodipodi.sourceforge.net/DTD/sodipodi-0.dtd"
   xmlns:inkscape="http://www.inkscape.org/namespaces/inkscape"
   width="124.01575"
   height="124.01575"
   id="svg3565"
   version="1.1"
   inkscape:version="0.91 r13725"
   sodipodi:docname="zargcon_after_dark.svg">
  <defs
     id="defs3567" />
  <sodipodi:namedview
     id="base"
     pagecolor="#ffffff"
     bordercolor="#666666"
     borderopacity="1.0"
     inkscape:pageopacity="0.0"
     inkscape:pageshadow="2"
     inkscape:zoom="3.959798"
     inkscape:cx="76.062391"
     inkscape:cy="59.858181"
     inkscape:document-units="px"
     inkscape:current-layer="layer1"
     showgrid="false"
     units="mm"
     inkscape:window-width="1920"
     inkscape:window-height="1059"
     inkscape:window-x="0"
     inkscape:window-y="0"
     inkscape:window-maximized="1" />
  <metadata
     id="metadata3570">
    <rdf:RDF>
      <cc:Work
         rdf:about="">
        <dc:format>image/svg+xml</dc:format>
        <dc:type
           rdf:resource="http://purl.org/dc/dcmitype/StillImage" />
        <dc:title />
      </cc:Work>
    </rdf:RDF>
  </metadata>
  <g
     inkscape:label="Layer 1"
     inkscape:groupmode="layer"
     id="layer1"
     transform="translate(0,-928.34644)">
    <path
       style="color:#000000;display:inline;overflow:visible;visibility:visible;fill:#cccccc;fill-opacity:1;fill-rule:nonzero;stroke:none;stroke-width:10;marker:none;enable-background:accumulate;opacity:1"
       d="M 62 2.015625 C 28.874134 2.015625 2.015625 28.87413 2.015625 62 C 2.015625 95.12586 28.874134 121.98435 62 121.98438 C 95.125866 121.98438 121.98435 95.12586 121.98438 62 C 121.98438 28.87413 95.125866 2.015625 62 2.015625 z M 62.007812 8.3027344 A 7.0866141 7.0866141 0 0 1 69.09375 15.388672 A 7.0866141 7.0866141 0 0 1 62.007812 22.474609 A 7.0866141 7.0866141 0 0 1 54.921875 15.388672 A 7.0866141 7.0866141 0 0 1 62.007812 8.3027344 z M 45.597656 29.017578 L 81.039062 29.017578 C 85.027515 29.017578 87.191406 31.296247 87.191406 34.373047 C 87.191406 36.196347 86.622583 38.133199 85.710938 39.386719 L 55.96875 82.691406 L 74.65625 82.691406 L 74.65625 73.6875 C 74.65625 68.67344 76.708743 66.623047 81.039062 66.623047 C 85.027515 66.623047 86.964844 68.787506 86.964844 73.003906 L 86.964844 73.6875 L 86.28125 88.046875 C 86.053338 93.516775 86.052723 94.998047 79.785156 94.998047 L 42.976562 94.998047 C 39.102066 94.998047 36.824219 92.719378 36.824219 89.642578 C 36.824219 87.705378 37.506996 85.995687 38.304688 84.742188 L 68.275391 41.210938 L 51.068359 41.210938 L 50.726562 49.074219 C 50.498652 54.088269 48.903934 56.138672 44.345703 56.138672 C 40.357251 56.138672 38.419922 53.974182 38.419922 49.757812 L 38.419922 49.074219 L 38.988281 35.855469 C 39.216193 29.929769 39.444044 29.017578 45.597656 29.017578 z "
       transform="translate(0,928.34644)"
       id="path3658-5-8-2" />
    <path
       style="opacity:1;color:#000000;fill:#000000;fill-opacity:1;fill-rule:nonzero;stroke:none;stroke-width:10;marker:none;visibility:visible;display:inline;overflow:visible;enable-background:accumulate"
       d="M 62 0 C 27.753996 -9.4739031e-15 0 27.753996 0 62 C -9.4739031e-15 96.246004 27.753996 124.03125 62 124.03125 C 96.246004 124.03125 124.03125 96.246004 124.03125 62 C 124.03125 27.753996 96.246004 -1.8947806e-14 62 0 z M 62 3.53125 C 94.289088 3.53125 120.46875 29.710912 120.46875 62 C 120.46875 94.289088 94.289088 120.46875 62 120.46875 C 29.710912 120.46875 3.53125 94.289088 3.53125 62 C 3.53125 29.710912 29.710912 3.53125 62 3.53125 z M 45.597656 27.685547 L 45.597656 27.689453 C 44.026445 27.689453 42.796221 27.739952 41.740234 27.951172 C 40.684248 28.162362 39.738722 28.582837 39.074219 29.335938 C 37.745212 30.842148 37.774665 32.827458 37.660156 35.804688 L 37.662109 35.798828 L 37.089844 49.046875 L 37.089844 49.757812 C 37.089844 52.069493 37.626323 54.036337 38.908203 55.429688 C 40.190083 56.823038 42.111039 57.46875 44.345703 57.46875 C 46.824129 57.46875 48.847121 56.863901 50.160156 55.363281 C 51.473192 53.862671 51.932766 51.774076 52.052734 49.134766 L 52.052734 49.132812 L 52.341797 42.541016 L 65.748047 42.541016 L 37.197266 84.009766 L 37.183594 84.027344 C 36.2768 85.452344 35.494141 87.390725 35.494141 89.640625 C 35.494141 91.507125 36.220775 93.247531 37.556641 94.457031 C 38.892506 95.666531 40.778777 96.326172 42.976562 96.326172 L 79.785156 96.326172 C 81.404392 96.326172 82.666132 96.24015 83.738281 95.96875 C 84.81043 95.69695 85.737394 95.177613 86.349609 94.382812 C 87.572704 92.794913 87.494219 90.834675 87.607422 88.109375 L 87.607422 88.099609 L 88.292969 73.716797 L 88.292969 73.001953 C 88.292969 70.690233 87.756489 68.723418 86.474609 67.330078 C 85.19273 65.936728 83.273727 65.291016 81.039062 65.291016 C 78.664102 65.291016 76.621027 65.884841 75.248047 67.369141 C 73.875067 68.853441 73.328125 70.997287 73.328125 73.685547 L 73.328125 81.359375 L 58.492188 81.359375 L 86.785156 40.166016 C 87.924924 38.598836 88.521484 36.471214 88.521484 34.371094 C 88.521484 32.521014 87.836504 30.778237 86.509766 29.560547 C 85.183027 28.342847 83.286383 27.685547 81.039062 27.685547 L 45.597656 27.685547 z M 45.597656 30.339844 L 45.597656 30.347656 L 81.039062 30.347656 C 82.780196 30.347656 83.959936 30.830414 84.712891 31.521484 C 85.465845 32.212554 85.863281 33.14828 85.863281 34.375 C 85.863281 35.92147 85.320243 37.667582 84.636719 38.607422 L 84.625 38.621094 L 53.443359 84.019531 L 75.986328 84.019531 L 75.986328 73.689453 C 75.986328 71.363573 76.464017 69.972544 77.199219 69.177734 C 77.93442 68.382924 79.083704 67.953125 81.039062 67.953125 C 82.792851 67.953125 83.835674 68.389482 84.519531 69.132812 C 85.203389 69.876133 85.634766 71.101139 85.634766 73.005859 L 85.634766 73.658203 L 84.953125 87.988281 C 84.838962 90.728181 84.64358 92.241166 84.244141 92.759766 C 84.044421 93.019066 83.783664 93.213725 83.085938 93.390625 C 82.38821 93.567525 81.299704 93.666016 79.785156 93.666016 L 42.976562 93.666016 C 41.299853 93.666016 40.11216 93.185628 39.339844 92.486328 C 38.567528 91.787128 38.152344 90.848972 38.152344 89.638672 C 38.152344 88.017472 38.73516 86.542438 39.421875 85.460938 C 39.423275 85.460938 39.424381 85.449219 39.425781 85.449219 L 70.802734 39.876953 L 49.794922 39.876953 L 49.740234 41.148438 L 49.398438 49.011719 C 49.290113 51.383669 48.840896 52.829442 48.160156 53.607422 C 47.478966 54.385932 46.425507 54.804688 44.345703 54.804688 C 42.591916 54.804688 41.547139 54.36833 40.863281 53.625 C 40.179424 52.88168 39.748047 51.656633 39.748047 49.751953 L 39.748047 49.097656 L 40.316406 35.904297 L 40.316406 35.898438 C 40.429809 32.949978 40.68803 31.516978 41.068359 31.085938 C 41.258524 30.870418 41.537146 30.693748 42.261719 30.548828 C 42.986291 30.403918 44.092062 30.339844 45.597656 30.339844 z "
       transform="translate(0,928.34644)"
       id="path3658" />
    <g
       style="font-style:normal;font-variant:normal;font-weight:500;font-stretch:normal;font-size:18px;line-height:100%;font-family:BorisBlackBloxx;-inkscape-font-specification:'BorisBlackBloxx, Medium';text-align:end;letter-spacing:0px;word-spacing:0px;writing-mode:lr-tb;text-anchor:end;fill:#4d4d4d;fill-opacity:1;stroke:none;stroke-width:1px;stroke-linecap:butt;stroke-linejoin:miter;stroke-opacity:1"
       id="text4199" />
    <path
       style="font-style:normal;font-variant:normal;font-weight:500;font-stretch:normal;font-size:medium;line-height:100%;font-family:BorisBlackBloxx;-inkscape-font-specification:'BorisBlackBloxx, Medium';text-align:end;letter-spacing:0px;word-spacing:0px;writing-mode:lr-tb;text-anchor:end;fill:#4d4d4d;fill-opacity:1;stroke:none;stroke-width:1px;stroke-linecap:butt;stroke-linejoin:miter;stroke-opacity:1"
       d="M 32.166016 56.882812 C 29.223078 56.882812 27.101573 57.721457 25.802734 59.398438 C 24.536778 61.009658 23.90625 63.509644 23.90625 66.896484 C 23.90625 68.589904 24.062621 70.059084 24.375 71.308594 C 24.70382 72.541664 25.177977 73.561587 25.802734 74.367188 C 27.118014 76.044188 29.239519 76.882812 32.166016 76.882812 C 35.125395 76.882812 37.2469 76.044188 38.529297 74.367188 L 38.529297 74.390625 C 39.795254 72.779425 40.429687 70.283334 40.429688 66.896484 C 40.429688 63.493194 39.795254 60.993207 38.529297 59.398438 L 38.529297 59.421875 C 37.230459 57.728455 35.108954 56.882812 32.166016 56.882812 z M 103.16992 56.882812 C 102.98591 56.882812 102.81658 56.950184 102.66602 57.083984 C 102.51545 57.217824 102.43275 57.376527 102.41602 57.560547 L 101.51562 65.841797 C 101.49892 65.975627 101.52968 66.118961 101.61328 66.269531 C 101.69698 66.403361 101.79892 66.512053 101.91602 66.595703 L 105.12891 68.626953 C 105.19581 68.677153 105.29389 68.709812 105.42773 68.726562 C 105.5783 68.743263 105.69565 68.736625 105.7793 68.703125 C 106.44849 68.452175 107.25258 68.324219 108.18945 68.324219 C 108.87537 68.324219 109.4255 68.476204 109.84375 68.777344 C 110.26199 69.078464 110.47266 69.473834 110.47266 69.958984 C 110.47266 70.494334 110.21393 70.909797 109.69531 71.210938 C 109.19342 71.512078 108.53936 71.662109 107.73633 71.662109 C 107.15079 71.662109 106.58138 71.620789 106.0293 71.537109 C 105.47722 71.436729 104.91842 71.278037 104.34961 71.060547 C 103.79753 70.843067 103.35608 70.677657 103.02148 70.560547 C 102.70362 70.426707 102.49967 70.342054 102.41602 70.308594 C 102.21527 70.174754 102.00655 70.148732 101.78906 70.232422 C 101.58831 70.299322 101.44693 70.451327 101.36328 70.685547 L 99.982422 74.375 C 99.915522 74.559 99.915522 74.748519 99.982422 74.949219 C 100.06612 75.133219 100.20074 75.267962 100.38477 75.351562 C 100.63572 75.485362 100.99446 75.637388 101.46289 75.804688 C 101.94805 75.971987 102.54149 76.146078 103.24414 76.330078 C 104.59925 76.698178 106.19879 76.882812 108.03906 76.882812 C 110.84966 76.882812 113.01665 76.330763 114.53906 75.226562 C 116.0782 74.122462 116.84766 72.457452 116.84766 70.232422 C 116.84766 69.128262 116.65431 68.158746 116.26953 67.322266 C 115.90147 66.469056 115.35805 65.749603 114.63867 65.164062 C 113.93602 64.578522 113.07325 64.135114 112.05273 63.833984 C 111.03222 63.532844 109.87803 63.382812 108.58984 63.382812 C 108.22179 63.382812 107.84573 63.398141 107.46094 63.431641 C 107.09289 63.448341 106.7428 63.500294 106.4082 63.583984 L 106.60742 61.976562 L 115.11523 61.976562 C 115.31599 61.976562 115.49005 61.902553 115.64062 61.751953 C 115.7912 61.601383 115.86719 61.423416 115.86719 61.222656 L 115.86719 57.634766 C 115.86719 57.434006 115.7845 57.259945 115.61719 57.109375 C 115.46662 56.958815 115.28865 56.882812 115.08789 56.882812 L 103.16992 56.882812 z M 15.552734 56.90625 C 13.99084 56.90625 12.459021 57.211992 10.962891 57.820312 C 10.223046 58.132692 9.6135078 58.420534 9.1367188 58.683594 C 8.6599297 58.930214 8.308299 59.168257 8.078125 59.398438 C 8.028805 59.431338 7.9809676 59.513011 7.9316406 59.644531 C 7.8823206 59.759621 7.8554687 59.859206 7.8554688 59.941406 L 7.8554688 64.503906 C 7.8554688 64.684756 7.9052593 64.841126 8.0039062 64.972656 C 8.1025562 65.087736 8.2200345 65.16943 8.3515625 65.21875 C 8.4830905 65.26805 8.6196091 65.275088 8.7675781 65.242188 C 8.9319881 65.192887 9.0654165 65.095236 9.1640625 64.947266 C 9.5422055 64.454036 10.24742 63.853454 11.283203 63.146484 C 12.269663 62.472404 13.24873 62.134766 14.21875 62.134766 C 14.810625 62.134766 15.270789 62.284138 15.599609 62.580078 C 15.94487 62.876008 16.119141 63.288343 16.119141 63.814453 C 16.119141 64.241923 15.95382 64.668243 15.625 65.095703 C 15.148211 65.720463 14.71994 66.221469 14.341797 66.599609 L 14.367188 66.599609 L 7.4863281 72.986328 C 7.4370081 73.035328 7.378264 73.126212 7.3125 73.257812 C 7.26318 73.372813 7.2402344 73.463497 7.2402344 73.529297 L 7.2402344 75.847656 C 7.2402344 76.044956 7.3149176 76.219187 7.4628906 76.367188 C 7.6108596 76.515188 7.7812236 76.587891 7.9785156 76.587891 L 22.085938 76.587891 C 22.28323 76.587891 22.455547 76.515287 22.603516 76.367188 C 22.751485 76.219187 22.824219 76.044956 22.824219 75.847656 L 22.824219 71.876953 C 22.824219 71.663153 22.75148 71.483907 22.603516 71.335938 C 22.455547 71.187968 22.28323 71.113281 22.085938 71.113281 L 17.03125 71.113281 C 17.212101 70.932431 17.391415 70.75816 17.572266 70.59375 C 17.769558 70.4129 17.966771 70.217636 18.164062 70.003906 L 18.164062 70.027344 C 18.492881 69.698524 18.880312 69.286199 19.324219 68.792969 C 19.784566 68.283299 20.301518 67.686614 20.876953 66.996094 C 22.077145 65.565724 22.677734 64.044814 22.677734 62.433594 C 22.677734 60.674404 21.988466 59.29896 20.607422 58.3125 C 19.341466 57.37537 17.657181 56.90625 15.552734 56.90625 z M 94.347656 56.90625 C 93.962872 57.29103 93.604126 57.627709 93.269531 57.912109 C 92.951667 58.179789 92.64964 58.379832 92.365234 58.513672 C 92.047369 58.664242 91.655933 58.814274 91.1875 58.964844 C 90.735797 59.098684 90.199078 59.231404 89.580078 59.365234 C 89.42951 59.398734 89.294842 59.485301 89.177734 59.619141 C 89.060626 59.752971 89.003906 59.911673 89.003906 60.095703 L 89.003906 64.035156 C 89.003906 64.302826 89.093318 64.5202 89.277344 64.6875 C 89.461371 64.83807 89.672033 64.870759 89.90625 64.787109 C 90.475061 64.619809 90.992502 64.443786 91.460938 64.259766 C 91.946099 64.075736 92.432806 63.841041 92.917969 63.556641 L 92.917969 75.828125 C 92.917969 76.028825 92.983351 76.206822 93.117188 76.357422 C 93.267754 76.508022 93.437066 76.583984 93.621094 76.583984 L 98.138672 76.583984 C 98.339432 76.583984 98.504832 76.508422 98.638672 76.357422 C 98.772512 76.206822 98.841797 76.028825 98.841797 75.828125 L 98.841797 57.662109 C 98.841797 57.461349 98.772472 57.283382 98.638672 57.132812 C 98.504832 56.982242 98.339432 56.90625 98.138672 56.90625 L 94.347656 56.90625 z M 32.166016 62.134766 C 33.086711 62.134766 33.621562 62.358824 33.769531 62.802734 C 33.999705 63.542574 34.115234 64.907124 34.115234 66.896484 C 34.115234 68.902284 33.999705 70.264871 33.769531 70.988281 C 33.621562 71.432181 33.086711 71.654297 32.166016 71.654297 C 31.24532 71.654297 30.712422 71.432181 30.564453 70.988281 C 30.465803 70.643021 30.384121 70.126067 30.318359 69.435547 C 30.269039 68.745027 30.242188 67.899384 30.242188 66.896484 C 30.242188 64.857804 30.35072 63.493254 30.564453 62.802734 C 30.67954 62.358824 31.212438 62.134766 32.166016 62.134766 z "
       transform="translate(0,928.34644)"
       id="path4224" />
  </g>
</svg>
