<?xml version="1.0" encoding="UTF-8" standalone="no"?>
<svg
   xmlns:dc="http://purl.org/dc/elements/1.1/"
   xmlns:cc="http://creativecommons.org/ns#"
   xmlns:rdf="http://www.w3.org/1999/02/22-rdf-syntax-ns#"
   xmlns:svg="http://www.w3.org/2000/svg"
   xmlns="http://www.w3.org/2000/svg"
   version="1.1"
   id="svg3565"
   height="124.01575"
   width="124.01575">
  <defs
     id="defs3567" />
  <metadata
     id="metadata3570">
    <rdf:RDF>
      <cc:Work
         rdf:about="">
        <dc:format>image/svg+xml</dc:format>
        <dc:type
           rdf:resource="http://purl.org/dc/dcmitype/StillImage" />
        <dc:title></dc:title>
      </cc:Work>
    </rdf:RDF>
  </metadata>
  <g
     transform="translate(0,-928.34644)"
     id="layer1">
    <path
       id="path3658"
       transform="translate(0,928.34644)"
       d="M 62 0 C 27.753996 -9.4739031e-15 0 27.753996 0 62 C -9.4739031e-15 96.246004 27.753996 124.03125 62 124.03125 C 96.246004 124.03125 124.03125 96.246004 124.03125 62 C 124.03125 27.753996 96.246004 -1.8947806e-14 62 0 z M 62 3.53125 C 94.289088 3.53125 120.46875 29.710912 120.46875 62 C 120.46875 94.289088 94.289088 120.46875 62 120.46875 C 29.710912 120.46875 3.53125 94.289088 3.53125 62 C 3.53125 29.710912 29.710912 3.53125 62 3.53125 z M 45.597656 27.685547 L 45.597656 27.689453 C 44.026445 27.689453 42.796221 27.739952 41.740234 27.951172 C 40.684248 28.162362 39.738722 28.582837 39.074219 29.335938 C 37.745212 30.842148 37.774665 32.827458 37.660156 35.804688 L 37.662109 35.798828 L 37.089844 49.046875 L 37.089844 49.757812 C 37.089844 52.069493 37.626323 54.036337 38.908203 55.429688 C 40.190083 56.823038 42.111039 57.46875 44.345703 57.46875 C 46.824129 57.46875 48.847121 56.863901 50.160156 55.363281 C 51.473192 53.862671 51.932766 51.774076 52.052734 49.134766 L 52.052734 49.132812 L 52.341797 42.541016 L 65.748047 42.541016 L 37.197266 84.009766 L 37.183594 84.027344 C 36.2768 85.452344 35.494141 87.390725 35.494141 89.640625 C 35.494141 91.507125 36.220775 93.247531 37.556641 94.457031 C 38.892506 95.666531 40.778777 96.326172 42.976562 96.326172 L 79.785156 96.326172 C 81.404392 96.326172 82.666132 96.24015 83.738281 95.96875 C 84.81043 95.69695 85.737394 95.177613 86.349609 94.382812 C 87.572704 92.794913 87.494219 90.834675 87.607422 88.109375 L 87.607422 88.099609 L 88.292969 73.716797 L 88.292969 73.001953 C 88.292969 70.690233 87.756489 68.723418 86.474609 67.330078 C 85.19273 65.936728 83.273727 65.291016 81.039062 65.291016 C 78.664102 65.291016 76.621027 65.884841 75.248047 67.369141 C 73.875067 68.853441 73.328125 70.997287 73.328125 73.685547 L 73.328125 81.359375 L 58.492188 81.359375 L 86.785156 40.166016 C 87.924924 38.598836 88.521484 36.471214 88.521484 34.371094 C 88.521484 32.521014 87.836504 30.778237 86.509766 29.560547 C 85.183027 28.342847 83.286383 27.685547 81.039062 27.685547 L 45.597656 27.685547 z M 45.597656 30.339844 L 45.597656 30.347656 L 81.039062 30.347656 C 82.780196 30.347656 83.959936 30.830414 84.712891 31.521484 C 85.465845 32.212554 85.863281 33.14828 85.863281 34.375 C 85.863281 35.92147 85.320243 37.667582 84.636719 38.607422 L 84.625 38.621094 L 53.443359 84.019531 L 75.986328 84.019531 L 75.986328 73.689453 C 75.986328 71.363573 76.464017 69.972544 77.199219 69.177734 C 77.93442 68.382924 79.083704 67.953125 81.039062 67.953125 C 82.792851 67.953125 83.835674 68.389482 84.519531 69.132812 C 85.203389 69.876133 85.634766 71.101139 85.634766 73.005859 L 85.634766 73.658203 L 84.953125 87.988281 C 84.838962 90.728181 84.64358 92.241166 84.244141 92.759766 C 84.044421 93.019066 83.783664 93.213725 83.085938 93.390625 C 82.38821 93.567525 81.299704 93.666016 79.785156 93.666016 L 42.976562 93.666016 C 41.299853 93.666016 40.11216 93.185628 39.339844 92.486328 C 38.567528 91.787128 38.152344 90.848972 38.152344 89.638672 C 38.152344 88.017472 38.73516 86.542438 39.421875 85.460938 C 39.423275 85.460938 39.424381 85.449219 39.425781 85.449219 L 70.802734 39.876953 L 49.794922 39.876953 L 49.740234 41.148438 L 49.398438 49.011719 C 49.290113 51.383669 48.840896 52.829442 48.160156 53.607422 C 47.478966 54.385932 46.425507 54.804688 44.345703 54.804688 C 42.591916 54.804688 41.547139 54.36833 40.863281 53.625 C 40.179424 52.88168 39.748047 51.656633 39.748047 49.751953 L 39.748047 49.097656 L 40.316406 35.904297 L 40.316406 35.898438 C 40.429809 32.949978 40.68803 31.516978 41.068359 31.085938 C 41.258524 30.870418 41.537146 30.693748 42.261719 30.548828 C 42.986291 30.403918 44.092062 30.339844 45.597656 30.339844 z "
       style="opacity:1;color:#000000;fill:#000000;fill-opacity:1;fill-rule:nonzero;stroke:none;stroke-width:10;marker:none;visibility:visible;display:inline;overflow:visible;enable-background:accumulate" />
    <g
       id="text4199"
       style="font-style:normal;font-variant:normal;font-weight:500;font-stretch:normal;font-size:18px;line-height:100%;font-family:BorisBlackBloxx;-inkscape-font-specification:'BorisBlackBloxx, Medium';text-align:end;letter-spacing:0px;word-spacing:0px;writing-mode:lr-tb;text-anchor:end;fill:#4d4d4d;fill-opacity:1;stroke:none;stroke-width:1px;stroke-linecap:butt;stroke-linejoin:miter;stroke-opacity:1" />
  </g>
</svg>
