<?xml version="1.0" encoding="UTF-8" standalone="no"?>
<svg
   xmlns:dc="http://purl.org/dc/elements/1.1/"
   xmlns:cc="http://creativecommons.org/ns#"
   xmlns:rdf="http://www.w3.org/1999/02/22-rdf-syntax-ns#"
   xmlns:svg="http://www.w3.org/2000/svg"
   xmlns="http://www.w3.org/2000/svg"
   version="1.1"
   id="svg3565"
   height="124.01575"
   width="124.01575">
  <defs
     id="defs3567" />
  <metadata
     id="metadata3570">
    <rdf:RDF>
      <cc:Work
         rdf:about="">
        <dc:format>image/svg+xml</dc:format>
        <dc:type
           rdf:resource="http://purl.org/dc/dcmitype/StillImage" />
        <dc:title></dc:title>
      </cc:Work>
    </rdf:RDF>
  </metadata>
  <g
     transform="translate(0,-928.34644)"
     id="layer1">
    <g
       id="text4199"
       style="font-style:normal;font-variant:normal;font-weight:500;font-stretch:normal;font-size:18px;line-height:100%;font-family:BorisBlackBloxx;-inkscape-font-specification:'BorisBlackBloxx, Medium';text-align:end;letter-spacing:0px;word-spacing:0px;writing-mode:lr-tb;text-anchor:end;fill:#4d4d4d;fill-opacity:1;stroke:none;stroke-width:1px;stroke-linecap:butt;stroke-linejoin:miter;stroke-opacity:1" />
    <g
       id="text4199-0"
       style="font-style:normal;font-variant:normal;font-weight:500;font-stretch:normal;font-size:18px;line-height:100%;font-family:BorisBlackBloxx;-inkscape-font-specification:'BorisBlackBloxx, Medium';text-align:end;letter-spacing:0px;word-spacing:0px;writing-mode:lr-tb;text-anchor:end;fill:#4d4d4d;fill-opacity:1;stroke:none;stroke-width:1px;stroke-linecap:butt;stroke-linejoin:miter;stroke-opacity:1">
      <path
         d="m 112.06073,983.84732 q 0,-0.216 -0.18,-0.378 -0.162,-0.162 -0.378,-0.162 l -8.55,0 q -0.198,0 -0.36,0.144 -0.162,0.144 -0.18,0.342 l -0.648,5.94 q -0.018,0.144 0.072,0.306 0.09,0.144 0.216,0.234 l 2.304,1.458 q 0.072,0.054 0.216,0.072 0.162,0.018 0.252,-0.018 0.72,-0.27 1.728,-0.27 0.738,0 1.188,0.324 0.45,0.324 0.45,0.846 0,0.576 -0.558,0.9 -0.54,0.324 -1.404,0.324 -0.63,0 -1.224,-0.09 -0.594,-0.108 -1.206,-0.342 -0.594,-0.234 -0.954,-0.36 -0.342,-0.144 -0.432,-0.18 -0.216,-0.144 -0.45,-0.054 -0.216,0.072 -0.306,0.324 l -0.99,2.646 q -0.072,0.198 0,0.414 0.09,0.198 0.288,0.288 0.27,0.144 0.774,0.324 0.522,0.18 1.278,0.378 1.458,0.396 3.438,0.396 3.024,0 4.662,-1.188 1.656,-1.188 1.656,-3.582 0,-1.188 -0.414,-2.088 -0.396,-0.918 -1.17,-1.548 -0.756,-0.63 -1.854,-0.954 -1.098,-0.324 -2.484,-0.324 -0.396,0 -0.81,0.036 -0.396,0.018 -0.756,0.108 l 0.144,-1.152 6.102,0 q 0.216,0 0.378,-0.162 0.162,-0.162 0.162,-0.378 l 0,-2.574 z m -12.71784,13.59 q 0.216,0 0.36,-0.162 0.144,-0.162 0.144,-0.378 l 0,-13.032 q 0,-0.216 -0.144,-0.378 -0.144,-0.162 -0.36,-0.162 l -2.718,0 q -0.414,0.414 -0.774,0.72 -0.342,0.288 -0.648,0.432 -0.342,0.162 -0.846,0.324 -0.486,0.144 -1.152,0.288 -0.162,0.036 -0.288,0.18 -0.126,0.144 -0.126,0.342 l 0,2.826 q 0,0.288 0.198,0.468 0.198,0.162 0.45,0.072 0.612,-0.18 1.116,-0.378 0.522,-0.198 1.044,-0.504 l 0,8.802 q 0,0.216 0.144,0.378 0.162,0.162 0.36,0.162 l 3.24,0 z m -64.595817,-7.074 q 0,-3.726 -1.386,-5.472 l 0,0.018 q -1.422,-1.854 -4.644,-1.854 -3.222,0 -4.644,1.836 -1.386,1.764 -1.386,5.472 0,1.854 0.342,3.222 0.36,1.35 1.044,2.232 1.44,1.836 4.644,1.836 3.24,0 4.644,-1.836 l 0,0.018 q 1.386,-1.764 1.386,-5.472 z m -4.608,0 q 0,2.196 -0.252,2.988 -0.162,0.486 -1.17,0.486 -1.008,0 -1.17,-0.486 -0.108,-0.378 -0.18,-1.134 -0.054,-0.756 -0.054,-1.854 0,-2.232 0.234,-2.988 0.126,-0.486 1.17,-0.486 1.008,0 1.17,0.486 0.252,0.81 0.252,2.988 z m -19.616063,6.534 q 0,0.216 0.162,0.378 0.162,0.162 0.378,0.162 l 10.296,0 q 0.216,0 0.378,-0.162 0.162,-0.162 0.162,-0.378 l 0,-2.898 q 0,-0.234 -0.162,-0.396 -0.162,-0.162 -0.378,-0.162 l -3.69,0 q 0.198,-0.198 0.396,-0.378 0.216,-0.198 0.432,-0.432 l 0,0.018 q 0.36,-0.36 0.846,-0.9 0.504,-0.558 1.134,-1.314 1.314,-1.566 1.314,-3.33 0,-1.926 -1.512,-3.006 -1.386,-1.026 -3.69,-1.026 -1.71,0 -3.348,0.666 -0.81,0.342 -1.332,0.63 -0.522,0.27 -0.774,0.522 -0.054,0.036 -0.108,0.18 -0.054,0.126 -0.054,0.216 l 0,3.33 q 0,0.198 0.108,0.342 0.108,0.126 0.252,0.18 0.144,0.054 0.306,0.018 0.18,-0.054 0.288,-0.216 0.414,-0.54 1.548,-1.314 1.08,-0.738 2.142,-0.738 0.648,0 1.008,0.324 0.378,0.324 0.378,0.9 0,0.468 -0.36,0.936 -0.522,0.684 -0.936,1.098 l 0.018,0 -5.022,4.662 q -0.054,0.054 -0.126,0.198 -0.054,0.126 -0.054,0.198 l 0,1.692 z"
         style="fill:#4d4d4d"
         id="path4224" />
    </g>
  </g>
</svg>
