<?xml version="1.0" encoding="UTF-8" standalone="no"?>
<!-- Created with Inkscape (http://www.inkscape.org/) -->

<svg
   xmlns:dc="http://purl.org/dc/elements/1.1/"
   xmlns:cc="http://creativecommons.org/ns#"
   xmlns:rdf="http://www.w3.org/1999/02/22-rdf-syntax-ns#"
   xmlns:svg="http://www.w3.org/2000/svg"
   xmlns="http://www.w3.org/2000/svg"
   xmlns:sodipodi="http://sodipodi.sourceforge.net/DTD/sodipodi-0.dtd"
   xmlns:inkscape="http://www.inkscape.org/namespaces/inkscape"
   width="124.01575"
   height="124.01575"
   id="svg3565"
   version="1.1"
   inkscape:version="0.91 r13725"
   sodipodi:docname="zargcon_after_dark.svg">
  <defs
     id="defs3567" />
  <sodipodi:namedview
     id="base"
     pagecolor="#ffffff"
     bordercolor="#666666"
     borderopacity="1.0"
     inkscape:pageopacity="0.0"
     inkscape:pageshadow="2"
     inkscape:zoom="3.959798"
     inkscape:cx="76.062391"
     inkscape:cy="59.858181"
     inkscape:document-units="px"
     inkscape:current-layer="layer1"
     showgrid="false"
     units="mm"
     inkscape:window-width="1920"
     inkscape:window-height="1059"
     inkscape:window-x="0"
     inkscape:window-y="0"
     inkscape:window-maximized="1" />
  <metadata
     id="metadata3570">
    <rdf:RDF>
      <cc:Work
         rdf:about="">
        <dc:format>image/svg+xml</dc:format>
        <dc:type
           rdf:resource="http://purl.org/dc/dcmitype/StillImage" />
        <dc:title />
      </cc:Work>
    </rdf:RDF>
  </metadata>
  <g
     inkscape:label="Layer 1"
     inkscape:groupmode="layer"
     id="layer1"
     transform="translate(0,-928.34644)">
    <path
       style="color:#000000;display:inline;overflow:visible;visibility:visible;fill:#cccccc;fill-opacity:1;fill-rule:nonzero;stroke:none;stroke-width:10;marker:none;enable-background:accumulate;opacity:1"
       d="M 62 2.015625 C 28.874134 2.015625 2.015625 28.87413 2.015625 62 C 2.015625 95.12586 28.874134 121.98435 62 121.98438 C 95.125866 121.98438 121.98435 95.12586 121.98438 62 C 121.98438 28.87413 95.125866 2.015625 62 2.015625 z M 62.007812 8.3027344 A 7.0866141 7.0866141 0 0 1 69.09375 15.388672 A 7.0866141 7.0866141 0 0 1 62.007812 22.474609 A 7.0866141 7.0866141 0 0 1 54.921875 15.388672 A 7.0866141 7.0866141 0 0 1 62.007812 8.3027344 z M 45.597656 29.017578 L 81.039062 29.017578 C 85.027515 29.017578 87.191406 31.296247 87.191406 34.373047 C 87.191406 36.196347 86.622583 38.133199 85.710938 39.386719 L 55.96875 82.691406 L 74.65625 82.691406 L 74.65625 73.6875 C 74.65625 68.67344 76.708743 66.623047 81.039062 66.623047 C 85.027515 66.623047 86.964844 68.787506 86.964844 73.003906 L 86.964844 73.6875 L 86.28125 88.046875 C 86.053338 93.516775 86.052723 94.998047 79.785156 94.998047 L 42.976562 94.998047 C 39.102066 94.998047 36.824219 92.719378 36.824219 89.642578 C 36.824219 87.705378 37.506996 85.995687 38.304688 84.742188 L 68.275391 41.210938 L 51.068359 41.210938 L 50.726562 49.074219 C 50.498652 54.088269 48.903934 56.138672 44.345703 56.138672 C 40.357251 56.138672 38.419922 53.974182 38.419922 49.757812 L 38.419922 49.074219 L 38.988281 35.855469 C 39.216193 29.929769 39.444044 29.017578 45.597656 29.017578 z "
       transform="translate(0,928.34644)"
       id="path3658-5-8-2" />
    <path
       style="opacity:1;color:#000000;fill:#000000;fill-opacity:1;fill-rule:nonzero;stroke:none;stroke-width:10;marker:none;visibility:visible;display:inline;overflow:visible;enable-background:accumulate"
       d="M 62 0 C 27.753996 -9.4739031e-15 0 27.753996 0 62 C -9.4739031e-15 96.246004 27.753996 124.03125 62 124.03125 C 96.246004 124.03125 124.03125 96.246004 124.03125 62 C 124.03125 27.753996 96.246004 -1.8947806e-14 62 0 z M 62 3.53125 C 94.289088 3.53125 120.46875 29.710912 120.46875 62 C 120.46875 94.289088 94.289088 120.46875 62 120.46875 C 29.710912 120.46875 3.53125 94.289088 3.53125 62 C 3.53125 29.710912 29.710912 3.53125 62 3.53125 z M 45.597656 27.685547 L 45.597656 27.689453 C 44.026445 27.689453 42.796221 27.739952 41.740234 27.951172 C 40.684248 28.162362 39.738722 28.582837 39.074219 29.335938 C 37.745212 30.842148 37.774665 32.827458 37.660156 35.804688 L 37.662109 35.798828 L 37.089844 49.046875 L 37.089844 49.757812 C 37.089844 52.069493 37.626323 54.036337 38.908203 55.429688 C 40.190083 56.823038 42.111039 57.46875 44.345703 57.46875 C 46.824129 57.46875 48.847121 56.863901 50.160156 55.363281 C 51.473192 53.862671 51.932766 51.774076 52.052734 49.134766 L 52.052734 49.132812 L 52.341797 42.541016 L 65.748047 42.541016 L 37.197266 84.009766 L 37.183594 84.027344 C 36.2768 85.452344 35.494141 87.390725 35.494141 89.640625 C 35.494141 91.507125 36.220775 93.247531 37.556641 94.457031 C 38.892506 95.666531 40.778777 96.326172 42.976562 96.326172 L 79.785156 96.326172 C 81.404392 96.326172 82.666132 96.24015 83.738281 95.96875 C 84.81043 95.69695 85.737394 95.177613 86.349609 94.382812 C 87.572704 92.794913 87.494219 90.834675 87.607422 88.109375 L 87.607422 88.099609 L 88.292969 73.716797 L 88.292969 73.001953 C 88.292969 70.690233 87.756489 68.723418 86.474609 67.330078 C 85.19273 65.936728 83.273727 65.291016 81.039062 65.291016 C 78.664102 65.291016 76.621027 65.884841 75.248047 67.369141 C 73.875067 68.853441 73.328125 70.997287 73.328125 73.685547 L 73.328125 81.359375 L 58.492188 81.359375 L 86.785156 40.166016 C 87.924924 38.598836 88.521484 36.471214 88.521484 34.371094 C 88.521484 32.521014 87.836504 30.778237 86.509766 29.560547 C 85.183027 28.342847 83.286383 27.685547 81.039062 27.685547 L 45.597656 27.685547 z M 45.597656 30.339844 L 45.597656 30.347656 L 81.039062 30.347656 C 82.780196 30.347656 83.959936 30.830414 84.712891 31.521484 C 85.465845 32.212554 85.863281 33.14828 85.863281 34.375 C 85.863281 35.92147 85.320243 37.667582 84.636719 38.607422 L 84.625 38.621094 L 53.443359 84.019531 L 75.986328 84.019531 L 75.986328 73.689453 C 75.986328 71.363573 76.464017 69.972544 77.199219 69.177734 C 77.93442 68.382924 79.083704 67.953125 81.039062 67.953125 C 82.792851 67.953125 83.835674 68.389482 84.519531 69.132812 C 85.203389 69.876133 85.634766 71.101139 85.634766 73.005859 L 85.634766 73.658203 L 84.953125 87.988281 C 84.838962 90.728181 84.64358 92.241166 84.244141 92.759766 C 84.044421 93.019066 83.783664 93.213725 83.085938 93.390625 C 82.38821 93.567525 81.299704 93.666016 79.785156 93.666016 L 42.976562 93.666016 C 41.299853 93.666016 40.11216 93.185628 39.339844 92.486328 C 38.567528 91.787128 38.152344 90.848972 38.152344 89.638672 C 38.152344 88.017472 38.73516 86.542438 39.421875 85.460938 C 39.423275 85.460938 39.424381 85.449219 39.425781 85.449219 L 70.802734 39.876953 L 49.794922 39.876953 L 49.740234 41.148438 L 49.398438 49.011719 C 49.290113 51.383669 48.840896 52.829442 48.160156 53.607422 C 47.478966 54.385932 46.425507 54.804688 44.345703 54.804688 C 42.591916 54.804688 41.547139 54.36833 40.863281 53.625 C 40.179424 52.88168 39.748047 51.656633 39.748047 49.751953 L 39.748047 49.097656 L 40.316406 35.904297 L 40.316406 35.898438 C 40.429809 32.949978 40.68803 31.516978 41.068359 31.085938 C 41.258524 30.870418 41.537146 30.693748 42.261719 30.548828 C 42.986291 30.403918 44.092062 30.339844 45.597656 30.339844 z "
       transform="translate(0,928.34644)"
       id="path3658" />
    <g
       style="font-style:normal;font-variant:normal;font-weight:500;font-stretch:normal;font-size:18px;line-height:100%;font-family:BorisBlackBloxx;-inkscape-font-specification:'BorisBlackBloxx, Medium';text-align:end;letter-spacing:0px;word-spacing:0px;writing-mode:lr-tb;text-anchor:end;fill:#4d4d4d;fill-opacity:1;stroke:none;stroke-width:1px;stroke-linecap:butt;stroke-linejoin:miter;stroke-opacity:1"
       id="text4199" />
    <g
       style="font-style:normal;font-variant:normal;font-weight:500;font-stretch:normal;font-size:18px;line-height:100%;font-family:BorisBlackBloxx;-inkscape-font-specification:'BorisBlackBloxx, Medium';text-align:end;letter-spacing:0px;word-spacing:0px;writing-mode:lr-tb;text-anchor:end;fill:#4d4d4d;fill-opacity:1;stroke:none;stroke-width:1px;stroke-linecap:butt;stroke-linejoin:miter;stroke-opacity:1"
       id="text4199-0">
      <path
         id="path4224"
         style="fill:#4d4d4d"
         d="m 112.06073,983.84732 q 0,-0.216 -0.18,-0.378 -0.162,-0.162 -0.378,-0.162 l -8.55,0 q -0.198,0 -0.36,0.144 -0.162,0.144 -0.18,0.342 l -0.648,5.94 q -0.018,0.144 0.072,0.306 0.09,0.144 0.216,0.234 l 2.304,1.458 q 0.072,0.054 0.216,0.072 0.162,0.018 0.252,-0.018 0.72,-0.27 1.728,-0.27 0.738,0 1.188,0.324 0.45,0.324 0.45,0.846 0,0.576 -0.558,0.9 -0.54,0.324 -1.404,0.324 -0.63,0 -1.224,-0.09 -0.594,-0.108 -1.206,-0.342 -0.594,-0.234 -0.954,-0.36 -0.342,-0.144 -0.432,-0.18 -0.216,-0.144 -0.45,-0.054 -0.216,0.072 -0.306,0.324 l -0.99,2.646 q -0.072,0.198 0,0.414 0.09,0.198 0.288,0.288 0.27,0.144 0.774,0.324 0.522,0.18 1.278,0.378 1.458,0.396 3.438,0.396 3.024,0 4.662,-1.188 1.656,-1.188 1.656,-3.582 0,-1.188 -0.414,-2.088 -0.396,-0.918 -1.17,-1.548 -0.756,-0.63 -1.854,-0.954 -1.098,-0.324 -2.484,-0.324 -0.396,0 -0.81,0.036 -0.396,0.018 -0.756,0.108 l 0.144,-1.152 6.102,0 q 0.216,0 0.378,-0.162 0.162,-0.162 0.162,-0.378 l 0,-2.574 z m -12.71784,13.59 q 0.216,0 0.36,-0.162 0.144,-0.162 0.144,-0.378 l 0,-13.032 q 0,-0.216 -0.144,-0.378 -0.144,-0.162 -0.36,-0.162 l -2.718,0 q -0.414,0.414 -0.774,0.72 -0.342,0.288 -0.648,0.432 -0.342,0.162 -0.846,0.324 -0.486,0.144 -1.152,0.288 -0.162,0.036 -0.288,0.18 -0.126,0.144 -0.126,0.342 l 0,2.826 q 0,0.288 0.198,0.468 0.198,0.162 0.45,0.072 0.612,-0.18 1.116,-0.378 0.522,-0.198 1.044,-0.504 l 0,8.802 q 0,0.216 0.144,0.378 0.162,0.162 0.36,0.162 l 3.24,0 z m -64.595817,-7.074 q 0,-3.726 -1.386,-5.472 l 0,0.018 q -1.422,-1.854 -4.644,-1.854 -3.222,0 -4.644,1.836 -1.386,1.764 -1.386,5.472 0,1.854 0.342,3.222 0.36,1.35 1.044,2.232 1.44,1.836 4.644,1.836 3.24,0 4.644,-1.836 l 0,0.018 q 1.386,-1.764 1.386,-5.472 z m -4.608,0 q 0,2.196 -0.252,2.988 -0.162,0.486 -1.17,0.486 -1.008,0 -1.17,-0.486 -0.108,-0.378 -0.18,-1.134 -0.054,-0.756 -0.054,-1.854 0,-2.232 0.234,-2.988 0.126,-0.486 1.17,-0.486 1.008,0 1.17,0.486 0.252,0.81 0.252,2.988 z m -19.616063,6.534 q 0,0.216 0.162,0.378 0.162,0.162 0.378,0.162 l 10.296,0 q 0.216,0 0.378,-0.162 0.162,-0.162 0.162,-0.378 l 0,-2.898 q 0,-0.234 -0.162,-0.396 -0.162,-0.162 -0.378,-0.162 l -3.69,0 q 0.198,-0.198 0.396,-0.378 0.216,-0.198 0.432,-0.432 l 0,0.018 q 0.36,-0.36 0.846,-0.9 0.504,-0.558 1.134,-1.314 1.314,-1.566 1.314,-3.33 0,-1.926 -1.512,-3.006 -1.386,-1.026 -3.69,-1.026 -1.71,0 -3.348,0.666 -0.81,0.342 -1.332,0.63 -0.522,0.27 -0.774,0.522 -0.054,0.036 -0.108,0.18 -0.054,0.126 -0.054,0.216 l 0,3.33 q 0,0.198 0.108,0.342 0.108,0.126 0.252,0.18 0.144,0.054 0.306,0.018 0.18,-0.054 0.288,-0.216 0.414,-0.54 1.548,-1.314 1.08,-0.738 2.142,-0.738 0.648,0 1.008,0.324 0.378,0.324 0.378,0.9 0,0.468 -0.36,0.936 -0.522,0.684 -0.936,1.098 l 0.018,0 -5.022,4.662 q -0.054,0.054 -0.126,0.198 -0.054,0.126 -0.054,0.198 l 0,1.692 z" />
    </g>
  </g>
</svg>
