<?xml version="1.0" encoding="UTF-8" standalone="no"?>
<!-- Created with Inkscape (http://www.inkscape.org/) -->

<svg
   xmlns:dc="http://purl.org/dc/elements/1.1/"
   xmlns:cc="http://creativecommons.org/ns#"
   xmlns:rdf="http://www.w3.org/1999/02/22-rdf-syntax-ns#"
   xmlns:svg="http://www.w3.org/2000/svg"
   xmlns="http://www.w3.org/2000/svg"
   xmlns:sodipodi="http://sodipodi.sourceforge.net/DTD/sodipodi-0.dtd"
   xmlns:inkscape="http://www.inkscape.org/namespaces/inkscape"
   width="124.01575"
   height="124.01575"
   id="svg3565"
   version="1.1"
   inkscape:version="0.48.4 r9939"
   sodipodi:docname="automation_whole.svg">
  <defs
     id="defs3567" />
  <sodipodi:namedview
     id="base"
     pagecolor="#ffffff"
     bordercolor="#666666"
     borderopacity="1.0"
     inkscape:pageopacity="0.0"
     inkscape:pageshadow="2"
     inkscape:zoom="2.8"
     inkscape:cx="70.289622"
     inkscape:cy="30.13642"
     inkscape:document-units="px"
     inkscape:current-layer="layer1"
     showgrid="false"
     units="mm"
     inkscape:window-width="1920"
     inkscape:window-height="1059"
     inkscape:window-x="0"
     inkscape:window-y="0"
     inkscape:window-maximized="1" />
  <metadata
     id="metadata3570">
    <rdf:RDF>
      <cc:Work
         rdf:about="">
        <dc:format>image/svg+xml</dc:format>
        <dc:type
           rdf:resource="http://purl.org/dc/dcmitype/StillImage" />
        <dc:title></dc:title>
      </cc:Work>
    </rdf:RDF>
  </metadata>
  <g
     inkscape:label="Layer 1"
     inkscape:groupmode="layer"
     id="layer1"
     transform="translate(0,-928.34644)">
    <path
       style="opacity:1;color:#000000;fill:#b3b3b3;fill-opacity:1;fill-rule:nonzero;stroke:none;stroke-width:12.66666698000000046;marker:none;visibility:visible;display:inline;overflow:visible;enable-background:accumulate"
       d="M 62 2.15625 C 28.944907 2.15625 2.15625 28.944907 2.15625 62 C 2.15625 95.055093 28.944907 121.875 62 121.875 C 95.055093 121.875 121.875 95.055093 121.875 62 C 121.875 28.944907 95.055093 2.15625 62 2.15625 z M 80.875 15.25 L 85.03125 16.25 L 80.5 21.3125 L 82.71875 22.5 L 77.8125 28.03125 L 80.90625 28.21875 L 72.375 36.5625 L 70.78125 35.90625 L 76.09375 29.40625 L 73.25 28.625 L 77.3125 23.59375 L 74.4375 22.3125 L 80.875 15.25 z M 42.5625 15.4375 L 49 22.5 L 46.09375 23.78125 L 50.1875 28.78125 L 47.3125 29.5625 L 52.625 36.09375 L 51.0625 36.71875 L 42.53125 28.40625 L 45.625 28.1875 L 40.71875 22.65625 L 42.9375 21.5 L 38.375 16.4375 L 42.5625 15.4375 z M 46.34375 56.71875 C 50.806885 56.71875 54.4375 60.318115 54.4375 64.78125 C 54.4375 69.244385 50.806885 72.875 46.34375 72.875 C 41.880615 72.875 38.25 69.244385 38.25 64.78125 C 38.25 60.318115 41.880615 56.71875 46.34375 56.71875 z M 76.5 56.78125 C 80.928267 56.78125 84.5 60.352983 84.5 64.78125 C 84.5 69.209517 80.928267 72.8125 76.5 72.8125 C 72.071733 72.8125 68.46875 69.209517 68.46875 64.78125 C 68.46875 60.352983 72.071733 56.78125 76.5 56.78125 z M 39.28125 83.125 L 84.65625 83.125 L 84.65625 94.71875 L 39.28125 94.71875 L 39.28125 83.125 z "
       transform="translate(0,928.34644)"
       id="path4115" />
  </g>
</svg>
