<?xml version="1.0" encoding="UTF-8" standalone="no"?>
<!-- Created with Inkscape (http://www.inkscape.org/) -->

<svg
   xmlns:dc="http://purl.org/dc/elements/1.1/"
   xmlns:cc="http://creativecommons.org/ns#"
   xmlns:rdf="http://www.w3.org/1999/02/22-rdf-syntax-ns#"
   xmlns:svg="http://www.w3.org/2000/svg"
   xmlns="http://www.w3.org/2000/svg"
   version="1.1"
   width="124.01575"
   height="124.01575"
   id="svg3565">
  <defs
     id="defs3567" />
  <metadata
     id="metadata3570">
    <rdf:RDF>
      <cc:Work
         rdf:about="">
        <dc:format>image/svg+xml</dc:format>
        <dc:type
           rdf:resource="http://purl.org/dc/dcmitype/StillImage" />
        <dc:title></dc:title>
      </cc:Work>
    </rdf:RDF>
  </metadata>
  <g
     transform="translate(0,-928.34644)"
     id="layer1">
    <path
       d="m 61.53125,32.21875 c -3.138142,0 -5.6875,2.549358 -5.6875,5.6875 0,3.138142 2.549358,5.6875 5.6875,5.6875 3.138142,0 5.6875,-2.549358 5.6875,-5.6875 0,-3.138142 -2.549358,-5.6875 -5.6875,-5.6875 z M 35.46875,48.125 c -4.267912,0 -7.6875,3.41959 -7.6875,7.6875 l 0,3.59375 -1.40625,0 c -0.668905,-0.250361 -1.389796,-0.375 -2.125,-0.375 -4.044716,0 -7.34375,4.072724 -7.34375,9.09375 0,5.021026 3.299034,9.09375 7.34375,9.09375 0.735204,0 1.456095,-0.124639 2.125,-0.375 l 1.40625,0 0,4.125 2.53125,0 c -2.840238,1.39315 -4.78125,4.299197 -4.78125,7.6875 0,4.748571 3.813929,8.5625 8.5625,8.5625 l 55.1875,0 c 4.748571,0 8.5625,-3.813929 8.5625,-8.5625 0,-3.388303 -1.941012,-6.29435 -4.78125,-7.6875 l 2.21875,0 0,-4.6875 0.8125,0 0,0.03125 c 0.95635,0.570506 2.023211,0.90625 3.15625,0.90625 4.04472,0 7.3125,-4.072724 7.3125,-9.09375 0,-5.021026 -3.26778,-9.09375 -7.3125,-9.09375 -1.133039,0 -2.1999,0.335744 -3.15625,0.90625 l 0,0.0625 -0.8125,0 0,-4.1875 c 0,-4.26791 -3.450838,-7.6875 -7.71875,-7.6875 l -52.09375,0 z m 10.875,9.46875 c 3.974979,0 7.1875,3.212521 7.1875,7.1875 0,3.974979 -3.212521,7.21875 -7.1875,7.21875 -3.974979,0 -7.1875,-3.243771 -7.1875,-7.21875 0,-3.974979 3.212521,-7.1875 7.1875,-7.1875 z m 30.1875,0 c 3.974979,0 7.1875,3.212521 7.1875,7.1875 0,3.974979 -3.212521,7.21875 -7.1875,7.21875 -3.974979,0 -7.21875,-3.243771 -7.21875,-7.21875 0,-3.974979 3.243771,-7.1875 7.21875,-7.1875 z m -36.34375,26.125 12.5,0 0,9.90625 -12.5,0 0,-9.90625 z m 14.8125,0 12.5,0 0,9.90625 -12.5,0 0,-9.90625 z m 15,0 12.5,0 0,9.90625 -12.5,0 0,-9.90625 z"
       transform="translate(0,928.34644)"
       id="path3937-0-3-7-6"
       style="color:#000000;fill:#808080;fill-opacity:1;fill-rule:nonzero;stroke:none;stroke-width:10;marker:none;visibility:visible;display:inline;overflow:visible;enable-background:accumulate" />
  </g>
</svg>
