<?xml version="1.0" encoding="UTF-8" standalone="no"?>
<!-- Created with Inkscape (http://www.inkscape.org/) -->

<svg
   xmlns:dc="http://purl.org/dc/elements/1.1/"
   xmlns:cc="http://creativecommons.org/ns#"
   xmlns:rdf="http://www.w3.org/1999/02/22-rdf-syntax-ns#"
   xmlns:svg="http://www.w3.org/2000/svg"
   xmlns="http://www.w3.org/2000/svg"
   xmlns:sodipodi="http://sodipodi.sourceforge.net/DTD/sodipodi-0.dtd"
   xmlns:inkscape="http://www.inkscape.org/namespaces/inkscape"
   width="124.01575"
   height="124.01575"
   id="svg3565"
   version="1.1"
   inkscape:version="0.48.4 r9939"
   sodipodi:docname="automation_whole.svg">
  <defs
     id="defs3567" />
  <sodipodi:namedview
     id="base"
     pagecolor="#ffffff"
     bordercolor="#666666"
     borderopacity="1.0"
     inkscape:pageopacity="0.0"
     inkscape:pageshadow="2"
     inkscape:zoom="11.2"
     inkscape:cx="59.580712"
     inkscape:cy="68.602564"
     inkscape:document-units="px"
     inkscape:current-layer="layer1"
     showgrid="false"
     units="mm"
     inkscape:window-width="1920"
     inkscape:window-height="1059"
     inkscape:window-x="0"
     inkscape:window-y="0"
     inkscape:window-maximized="1" />
  <metadata
     id="metadata3570">
    <rdf:RDF>
      <cc:Work
         rdf:about="">
        <dc:format>image/svg+xml</dc:format>
        <dc:type
           rdf:resource="http://purl.org/dc/dcmitype/StillImage" />
        <dc:title />
      </cc:Work>
    </rdf:RDF>
  </metadata>
  <g
     inkscape:label="Layer 1"
     inkscape:groupmode="layer"
     id="layer1"
     transform="translate(0,-928.34644)">
    <path
       style="opacity:1;color:#000000;fill:#b3b3b3;fill-opacity:1;fill-rule:nonzero;stroke:none;stroke-width:12.66666698000000046;marker:none;visibility:visible;display:inline;overflow:visible;enable-background:accumulate"
       d="M 62 2.15625 C 28.944907 2.15625 2.15625 28.944907 2.15625 62 C 2.15625 95.055093 28.944907 121.875 62 121.875 C 95.055093 121.875 121.875 95.055093 121.875 62 C 121.875 28.944907 95.055093 2.15625 62 2.15625 z M 80.875 15.25 L 85.03125 16.25 L 80.5 21.3125 L 82.71875 22.5 L 77.8125 28.03125 L 80.90625 28.21875 L 72.375 36.5625 L 70.78125 35.90625 L 76.09375 29.40625 L 73.25 28.625 L 77.3125 23.59375 L 74.4375 22.3125 L 80.875 15.25 z M 42.5625 15.4375 L 49 22.5 L 46.09375 23.78125 L 50.1875 28.78125 L 47.3125 29.5625 L 52.625 36.09375 L 51.0625 36.71875 L 42.53125 28.40625 L 45.625 28.1875 L 40.71875 22.65625 L 42.9375 21.5 L 38.375 16.4375 L 42.5625 15.4375 z M 46.34375 56.71875 C 50.806885 56.71875 54.4375 60.318115 54.4375 64.78125 C 54.4375 69.244385 50.806885 72.875 46.34375 72.875 C 41.880615 72.875 38.25 69.244385 38.25 64.78125 C 38.25 60.318115 41.880615 56.71875 46.34375 56.71875 z M 76.5 56.78125 C 80.928267 56.78125 84.5 60.352983 84.5 64.78125 C 84.5 69.209517 80.928267 72.8125 76.5 72.8125 C 72.071733 72.8125 68.46875 69.209517 68.46875 64.78125 C 68.46875 60.352983 72.071733 56.78125 76.5 56.78125 z M 39.28125 83.125 L 84.65625 83.125 L 84.65625 94.71875 L 39.28125 94.71875 L 39.28125 83.125 z "
       transform="translate(0,928.34644)"
       id="path4115" />
    <path
       style="opacity:1;color:#000000;fill:#808080;fill-opacity:1;fill-rule:nonzero;stroke:none;stroke-width:10;marker:none;visibility:visible;display:inline;overflow:visible;enable-background:accumulate"
       d="M 61.53125 32.21875 C 58.393108 32.21875 55.84375 34.768108 55.84375 37.90625 C 55.84375 40.411332 57.466989 42.555117 59.71875 43.3125 L 59.71875 48.125 L 35.46875 48.125 C 31.200838 48.125 27.78125 51.54459 27.78125 55.8125 L 27.78125 59.40625 L 26.375 59.40625 C 25.706095 59.155889 24.985204 59.03125 24.25 59.03125 C 20.205284 59.03125 16.90625 63.103974 16.90625 68.125 C 16.90625 73.146026 20.205284 77.21875 24.25 77.21875 C 24.985204 77.21875 25.706095 77.094111 26.375 76.84375 L 27.78125 76.84375 L 27.78125 80.96875 L 30.3125 80.96875 C 27.472262 82.3619 25.53125 85.267947 25.53125 88.65625 C 25.53125 93.404821 29.345179 97.21875 34.09375 97.21875 L 89.28125 97.21875 C 94.029821 97.21875 97.84375 93.404821 97.84375 88.65625 C 97.84375 85.267947 95.902738 82.3619 93.0625 80.96875 L 95.28125 80.96875 L 95.28125 76.28125 L 96.09375 76.28125 L 96.09375 76.3125 C 97.0501 76.883006 98.116961 77.21875 99.25 77.21875 C 103.29472 77.21875 106.5625 73.146026 106.5625 68.125 C 106.5625 63.103974 103.29472 59.03125 99.25 59.03125 C 98.116961 59.03125 97.0501 59.366994 96.09375 59.9375 L 96.09375 60 L 95.28125 60 L 95.28125 55.8125 C 95.28125 51.54459 91.830412 48.125 87.5625 48.125 L 63.40625 48.125 L 63.40625 43.28125 C 65.624249 42.50506 67.21875 40.387193 67.21875 37.90625 C 67.21875 34.768108 64.669392 32.21875 61.53125 32.21875 z M 46.34375 57.59375 C 50.318729 57.59375 53.53125 60.806271 53.53125 64.78125 C 53.53125 68.756229 50.318729 72 46.34375 72 C 42.368771 72 39.15625 68.756229 39.15625 64.78125 C 39.15625 60.806271 42.368771 57.59375 46.34375 57.59375 z M 76.53125 57.59375 C 80.506229 57.59375 83.71875 60.806271 83.71875 64.78125 C 83.71875 68.756229 80.506229 72 76.53125 72 C 72.556271 72 69.3125 68.756229 69.3125 64.78125 C 69.3125 60.806271 72.556271 57.59375 76.53125 57.59375 z M 40.1875 83.71875 L 52.6875 83.71875 L 52.6875 93.625 L 40.1875 93.625 L 40.1875 83.71875 z M 55 83.71875 L 67.5 83.71875 L 67.5 93.625 L 55 93.625 L 55 83.71875 z M 70 83.71875 L 82.5 83.71875 L 82.5 93.625 L 70 93.625 L 70 83.71875 z "
       transform="translate(0,928.34644)"
       id="path3937-0-3-7-6" />
    <path
       style="opacity:1;color:#000000;fill:#000000;fill-opacity:1;fill-rule:nonzero;stroke:none;stroke-width:10;marker:none;visibility:visible;display:inline;overflow:visible;enable-background:accumulate"
       d="M 62 0 C 27.753996 -9.4739031e-15 0 27.753996 0 62 C -9.4739031e-15 96.246004 27.753996 124.03125 62 124.03125 C 96.246004 124.03125 124.03125 96.246004 124.03125 62 C 124.03125 27.753996 96.246004 -1.8947806e-14 62 0 z M 62 3.53125 C 94.289088 3.53125 120.46875 29.710912 120.46875 62 C 120.46875 94.289088 94.289088 120.46875 62 120.46875 C 29.710912 120.46875 3.53125 94.289088 3.53125 62 C 3.53125 29.710912 29.710912 3.53125 62 3.53125 z M 26.8125 56.375 C 25.674821 56.375 24.75 57.299821 24.75 58.4375 L 24.75 77.8125 C 24.75 78.950179 25.674821 79.875 26.8125 79.875 L 27.78125 79.875 L 27.78125 56.375 L 26.8125 56.375 z M 95.28125 56.375 L 95.28125 79.875 L 96.25 79.875 C 97.387679 79.875 98.3125 78.950179 98.3125 77.8125 L 98.3125 58.4375 C 98.3125 57.299821 97.387679 56.375 96.25 56.375 L 95.28125 56.375 z "
       transform="translate(0,928.34644)"
       id="path3658" />
  </g>
</svg>
