<?xml version="1.0" encoding="UTF-8" standalone="no"?>
<!-- Created with Inkscape (http://www.inkscape.org/) -->

<svg
   width="199.5mm"
   height="81mm"
   viewBox="0 0 199.5 81"
   version="1.1"
   id="svg5"
   xml:space="preserve"
   inkscape:version="1.2.2 (b0a8486541, 2022-12-01)"
   sodipodi:docname="cover.svg"
   xmlns:inkscape="http://www.inkscape.org/namespaces/inkscape"
   xmlns:sodipodi="http://sodipodi.sourceforge.net/DTD/sodipodi-0.dtd"
   xmlns="http://www.w3.org/2000/svg"
   xmlns:svg="http://www.w3.org/2000/svg"><sodipodi:namedview
     id="namedview7"
     pagecolor="#ffffff"
     bordercolor="#666666"
     borderopacity="1.0"
     inkscape:showpageshadow="2"
     inkscape:pageopacity="0.0"
     inkscape:pagecheckerboard="0"
     inkscape:deskcolor="#d1d1d1"
     inkscape:document-units="mm"
     showgrid="false"
     inkscape:zoom="0.8676908"
     inkscape:cx="233.95431"
     inkscape:cy="169.41519"
     inkscape:window-width="2048"
     inkscape:window-height="1113"
     inkscape:window-x="1080"
     inkscape:window-y="0"
     inkscape:window-maximized="1"
     inkscape:current-layer="layer1" /><defs
     id="defs2" /><g
     inkscape:label="Layer 1"
     inkscape:groupmode="layer"
     id="layer1"><path
       id="path530"
       style="font-weight:900;font-size:27.4973px;line-height:1.25;font-family:'Alegreya Sans SC';-inkscape-font-specification:'Alegreya Sans SC, Heavy';letter-spacing:0px;word-spacing:0px;stroke-width:0.264583"
       d="M 46.859155 10.871688 C 44.017773 10.871688 41.817736 11.705694 40.259558 13.373861 C 38.719713 15.023696 37.949622 17.370196 37.949622 20.413224 C 37.949622 23.254606 38.655796 25.454645 40.067322 27.012821 C 41.478846 28.552667 43.476531 29.322758 46.061271 29.322758 C 48.902653 29.322758 51.093633 28.479177 52.63348 26.79268 C 54.191656 25.106183 54.970805 22.722936 54.970805 19.643245 C 54.970805 16.856858 54.264629 14.703138 52.853105 13.181624 C 51.441579 11.641778 49.443897 10.871688 46.859155 10.871688 z M 170.18444 10.871688 C 168.7546 10.871688 167.48066 11.137442 166.36246 11.669055 C 165.24423 12.200669 164.37348 12.934014 163.75021 13.868921 C 163.12695 14.785495 162.81487 15.821341 162.81487 16.976225 C 162.81487 17.984457 163.05345 18.837094 163.53007 19.533691 C 164.00669 20.211957 164.56589 20.752522 165.20749 21.155815 C 165.86742 21.540777 166.70142 21.952993 167.70966 22.392948 C 168.58957 22.77791 169.22174 23.108096 169.6067 23.383069 C 170.00999 23.639711 170.21183 23.960322 170.21183 24.345284 C 170.21183 24.601925 170.09254 24.821877 169.85423 25.005192 C 169.63426 25.170176 169.26784 25.252722 168.75456 25.252722 C 168.11296 25.252722 167.30612 25.069515 166.33455 24.702885 C 165.38131 24.317923 164.48339 23.80453 163.64014 23.162927 L 163.0903 23.49314 L 162.29242 28.277861 C 164.34554 28.974457 166.30701 29.322758 168.17681 29.322758 C 169.68 29.322758 171.00023 29.056487 172.13678 28.524874 C 173.27333 27.99326 174.14408 27.278545 174.74902 26.380302 C 175.3723 25.463727 175.68385 24.446514 175.68385 23.328292 C 175.68385 22.32006 175.43621 21.476479 174.94126 20.798214 C 174.44631 20.101616 173.869 19.561052 173.20907 19.17609 C 172.54913 18.772798 171.70607 18.341949 170.6795 17.883663 C 169.7996 17.480369 169.16691 17.159758 168.78195 16.921448 C 168.41531 16.664807 168.23211 16.362308 168.23211 16.01401 C 168.23211 15.739038 168.3514 15.519085 168.58971 15.354102 C 168.84635 15.189119 169.18508 15.106571 169.6067 15.106571 C 170.06499 15.106571 170.66999 15.243978 171.42158 15.518949 C 172.17317 15.793922 172.9342 16.169394 173.70413 16.646012 L 174.4741 16.316317 L 175.35364 11.83442 C 173.64881 11.192817 171.92594 10.871688 170.18444 10.871688 z M 33.027958 10.899593 C 30.094919 10.899593 27.821391 11.714969 26.208219 13.346472 C 24.61338 14.977976 23.816117 17.278673 23.816117 20.248376 C 23.816117 23.199748 24.55852 25.445586 26.043372 26.985433 C 27.546554 28.525278 29.773764 29.294853 32.725134 29.294853 C 34.173323 29.294853 35.44775 29.120703 36.54764 28.772404 L 36.987406 24.427966 L 36.54764 24.153048 C 36.07102 24.336363 35.511825 24.482825 34.870223 24.592814 C 34.246953 24.684474 33.6787 24.730273 33.165417 24.730273 C 31.955539 24.730273 31.066156 24.327113 30.49788 23.520528 C 29.929604 22.695611 29.645736 21.394011 29.645736 19.615857 C 29.645736 18.094342 29.892859 17.012697 30.387809 16.371094 C 30.88276 15.71116 31.689595 15.38149 32.807817 15.38149 C 33.33943 15.38149 33.916739 15.46404 34.540011 15.62902 C 35.163281 15.775672 35.713421 15.976994 36.190039 16.233634 L 36.54764 16.01401 L 37.482467 11.641667 C 36.089272 11.146716 34.604468 10.899593 33.027958 10.899593 z M 64.814648 11.091829 L 56.785681 11.2019 L 57.0606 23.768058 L 56.785681 28.992546 C 59.352091 29.157528 61.588357 29.240076 63.494832 29.240076 C 66.537861 29.240076 68.875304 28.387437 70.506807 26.682609 C 72.138311 24.97778 72.953687 22.539677 72.953687 19.368327 C 72.953687 16.691928 72.248029 14.647927 70.836503 13.236401 C 69.443309 11.806545 67.436053 11.091829 64.814648 11.091829 z M 105.86796 11.091829 L 100.80883 11.394137 L 100.97368 20.716048 L 100.64347 20.716048 L 95.639124 11.2019 L 89.644657 11.2019 L 89.919576 23.768058 L 89.644657 28.992546 L 94.64952 28.992546 L 94.429378 22.558313 L 94.456767 19.478398 L 94.786979 19.478398 L 99.791325 28.992546 L 105.78579 28.992546 L 105.56565 23.190833 L 105.86796 11.091829 z M 74.768563 11.2019 L 75.043481 23.768058 L 74.768563 28.992546 L 87.307332 28.992546 L 87.637545 24.977804 L 87.335238 24.592814 L 82.770658 24.758179 L 80.130509 24.758179 L 80.075732 23.218221 L 80.103121 22.173324 L 82.577905 22.173324 L 85.767891 22.255489 L 86.097587 18.241264 L 85.79528 17.856274 L 82.935506 17.93844 L 80.213192 17.93844 L 80.267969 15.436267 L 83.100354 15.436267 L 87.472697 15.601632 L 87.829781 11.58689 L 87.527474 11.2019 L 74.768563 11.2019 z M 112.96261 11.2019 L 107.57276 28.992546 L 112.96261 28.992546 L 113.42977 26.022701 L 115.68441 25.91263 L 118.37934 25.967924 L 118.40673 26.05009 L 118.90179 28.992546 L 124.48387 28.992546 L 119.61699 11.2019 L 112.96261 11.2019 z M 127.20619 11.2019 L 125.47399 28.992546 L 130.06596 28.992546 L 130.34088 23.080762 L 130.72587 19.120797 L 131.05557 19.120797 L 133.42028 27.315129 L 137.57248 27.315129 L 140.43226 19.120797 L 140.76247 19.120797 L 141.06477 23.60321 L 141.20223 28.992546 L 146.04173 28.992546 L 144.61184 11.2019 L 138.34246 11.2019 L 137.70994 13.924215 L 135.97775 20.193599 L 135.64753 20.193599 L 134.08019 13.731462 L 133.55774 11.2019 L 127.20619 11.2019 z M 148.57129 11.2019 L 148.84621 23.768058 L 148.57129 28.992546 L 161.11006 28.992546 L 161.44028 24.977804 L 161.13797 24.592814 L 156.57339 24.758179 L 153.93324 24.758179 L 153.87846 23.218221 L 153.90585 22.173324 L 156.38064 22.173324 L 159.57062 22.255489 L 159.90032 18.241264 L 159.59801 17.856274 L 156.73824 17.93844 L 154.01592 17.93844 L 154.0707 15.436267 L 156.90308 15.436267 L 161.27543 15.601632 L 161.63251 11.58689 L 161.3302 11.2019 L 148.57129 11.2019 z M 46.364095 15.271419 C 47.134018 15.271419 47.711327 15.427455 48.096289 15.739091 C 48.499583 16.050727 48.783966 16.600349 48.94895 17.388603 C 49.113933 18.176858 49.195964 19.322419 49.195964 20.825602 C 49.195964 22.017149 49.113934 22.934219 48.94895 23.575822 C 48.802298 24.199092 48.545602 24.638997 48.178971 24.895638 C 47.812342 25.133947 47.27126 25.252722 46.556331 25.252722 C 45.786408 25.252722 45.200041 25.097203 44.796749 24.785567 C 44.411787 24.473932 44.13646 23.923794 43.971476 23.135539 C 43.806493 22.347285 43.724463 21.192665 43.724463 19.671151 C 43.724463 18.479604 43.797433 17.572107 43.944088 16.948836 C 44.109072 16.325565 44.374825 15.894717 44.741455 15.656409 C 45.108085 15.399768 45.649167 15.271419 46.364095 15.271419 z M 64.346977 15.38149 C 65.061904 15.38149 65.6211 15.555641 66.024394 15.903939 C 66.427686 16.233906 66.721129 16.783528 66.904443 17.553451 C 67.087759 18.323374 67.179362 19.377849 67.179362 20.716048 C 67.179362 22.292557 66.950354 23.429062 66.492065 24.125659 C 66.05211 24.803925 65.40131 25.143168 64.53973 25.143168 C 64.044779 25.143168 63.247518 25.069678 62.147628 24.923027 L 62.092334 23.218221 L 62.285087 15.491561 C 62.963352 15.418231 63.650379 15.38149 64.346977 15.38149 z M 116.01462 16.12408 L 116.34484 16.12408 L 117.55458 21.953182 L 116.01462 21.98057 L 114.47467 21.953182 L 116.01462 16.12408 z M 104.71299 32.689994 C 104.51783 32.695824 104.31968 32.728477 104.12388 32.79128 L 99.749984 34.249589 L 95.356453 32.79128 L 95.257751 32.77216 C 94.213487 32.476597 93.110313 33.028251 92.716305 34.033065 L 87.928483 46.485535 L 111.572 46.485535 L 106.76454 34.032548 L 106.70511 33.934363 C 106.35298 33.149941 105.55866 32.664731 104.71299 32.689994 z M 80.04731 49.440393 L 80.04731 52.395768 L 119.45266 52.395768 L 119.45266 49.440393 L 80.04731 49.440393 z M 109.71992 54.365674 C 106.05521 54.365674 102.98141 56.986411 102.19325 60.473828 C 100.32151 59.666003 98.607086 59.882501 97.306722 60.454191 C 96.498905 56.94707 93.425609 54.366191 89.780566 54.366191 C 85.505006 54.366191 82.017216 57.893017 82.017216 62.247363 C 82.017216 66.601704 85.505006 70.128536 89.780566 70.128536 C 93.839348 70.128536 97.149115 66.936616 97.464335 62.877816 C 98.13454 62.404946 99.887984 61.518123 102.03563 62.91709 C 102.39009 66.956185 105.66113 70.128536 109.71992 70.128536 C 113.99547 70.128536 117.48275 66.601703 117.48275 62.247363 C 117.48275 57.893024 113.99547 54.366191 109.71992 54.366191 L 109.71992 54.365674 z M 89.780566 56.612565 C 92.854219 56.612565 95.316663 59.134303 95.316663 62.247363 C 95.316663 65.360417 92.854219 67.882678 89.780566 67.882678 C 86.706914 67.882678 84.243953 65.360417 84.243953 62.247363 C 84.243953 59.134303 86.726572 56.612565 89.780566 56.612565 z M 109.71992 56.612565 C 112.79356 56.612565 115.27617 59.134303 115.27617 62.247363 C 115.27617 65.360417 112.77383 67.882678 109.71992 67.882678 C 106.64626 67.882678 104.1833 65.360417 104.1833 62.247363 C 104.1833 59.134303 106.64626 56.612565 109.71992 56.612565 z " /></g></svg>
