<?xml version="1.0" encoding="UTF-8" standalone="no"?>
<!-- Created with Inkscape (http://www.inkscape.org/) -->

<svg
   xmlns:dc="http://purl.org/dc/elements/1.1/"
   xmlns:cc="http://creativecommons.org/ns#"
   xmlns:rdf="http://www.w3.org/1999/02/22-rdf-syntax-ns#"
   xmlns:svg="http://www.w3.org/2000/svg"
   xmlns="http://www.w3.org/2000/svg"
   xmlns:sodipodi="http://sodipodi.sourceforge.net/DTD/sodipodi-0.dtd"
   xmlns:inkscape="http://www.inkscape.org/namespaces/inkscape"
   width="124.01575"
   height="124.01575"
   id="svg3565"
   version="1.1"
   inkscape:version="0.48.4 r9939"
   sodipodi:docname="New document 25">
  <defs
     id="defs3567" />
  <sodipodi:namedview
     id="base"
     pagecolor="#ffffff"
     bordercolor="#666666"
     borderopacity="1.0"
     inkscape:pageopacity="0.0"
     inkscape:pageshadow="2"
     inkscape:zoom="2.8"
     inkscape:cx="59.61331"
     inkscape:cy="22.909497"
     inkscape:document-units="px"
     inkscape:current-layer="layer1"
     showgrid="false"
     units="mm"
     inkscape:window-width="1920"
     inkscape:window-height="1059"
     inkscape:window-x="0"
     inkscape:window-y="0"
     inkscape:window-maximized="1" />
  <metadata
     id="metadata3570">
    <rdf:RDF>
      <cc:Work
         rdf:about="">
        <dc:format>image/svg+xml</dc:format>
        <dc:type
           rdf:resource="http://purl.org/dc/dcmitype/StillImage" />
        <dc:title></dc:title>
      </cc:Work>
    </rdf:RDF>
  </metadata>
  <g
     inkscape:label="Layer 1"
     inkscape:groupmode="layer"
     id="layer1"
     transform="translate(0,-928.34644)">
    <path
       style="color:#000000;fill:#cccccc;fill-opacity:1;fill-rule:nonzero;stroke:none;stroke-width:10;marker:none;visibility:visible;display:inline;overflow:visible;enable-background:accumulate"
       d="M 62 3.53125 C 29.710912 3.53125 3.53125 29.710912 3.53125 62 C 3.53125 94.289088 29.710912 120.46875 62 120.46875 C 94.289088 120.46875 120.46875 94.289088 120.46875 62 C 120.46875 29.710912 94.289088 3.53125 62 3.53125 z M 58.59375 47.25 C 69.751587 47.25 78.78125 56.279663 78.78125 67.4375 C 78.78125 78.595336 69.751587 87.65625 58.59375 87.65625 C 47.435913 87.65625 38.375 78.595336 38.375 67.4375 C 38.375 56.279663 47.435913 47.25 58.59375 47.25 z "
       id="path3658-5-8-2"
       transform="translate(0,928.34644)" />
    <path
       style="color:#000000;fill:#999999;fill-opacity:1;fill-rule:nonzero;stroke:none;stroke-width:10;marker:none;visibility:visible;display:inline;overflow:visible;enable-background:accumulate"
       d="M 63.6875 15.4375 C 62.224114 15.490672 60.383692 15.94425 58.09375 17 C 53.26059 19.2285 45.98487 18.68305 41.1875 16.90625 C 34.97559 14.60555 30.40037 15.7592 30.53125 22.125 L 30.78125 34.625 C 30.81599 36.3148 30.53154 37.17525 29.71875 37.15625 L 27.75 37.125 C 29.59692 41.7567 32.18328 45.01155 36.40625 45.34375 L 65.1875 46.3125 C 68.11827 44.0978 72.01302 39.9443 72.1875 37.0625 L 70.375 37.125 C 68.86152 37.1894 68.6504 36.13915 68.6875 34.78125 L 69.03125 21.40625 C 69.10118 18.8474 68.077659 15.277984 63.6875 15.4375 z M 110.65625 64.75 C 109.46552 64.667814 108.15069 65.062 107.25 66 C 105.30811 68.3791 99.17955 68.31425 93.53125 68.53125 L 93.53125 74.84375 C 100.58123 74.79585 108.18009 75.33586 111.84375 71.59375 C 115.40677 67.443381 113.27586 64.93081 110.65625 64.75 z "
       transform="translate(0,928.34644)"
       id="rect3653-7-7" />
    <path
       style="opacity:1;color:#000000;fill:#000000;fill-opacity:1;fill-rule:nonzero;stroke:none;stroke-width:10;marker:none;visibility:visible;display:inline;overflow:visible;enable-background:accumulate"
       d="M 62 0 C 27.753996 -9.4739031e-15 0 27.753996 0 62 C -9.4739031e-15 96.246004 27.753996 124.03125 62 124.03125 C 96.246004 124.03125 124.03125 96.246004 124.03125 62 C 124.03125 27.753996 96.246004 -1.8947806e-14 62 0 z M 62 3.53125 C 94.289088 3.53125 120.46875 29.710912 120.46875 62 C 120.46875 94.289088 94.289088 120.46875 62 120.46875 C 29.710912 120.46875 3.53125 94.289088 3.53125 62 C 3.53125 29.710912 29.710912 3.53125 62 3.53125 z M 31.65625 42.5 C 29.058027 42.5 26.96875 44.58927 26.96875 47.1875 L 26.96875 86.34375 C 26.96875 88.94195 29.058027 91 31.65625 91 L 52.65625 91 L 51.125 98 L 71.5625 98 L 69.71875 91 L 90.875 91 C 93.473224 91 95.59375 88.94195 95.59375 86.34375 L 95.59375 47.1875 C 95.59375 44.58927 93.473224 42.5 90.875 42.5 L 31.65625 42.5 z M 62 50.4375 C 64.676307 50.423204 67.21258 50.945704 69.03125 52.03125 C 73.601994 54.75949 70.057606 60.9676 65.09375 58.15625 C 62.304874 56.57672 59.331119 56.18612 55.84375 59.75 C 52.906567 62.75163 51.970804 67.9011 55.9375 73.875 C 57.950714 76.907 61.765751 77.65245 65.8125 75.46875 C 70.137621 73.13475 75.824539 77.891 68.84375 81.75 C 63.239375 84.8482 53.772332 83.72885 50.28125 79.28125 C 43.791552 71.01331 43.607782 62.36119 50.03125 55 C 52.665149 51.9816 57.539489 50.461326 62 50.4375 z "
       id="path3658"
       transform="translate(0,928.34644)" />
  </g>
</svg>
