<?xml version="1.0" encoding="UTF-8" standalone="no"?>
<svg
   xmlns:dc="http://purl.org/dc/elements/1.1/"
   xmlns:cc="http://creativecommons.org/ns#"
   xmlns:rdf="http://www.w3.org/1999/02/22-rdf-syntax-ns#"
   xmlns:svg="http://www.w3.org/2000/svg"
   xmlns="http://www.w3.org/2000/svg"
   version="1.1"
   id="svg3565"
   height="124.01575"
   width="124.01575">
  <defs
     id="defs3567" />
  <metadata
     id="metadata3570">
    <rdf:RDF>
      <cc:Work
         rdf:about="">
        <dc:format>image/svg+xml</dc:format>
        <dc:type
           rdf:resource="http://purl.org/dc/dcmitype/StillImage" />
        <dc:title></dc:title>
      </cc:Work>
    </rdf:RDF>
  </metadata>
  <g
     transform="translate(0,-928.34644)"
     id="layer1">
    <path
       id="path3658"
       transform="translate(0,928.34644)"
       d="M 62 0 C 27.753996 -9.4739031e-15 0 27.753996 0 62 C -9.4739031e-15 96.246004 27.753996 124.03125 62 124.03125 C 96.246004 124.03125 124.03125 96.246004 124.03125 62 C 124.03125 27.753996 96.246004 -1.8947806e-14 62 0 z M 62 3.53125 C 94.289088 3.53125 120.46875 29.710912 120.46875 62 C 120.46875 94.289088 94.289088 120.46875 62 120.46875 C 29.710912 120.46875 3.53125 94.289088 3.53125 62 C 3.53125 29.710912 29.710912 3.53125 62 3.53125 z M 59.822266 18.658203 C 49.13798 18.658203 40.535156 27.261023 40.535156 37.945312 L 40.535156 45.800781 L 35.535156 45.800781 C 31.182298 45.800781 27.677734 49.305343 27.677734 53.658203 L 27.677734 93.480469 C 27.677734 97.833269 31.182298 101.33789 35.535156 101.33789 L 87.857422 101.33789 C 92.210279 101.33789 95.714844 97.833269 95.714844 93.480469 L 95.714844 53.658203 C 95.714844 49.305343 92.210279 45.800781 87.857422 45.800781 L 83.75 45.800781 L 83.75 37.945312 C 83.75 27.261024 75.14913 18.658203 64.464844 18.658203 L 59.822266 18.658203 z M 62.232422 26.158203 C 69.998315 26.158203 76.25 32.409891 76.25 40.175781 L 76.25 44.998047 L 48.214844 44.998047 L 48.214844 40.175781 C 48.214844 32.409891 54.46653 26.158203 62.232422 26.158203 z M 62.503906 51.347656 A 9.3439112 9.280777 0 0 1 71.847656 60.628906 A 9.3439112 9.280777 0 0 1 62.503906 69.910156 A 9.3439112 9.280777 0 0 1 53.160156 60.628906 A 9.3439112 9.280777 0 0 1 62.503906 51.347656 z M 46.466797 58.484375 A 5.972012 5.9316607 0 0 1 52.439453 64.416016 A 5.972012 5.9316607 0 0 1 46.466797 70.347656 A 5.972012 5.9316607 0 0 1 40.494141 64.416016 A 5.972012 5.9316607 0 0 1 46.466797 58.484375 z M 78.917969 58.484375 A 5.972012 5.9316607 0 0 1 84.890625 64.416016 A 5.972012 5.9316607 0 0 1 78.917969 70.347656 A 5.972012 5.9316607 0 0 1 72.945312 64.416016 A 5.972012 5.9316607 0 0 1 78.917969 58.484375 z M 57.642578 71.740234 L 66.669922 71.740234 C 70.553153 71.740234 71.253448 74.296241 71.720703 78.244141 L 72.048828 81.013672 L 72.720703 75.814453 C 73.059002 73.195853 74.185376 71.910156 75.572266 71.910156 L 81.800781 71.910156 C 84.479449 71.910156 84.962841 73.673284 85.285156 76.396484 L 86.263672 84.667969 C 86.425717 86.036969 86.437888 88.111328 83.804688 88.111328 L 74.179688 88.111328 C 73.641037 88.111328 73.216287 88.01918 72.861328 87.875 L 73.140625 90.234375 C 73.375539 92.219175 73.391537 95.226562 69.574219 95.226562 L 55.621094 95.226562 C 52.098956 95.226562 51.510291 92.851203 51.833984 90.345703 L 52.132812 88.035156 C 51.901677 88.082801 51.646837 88.111328 51.353516 88.111328 L 41.728516 88.111328 C 39.298931 88.111328 38.89195 86.472341 39.115234 84.744141 L 40.269531 75.814453 C 40.60783 73.195853 41.734204 71.910156 43.121094 71.910156 L 49.349609 71.910156 C 52.028277 71.910156 52.511669 73.673284 52.833984 76.396484 L 53.216797 79.634766 L 53.505859 77.398438 C 53.996289 73.602337 55.63202 71.740234 57.642578 71.740234 z "
       style="opacity:1;color:#000000;fill:#000000;fill-opacity:1;fill-rule:nonzero;stroke:none;stroke-width:10;marker:none;visibility:visible;display:inline;overflow:visible;enable-background:accumulate" />
  </g>
</svg>
