<?xml version="1.0" encoding="UTF-8" standalone="no"?>
<svg
   xmlns:dc="http://purl.org/dc/elements/1.1/"
   xmlns:cc="http://creativecommons.org/ns#"
   xmlns:rdf="http://www.w3.org/1999/02/22-rdf-syntax-ns#"
   xmlns:svg="http://www.w3.org/2000/svg"
   xmlns="http://www.w3.org/2000/svg"
   version="1.1"
   id="svg3565"
   height="124.01575"
   width="124.01575">
  <defs
     id="defs3567" />
  <metadata
     id="metadata3570">
    <rdf:RDF>
      <cc:Work
         rdf:about="">
        <dc:format>image/svg+xml</dc:format>
        <dc:type
           rdf:resource="http://purl.org/dc/dcmitype/StillImage" />
        <dc:title></dc:title>
      </cc:Work>
    </rdf:RDF>
  </metadata>
  <g
     transform="translate(0,-928.34644)"
     id="layer1">
    <path
       id="path4886"
       transform="translate(0,928.34644)"
       d="M 62.503906 51.347656 A 9.3439112 9.280777 0 0 0 53.160156 60.628906 A 9.3439112 9.280777 0 0 0 62.503906 69.910156 A 9.3439112 9.280777 0 0 0 71.847656 60.628906 A 9.3439112 9.280777 0 0 0 62.503906 51.347656 z M 57.642578 71.740234 C 55.63202 71.740234 53.996289 73.602337 53.505859 77.398438 L 51.833984 90.345703 C 51.510291 92.851203 52.098956 95.226562 55.621094 95.226562 L 69.574219 95.226562 C 73.391537 95.226562 73.375539 92.219175 73.140625 90.234375 L 71.720703 78.244141 C 71.253448 74.296241 70.553153 71.740234 66.669922 71.740234 L 57.642578 71.740234 z "
       style="color:#000000;display:inline;overflow:visible;visibility:visible;opacity:1;fill:#808080;fill-opacity:1;fill-rule:nonzero;stroke:none;stroke-width:4;stroke-linecap:round;stroke-linejoin:round;stroke-miterlimit:4;stroke-dasharray:none;stroke-dashoffset:0;stroke-opacity:1;marker:none;enable-background:accumulate" />
  </g>
</svg>
