<?xml version="1.0" encoding="UTF-8" standalone="no"?>
<!-- Created with Inkscape (http://www.inkscape.org/) -->

<svg
   xmlns:dc="http://purl.org/dc/elements/1.1/"
   xmlns:cc="http://creativecommons.org/ns#"
   xmlns:rdf="http://www.w3.org/1999/02/22-rdf-syntax-ns#"
   xmlns:svg="http://www.w3.org/2000/svg"
   xmlns="http://www.w3.org/2000/svg"
   xmlns:sodipodi="http://sodipodi.sourceforge.net/DTD/sodipodi-0.dtd"
   xmlns:inkscape="http://www.inkscape.org/namespaces/inkscape"
   width="124.01575"
   height="124.01575"
   id="svg3565"
   version="1.1"
   inkscape:version="0.91 r13725"
   sodipodi:docname="data_modeling_whole.svg">
  <defs
     id="defs3567" />
  <sodipodi:namedview
     id="base"
     pagecolor="#ffffff"
     bordercolor="#666666"
     borderopacity="1.0"
     inkscape:pageopacity="0.0"
     inkscape:pageshadow="2"
     inkscape:zoom="3.959798"
     inkscape:cx="76.062391"
     inkscape:cy="59.858181"
     inkscape:document-units="px"
     inkscape:current-layer="layer1"
     showgrid="false"
     units="mm"
     inkscape:window-width="1920"
     inkscape:window-height="1059"
     inkscape:window-x="0"
     inkscape:window-y="0"
     inkscape:window-maximized="1" />
  <metadata
     id="metadata3570">
    <rdf:RDF>
      <cc:Work
         rdf:about="">
        <dc:format>image/svg+xml</dc:format>
        <dc:type
           rdf:resource="http://purl.org/dc/dcmitype/StillImage" />
        <dc:title></dc:title>
      </cc:Work>
    </rdf:RDF>
  </metadata>
  <g
     inkscape:label="Layer 1"
     inkscape:groupmode="layer"
     id="layer1"
     transform="translate(0,-928.34644)">
    <path
       style="color:#000000;display:inline;overflow:visible;visibility:visible;fill:#cccccc;fill-opacity:1;fill-rule:nonzero;stroke:none;stroke-width:10;marker:none;enable-background:accumulate;opacity:1"
       d="M 62 2.015625 C 28.874134 2.015625 2.015625 28.87413 2.015625 62 C 2.015625 95.12586 28.874134 121.98437 62 121.98438 C 95.125866 121.98438 121.98436 95.12586 121.98438 62 C 121.98438 28.87413 95.125866 2.015625 62 2.015625 z M 36.830078 18.570312 L 87.365234 18.570312 L 87.365234 48.033203 L 36.830078 48.033203 L 36.830078 18.570312 z M 27.677734 80.533203 L 46.785156 80.533203 L 46.785156 99.640625 L 27.677734 99.640625 L 27.677734 80.533203 z M 52.544922 80.533203 L 71.652344 80.533203 L 71.652344 99.640625 L 52.544922 99.640625 L 52.544922 80.533203 z M 77.410156 80.533203 L 96.517578 80.533203 L 96.517578 99.640625 L 77.410156 99.640625 L 77.410156 80.533203 z "
       transform="translate(0,928.34644)"
       id="path3658-5-8-2" />
    <path
       style="opacity:1;color:#000000;fill:#000000;fill-opacity:1;fill-rule:nonzero;stroke:none;stroke-width:10;marker:none;visibility:visible;display:inline;overflow:visible;enable-background:accumulate"
       d="M 62 0 C 27.753996 -9.4739031e-15 0 27.753996 0 62 C -9.4739031e-15 96.246004 27.753996 124.03125 62 124.03125 C 96.246004 124.03125 124.03125 96.246004 124.03125 62 C 124.03125 27.753996 96.246004 -1.8947806e-14 62 0 z M 62 3.53125 C 94.289088 3.53125 120.46875 29.710912 120.46875 62 C 120.46875 94.289088 94.289088 120.46875 62 120.46875 C 29.710912 120.46875 3.53125 94.289088 3.53125 62 C 3.53125 29.710912 29.710912 3.53125 62 3.53125 z M 58.931641 51.484375 L 58.931641 61.173828 L 34.027344 61.173828 L 34.027344 61.648438 L 34.027344 67.404297 L 34.027344 77.09375 L 40.257812 77.09375 L 40.257812 67.404297 L 58.931641 67.404297 L 58.931641 77.09375 L 65.162109 77.09375 L 65.162109 67.404297 L 83.837891 67.404297 L 83.837891 77.09375 L 90.068359 77.09375 L 90.068359 61.648438 L 90.068359 61.173828 L 65.162109 61.173828 L 65.162109 51.484375 L 58.931641 51.484375 z "
       transform="translate(0,928.34644)"
       id="path3658" />
  </g>
</svg>
